<?xml version="1.0" encoding="UTF-8" standalone="no"?>
<svg
   id="Pico"
   version="1.1"
   viewBox="0 0 168.7 425.9"
   xmlns="http://www.w3.org/2000/svg"
   xmlns:svg="http://www.w3.org/2000/svg">
  <!-- Generator: Adobe Illustrator 29.2.1, SVG Export Plug-In . SVG Version: 2.1.0 Build 116)  -->
  <defs
     id="defs1">
    <style
       id="style1">
      .st0 {
        fill: #33865f;
      }

      .st1 {
        fill: #30312e;
      }

      .st2 {
        fill: #958863;
      }

      .st3 {
        fill: #dbddda;
      }

      .st4 {
        fill: #fcee21;
      }

      .st5 {
        fill: #ecf6fd;
      }

      .st6 {
        fill: #ccc;
      }

      .st7 {
        fill: #3c3;
      }

      .st8 {
        fill: #004e29;
      }

      .st9 {
        fill: #fff;
      }

      .st10 {
        fill: #ebe713;
        fill-opacity: 0;
      }

      .st11 {
        fill: #2a2d2e;
      }

      .st12 {
        fill: #363a44;
      }

      .st13 {
        fill: #006837;
      }

      .st14 {
        fill: #3d3f38;
      }

      .st15 {
        fill: #9a916c;
      }
    </style>
  </defs>
  <g
     id="OF">
    <path
       id="OF_pin1"
       style="opacity:0;fill:#eb0064;fill-opacity:1"
       class="st10"
       d="M19.7,47.4c0,3.4-2.9,6.2-6.3,6.2s-6.2-2.8-6.3-6.2,2.7-6.3,6.1-6.4c3.4,0,6.3,2.6,6.5,6" />
    <path
       id="OF_pin2"
       style="opacity:0;fill:#eb0064;fill-opacity:1"
       class="st10"
       d="M19.8,88.1c0,3.4-2.9,6.2-6.3,6.2s-6.2-2.8-6.3-6.2c0-3.4,2.7-6.3,6.1-6.4,3.4,0,6.3,2.6,6.5,6" />
    <path
       id="OF_pin3"
       style="opacity:0;fill:#eb0064;fill-opacity:1"
       class="st10"
       d="M19.7,108.7c0,3.4-2.9,6.2-6.3,6.2s-6.2-2.8-6.3-6.2,2.7-6.3,6.1-6.4c3.4,0,6.3,2.6,6.5,6" />
    <path
       id="OF_pin4"
       style="opacity:0;fill:#eb0064;fill-opacity:1"
       class="st10"
       d="M19.7,128.9c0,3.4-2.9,6.2-6.3,6.2s-6.2-2.8-6.3-6.2c0-3.4,2.7-6.3,6.1-6.4,3.4,0,6.3,2.6,6.5,6" />
    <path
       id="OF_pin5"
       style="opacity:0;fill:#eb0064;fill-opacity:1"
       class="st10"
       d="M19.7,149.4c0,3.4-2.9,6.2-6.3,6.2s-6.2-2.8-6.3-6.2,2.7-6.3,6.1-6.4c3.4,0,6.3,2.6,6.5,6" />
    <path
       id="OF_pin6"
       style="opacity:0;fill:#eb0064;fill-opacity:1"
       class="st10"
       d="M19.8,190.2c0,3.4-2.9,6.2-6.3,6.2s-6.2-2.8-6.3-6.2,2.7-6.3,6.1-6.4c3.4,0,6.3,2.6,6.5,6" />
    <path
       id="OF_pin7"
       style="opacity:0;fill:#eb0064;fill-opacity:1"
       class="st10"
       d="M19.8,210.7c0,3.4-2.9,6.2-6.3,6.2s-6.2-2.8-6.3-6.2,2.7-6.3,6.1-6.4c3.4,0,6.3,2.6,6.5,6" />
    <path
       id="OF_pin8"
       style="opacity:0;fill:#eb0064;fill-opacity:1"
       class="st10"
       d="M19.7,231.1c0,3.4-2.9,6.2-6.3,6.2s-6.2-2.8-6.3-6.2,2.7-6.3,6.1-6.4c3.4,0,6.3,2.6,6.5,6" />
    <path
       id="OF_pin26"
       style="opacity:0;fill:#eb0064;fill-opacity:1"
       class="st10"
       d="M162.6,210.6c0,3.4-2.9,6.2-6.3,6.2s-6.2-2.8-6.3-6.2c0-3.4,2.7-6.3,6.1-6.4,3.4,0,6.3,2.6,6.5,6" />
    <path
       id="OF_pin27"
       style="opacity:0;fill:#eb0064;fill-opacity:1"
       class="st10"
       d="M162.6,190.2c0,3.4-2.9,6.2-6.3,6.2s-6.2-2.8-6.3-6.2c0-3.4,2.7-6.3,6.1-6.4,3.4,0,6.3,2.6,6.5,6" />
    <path
       id="OF_pin28"
       style="opacity:0;fill:#eb0064;fill-opacity:1"
       class="st10"
       d="M162.7,149.4c0,3.4-2.9,6.2-6.3,6.2s-6.2-2.8-6.3-6.2c0-3.4,2.7-6.3,6.1-6.4,3.4,0,6.3,2.6,6.5,6" />
    <path
       id="OF_pin9"
       style="opacity:0;fill:#eb0064;fill-opacity:1"
       class="st10"
       d="M19.8,251.6c0,3.4-2.9,6.2-6.3,6.2s-6.2-2.8-6.3-6.2c0-3.4,2.7-6.3,6.1-6.4,3.4,0,6.3,2.6,6.5,6" />
    <path
       id="OF_pin10"
       style="opacity:0;fill:#eb0064;fill-opacity:1"
       class="st10"
       d="M19.7,292.3c0,3.4-2.9,6.2-6.3,6.2s-6.2-2.8-6.3-6.2c0-3.4,2.7-6.3,6.1-6.4,3.4,0,6.3,2.6,6.5,6" />
    <path
       id="OF_pin11"
       style="opacity:0;fill:#eb0064;fill-opacity:1"
       class="st10"
       d="M19.7,312.9c0,3.4-2.9,6.2-6.3,6.2s-6.2-2.8-6.3-6.2,2.7-6.3,6.1-6.4c3.4,0,6.3,2.6,6.5,6" />
    <path
       id="OF_pin12"
       style="opacity:0;fill:#eb0064;fill-opacity:1"
       class="st10"
       d="M19.8,333.3c0,3.4-2.9,6.2-6.3,6.2s-6.2-2.8-6.3-6.2,2.7-6.3,6.1-6.4c3.4,0,6.3,2.6,6.5,6" />
    <path
       id="OF_pin13"
       style="opacity:0;fill:#eb0064;fill-opacity:1"
       class="st10"
       d="M19.8,353.7c0,3.4-2.9,6.2-6.3,6.2s-6.2-2.8-6.3-6.2,2.7-6.3,6.1-6.4c3.4,0,6.3,2.6,6.5,6" />
    <path
       id="OF_pin14"
       style="opacity:0;fill:#eb0064;fill-opacity:1"
       class="st10"
       d="M19.7,394.5c0,3.4-2.9,6.2-6.3,6.2s-6.2-2.8-6.3-6.2,2.7-6.3,6.1-6.4c3.4,0,6.3,2.6,6.5,6" />
    <path
       id="OF_pin17"
       style="opacity:0;fill:#eb0064;fill-opacity:1"
       class="st10"
       d="M162.6,394.5c0,3.4-2.9,6.2-6.3,6.2s-6.2-2.8-6.3-6.2c0-3.4,2.7-6.3,6.1-6.4,3.4,0,6.3,2.6,6.5,6" />
    <path
       id="OF_pin15"
       style="opacity:0;fill:#eb0064;fill-opacity:1"
       class="st10"
       d="M19.6,414.9c0,3.4-2.9,6.2-6.3,6.2s-6.2-2.8-6.3-6.2,2.7-6.3,6.1-6.4c3.4,0,6.3,2.6,6.5,6" />
    <path
       id="OF_pin16"
       style="opacity:0;fill:#eb0064;fill-opacity:1"
       class="st10"
       d="M162.6,414.7c0,3.4-2.9,6.2-6.3,6.2s-6.2-2.8-6.3-6.2c0-3.4,2.7-6.3,6.1-6.4,3.4,0,6.3,2.6,6.5,6" />
    <path
       id="OF_pin18"
       style="opacity:0;fill:#eb0064;fill-opacity:1"
       class="st10"
       d="M162.6,353.7c0,3.4-2.9,6.2-6.3,6.2s-6.2-2.8-6.3-6.2c0-3.4,2.7-6.3,6.1-6.4,3.4,0,6.3,2.6,6.5,6" />
    <path
       id="OF_pin19"
       style="opacity:0;fill:#eb0064;fill-opacity:1"
       class="st10"
       d="M162.5,333.3c0,3.4-2.9,6.2-6.3,6.2s-6.2-2.8-6.3-6.2c0-3.4,2.7-6.3,6.1-6.4,3.4,0,6.3,2.6,6.5,6" />
    <path
       id="OF_pin20"
       style="opacity:0;fill:#eb0064;fill-opacity:1"
       class="st10"
       d="M162.7,312.9c0,3.4-2.9,6.2-6.3,6.2s-6.2-2.8-6.3-6.2c0-3.4,2.7-6.3,6.1-6.4,3.4,0,6.3,2.6,6.5,6" />
    <path
       id="OF_pin21"
       style="opacity:0;fill:#eb0064;fill-opacity:1"
       class="st10"
       d="M162.6,292.5c0,3.4-2.9,6.2-6.3,6.2s-6.2-2.8-6.3-6.2c0-3.4,2.7-6.3,6.1-6.4,3.4,0,6.3,2.6,6.5,6" />
    <path
       id="OF_pin22"
       style="opacity:0;fill:#eb0064;fill-opacity:1"
       class="st10"
       d="M162.7,251.5c0,3.4-2.9,6.2-6.3,6.2s-6.2-2.8-6.3-6.2c0-3.4,2.7-6.3,6.1-6.4,3.4,0,6.3,2.6,6.5,6" />
    <path
       id="OF_pin0"
       style="opacity:0;fill:#eb0064;fill-opacity:1"
       class="st10"
       d="M19.7,27c0,3.4-2.9,6.2-6.3,6.2s-6.2-2.8-6.3-6.2,2.7-6.3,6.1-6.4c3.4,0,6.3,2.6,6.5,6" />
  </g>
  <g
     id="board">
    <path
       class="st13"
       d="M163.6,415c0-2.2,1.6-4,3.7-4.4v-11.4c-2.1-.3-3.7-2.2-3.7-4.4s1.6-4,3.7-4.4v-12c-2.1-.3-3.7-2.2-3.7-4.4s1.6-4,3.7-4.4v-11.3c-2.1-.3-3.7-2.2-3.7-4.4s1.6-4,3.7-4.4v-11.9c-2.1-.3-3.7-2.2-3.7-4.4s1.6-4,3.7-4.4v-11.6c-2.1-.3-3.7-2.2-3.7-4.4s1.6-4,3.7-4.4v-11.3c-2.1-.3-3.7-2.2-3.7-4.4s1.6-4,3.7-4.4v-11.9c-2.1-.3-3.7-2.2-3.7-4.4s1.6-4,3.7-4.4v-11.6c-2.1-.3-3.7-2.2-3.7-4.4s1.6-4,3.7-4.4v-11.7c-2.1-.3-3.7-2.2-3.7-4.4s1.6-4,3.7-4.4v-11.9c-2.1-.3-3.7-2.2-3.7-4.4s1.6-4,3.7-4.4v-11.3c-2.1-.3-3.7-2.2-3.7-4.4s1.6-4,3.7-4.4v-11.6c-2.1-.3-3.7-2.2-3.7-4.4s1.6-4,3.7-4.4v-11.7c-2.1-.3-3.7-2.2-3.7-4.4s1.6-4,3.7-4.4v-11.5c-2.1-.3-3.7-2.2-3.7-4.4s1.6-4,3.7-4.4v-11.6c-2.1-.3-3.7-2.2-3.7-4.4s1.6-4,3.7-4.4v-11.6c-2.1-.3-3.7-2.2-3.7-4.4s1.6-4,3.7-4.4v-11.9c-2.1-.3-3.7-2.2-3.7-4.4s1.6-4,3.7-4.4v-11.3c-2.1-.3-3.7-2.2-3.7-4.4s1.5-3.9,3.4-4.3c.1,0,.2,0,.3-.2v-11c-2.1-.3-3.7-2.2-3.7-4.4s1-3.2,2.4-4c.3-.4.8-.8,1.3-1.1v-4.4c0-1.1-.8-1.6-1.9-1.6H3.5c-1.1,0-2.1.5-2.1,1.6v6.3c1.2.6,1.9,1.7,1.9,3s-.7,2.5-1.9,3v14.4c1.7.8,2.4,2.8,1.6,4.5-.3.7-.9,1.2-1.6,1.6v14.4c1.2.6,1.9,1.7,1.9,3s-.7,2.5-1.9,3v14.4c1.2.6,1.9,1.7,1.9,3s-.7,2.5-1.9,3v14.4c1.2.6,1.9,1.7,1.9,3s-.7,2.5-1.9,3v14.4c1.2.6,1.9,1.7,1.9,3s-.7,2.5-1.9,3v14.4c1.2.6,1.9,1.7,1.9,3s-.7,2.5-1.9,3v14.4c1.2.6,1.9,1.7,1.9,3s-.7,2.5-1.9,3v14.4c1.2.6,1.9,1.7,1.9,3s-.7,2.5-1.9,3v14.4c1.2.6,1.9,1.7,1.9,3s-.7,2.5-1.9,3v14.4c1.2.6,1.9,1.7,1.9,3s-.7,2.5-1.9,3v14.4c1.2.6,1.9,1.7,1.9,3s-.7,2.5-1.9,3v14.4c1.2.6,1.9,1.7,1.9,3s-.7,2.5-1.9,3v14.4c1.2.6,1.9,1.7,1.9,3s-.7,2.5-1.9,3v14.4c1.2.6,1.9,1.7,1.9,3s-.7,2.5-1.9,3v14.4c1.2.6,1.9,1.7,1.9,3s-.7,2.5-1.9,3v14.4c1.2.6,1.9,1.7,1.9,3s-.7,2.5-1.9,3v14.4c1.2.6,1.9,1.7,1.9,3s-.7,2.5-1.9,3v14.4c1.2.6,1.9,1.7,1.9,3s-.7,2.5-1.9,3v14.4c1.2.6,1.9,1.7,1.9,3s-.7,2.5-1.9,3v4.5c0,1.1.9,2,2,2h57.4c.8-1.7,2.8-2.4,4.5-1.6.7.3,1.2.9,1.6,1.6h14.4c.8-1.7,2.8-2.4,4.5-1.6.7.3,1.2.9,1.6,1.6h14.4c.8-1.7,2.8-2.4,4.5-1.6.7.3,1.2.9,1.6,1.6h57.4c1.1,0,2-.9,2-2v-2.8c-2.1-.3-3.7-2.2-3.7-4.4v-.4h0ZM12.8,418.2c-1.9,0-3.4-1.5-3.4-3.4s1.5-3.4,3.4-3.4,3.4,1.5,3.4,3.4-1.5,3.4-3.4,3.4ZM12.8,397.8c-1.9,0-3.4-1.5-3.4-3.4s1.5-3.4,3.4-3.4,3.4,1.5,3.4,3.4-1.5,3.4-3.4,3.4ZM12.8,377.4c-1.9,0-3.4-1.5-3.4-3.4s1.5-3.4,3.4-3.4,3.4,1.5,3.4,3.4-1.5,3.4-3.4,3.4ZM12.8,357.1c-1.9,0-3.4-1.5-3.4-3.4s1.5-3.4,3.4-3.4,3.4,1.5,3.4,3.4-1.5,3.4-3.4,3.4ZM12.8,336.7c-1.9,0-3.4-1.5-3.4-3.4s1.5-3.4,3.4-3.4,3.4,1.5,3.4,3.4-1.5,3.4-3.4,3.4ZM12.8,316.3c-1.9,0-3.4-1.5-3.4-3.4s1.5-3.4,3.4-3.4,3.4,1.5,3.4,3.4-1.5,3.4-3.4,3.4ZM12.8,295.9c-1.9,0-3.4-1.5-3.4-3.4s1.5-3.4,3.4-3.4,3.4,1.5,3.4,3.4-1.5,3.4-3.4,3.4ZM12.8,275.4c-1.9,0-3.4-1.5-3.4-3.4s1.5-3.4,3.4-3.4,3.4,1.5,3.4,3.4-1.5,3.4-3.4,3.4ZM12.8,255.1c-1.9,0-3.4-1.5-3.4-3.4s1.5-3.4,3.4-3.4,3.4,1.5,3.4,3.4-1.5,3.4-3.4,3.4ZM12.8,234.7c-1.9,0-3.4-1.5-3.4-3.4s1.5-3.4,3.4-3.4,3.4,1.5,3.4,3.4-1.5,3.4-3.4,3.4ZM12.8,214.3c-1.9,0-3.4-1.5-3.4-3.4s1.5-3.4,3.4-3.4,3.4,1.5,3.4,3.4-1.5,3.4-3.4,3.4ZM12.8,193.9c-1.9,0-3.4-1.5-3.4-3.4s1.5-3.4,3.4-3.4,3.4,1.5,3.4,3.4-1.5,3.4-3.4,3.4ZM12.8,173.5c-1.9,0-3.4-1.5-3.4-3.4s1.5-3.4,3.4-3.4,3.4,1.5,3.4,3.4-1.5,3.4-3.4,3.4ZM12.8,153.2c-1.9,0-3.4-1.5-3.4-3.4s1.5-3.4,3.4-3.4,3.4,1.5,3.4,3.4-1.5,3.4-3.4,3.4ZM12.8,132.8c-1.9,0-3.4-1.5-3.4-3.4s1.5-3.4,3.4-3.4,3.4,1.5,3.4,3.4-1.5,3.4-3.4,3.4ZM12.8,112.4c-1.9,0-3.4-1.5-3.4-3.4s1.5-3.4,3.4-3.4,3.4,1.5,3.4,3.4-1.5,3.4-3.4,3.4ZM12.8,92c-1.9,0-3.4-1.5-3.4-3.4s1.5-3.4,3.4-3.4,3.4,1.5,3.4,3.4-1.5,3.4-3.4,3.4ZM12.8,71.6c-1.9,0-3.4-1.5-3.4-3.4s1.5-3.4,3.4-3.4,3.4,1.5,3.4,3.4-1.5,3.4-3.4,3.4ZM12.8,51.3c-1.9,0-3.4-1.5-3.4-3.4s1.5-3.4,3.4-3.4,3.4,1.5,3.4,3.4-1.5,3.4-3.4,3.4ZM12.8,30.8c-1.9,0-3.4-1.5-3.4-3.4s1.5-3.4,3.4-3.4,3.4,1.5,3.4,3.4-1.5,3.4-3.4,3.4ZM38.4,416.5c-3.9,0-7.1-3.2-7.1-7.1s3.2-7.1,7.1-7.1,7.1,3.2,7.1,7.1-3.2,7.1-7.1,7.1ZM38.4,40.2h0c-3.9,0-7.1-3.3-7.1-7.2s3.2-7.1,7.1-7.1,7.1,3.2,7.1,7.1-3.2,7.2-7.1,7.2ZM63.8,418.2c-1.9,0-3.4-1.5-3.4-3.4s1.5-3.4,3.4-3.4,3.4,1.5,3.4,3.4-1.5,3.4-3.4,3.4ZM84.2,418.2c-1.9,0-3.4-1.5-3.4-3.4s1.5-3.4,3.4-3.4,3.4,1.5,3.4,3.4-1.5,3.4-3.4,3.4ZM104.6,418.2c-1.9,0-3.4-1.5-3.4-3.4s1.5-3.4,3.4-3.4,3.4,1.5,3.4,3.4-1.5,3.4-3.4,3.4ZM130,416.5c-3.9,0-7.1-3.2-7.1-7.1s3.2-7.1,7.1-7.1,7.1,3.2,7.1,7.1-3.2,7.1-7.1,7.1ZM130,40.1c-3.9,0-7.1-3.2-7.1-7.1s3.2-7.1,7.1-7.1,7.1,3.2,7.1,7.1-3.2,7.1-7.1,7.1ZM155.6,418.2c-1.9,0-3.4-1.5-3.4-3.4s1.5-3.4,3.4-3.4,3.4,1.5,3.4,3.4-1.5,3.4-3.4,3.4ZM155.6,397.8c-1.9,0-3.4-1.5-3.4-3.4s1.5-3.4,3.4-3.4,3.4,1.5,3.4,3.4-1.5,3.4-3.4,3.4ZM155.6,377.4c-1.9,0-3.4-1.5-3.4-3.4s1.5-3.4,3.4-3.4,3.4,1.5,3.4,3.4-1.5,3.4-3.4,3.4ZM155.6,357.1c-1.9,0-3.4-1.5-3.4-3.4s1.5-3.4,3.4-3.4,3.4,1.5,3.4,3.4-1.5,3.4-3.4,3.4ZM155.6,336.7c-1.9,0-3.4-1.5-3.4-3.4s1.5-3.4,3.4-3.4,3.4,1.5,3.4,3.4-1.5,3.4-3.4,3.4ZM155.6,316.3c-1.9,0-3.4-1.5-3.4-3.4s1.5-3.4,3.4-3.4,3.4,1.5,3.4,3.4-1.5,3.4-3.4,3.4ZM155.6,295.9c-1.9,0-3.4-1.5-3.4-3.4s1.5-3.4,3.4-3.4,3.4,1.5,3.4,3.4-1.5,3.4-3.4,3.4ZM155.6,275.5c-1.9,0-3.4-1.5-3.4-3.4s1.5-3.4,3.4-3.4,3.4,1.5,3.4,3.4-1.5,3.4-3.4,3.4ZM155.6,255.1c-1.9,0-3.4-1.5-3.4-3.4s1.5-3.4,3.4-3.4,3.4,1.5,3.4,3.4-1.5,3.4-3.4,3.4ZM155.6,234.7c-1.9,0-3.4-1.5-3.4-3.4s1.5-3.4,3.4-3.4,3.4,1.5,3.4,3.4-1.5,3.4-3.4,3.4ZM155.6,214.3c-1.9,0-3.4-1.5-3.4-3.4s1.5-3.4,3.4-3.4,3.4,1.5,3.4,3.4-1.5,3.4-3.4,3.4ZM155.6,193.9c-1.9,0-3.4-1.5-3.4-3.4s1.5-3.4,3.4-3.4,3.4,1.5,3.4,3.4-1.5,3.4-3.4,3.4ZM155.6,173.5c-1.9,0-3.4-1.5-3.4-3.4s1.5-3.4,3.4-3.4,3.4,1.5,3.4,3.4-1.5,3.4-3.4,3.4ZM155.6,153.2c-1.9,0-3.4-1.5-3.4-3.4s1.5-3.4,3.4-3.4,3.4,1.5,3.4,3.4-1.5,3.4-3.4,3.4ZM155.6,132.8c-1.9,0-3.4-1.5-3.4-3.4s1.5-3.4,3.4-3.4,3.4,1.5,3.4,3.4-1.5,3.4-3.4,3.4ZM155.6,112.4c-1.9,0-3.4-1.5-3.4-3.4s1.5-3.4,3.4-3.4,3.4,1.5,3.4,3.4-1.5,3.4-3.4,3.4ZM155.6,92c-1.9,0-3.4-1.5-3.4-3.4s1.5-3.4,3.4-3.4,3.4,1.5,3.4,3.4-1.5,3.4-3.4,3.4ZM155.6,71.6c-1.9,0-3.4-1.5-3.4-3.4s1.5-3.4,3.4-3.4,3.4,1.5,3.4,3.4-1.5,3.4-3.4,3.4ZM155.6,51.3c-1.9,0-3.4-1.5-3.4-3.4s1.5-3.4,3.4-3.4,3.4,1.5,3.4,3.4-1.5,3.4-3.4,3.4ZM155.6,30.9c-1.9,0-3.4-1.5-3.4-3.4s1.5-3.4,3.4-3.4,3.4,1.5,3.4,3.4-1.5,3.4-3.4,3.4Z"
       id="path1" />
    <path
       class="st8"
       d="M168.8,44.4v-13.6h0c-.5,0-1.1,0-1.5-.4v14.4c.5-.3,1-.4,1.5-.4Z"
       id="path2" />
    <path
       class="st8"
       d="M168.8,64.8v-13.6h0c-.5,0-1.1,0-1.5-.4v14.4c.5-.3,1-.4,1.5-.4Z"
       id="path3" />
    <path
       class="st8"
       d="M168.8,85.2v-13.5h0c-.5,0-1.1,0-1.5-.4v14.4c.5-.3,1-.4,1.5-.4h0Z"
       id="path4" />
    <path
       class="st8"
       d="M168.8,105.6v-13.5h0c-.5,0-1.1,0-1.5-.4v14.4c.5-.3,1-.4,1.5-.4h0Z"
       id="path5" />
    <path
       class="st8"
       d="M168.8,126v-13.5h0c-.5,0-1.1,0-1.5-.4v14.4c.5-.3,1-.4,1.5-.4h0Z"
       id="path6" />
    <path
       class="st8"
       d="M168.8,146.4v-13.5h0c-.5,0-1.1-.2-1.5-.4v14.4c.5-.3,1-.4,1.5-.4h0Z"
       id="path7" />
    <path
       class="st8"
       d="M168.8,166.7v-13.6h0c-.5,0-1.1,0-1.5-.4v14.4c.5-.3,1-.4,1.5-.4Z"
       id="path8" />
    <path
       class="st8"
       d="M168.8,187.1v-13.6h0c-.5,0-1.1,0-1.5-.4v14.4c.5-.3,1-.4,1.5-.4Z"
       id="path9" />
    <path
       class="st8"
       d="M168.8,207.5v-13.6h0c-.5,0-1.1,0-1.5-.4v14.4c.5-.3,1-.4,1.5-.4Z"
       id="path10" />
    <path
       class="st8"
       d="M168.8,227.9v-13.6h0c-.5,0-1.1,0-1.5-.4v14.4c.5-.3,1-.4,1.5-.4h0"
       id="path11" />
    <path
       class="st8"
       d="M168.8,248.3v-13.5h0c-.5,0-1.1-.2-1.5-.4v14.4c.5-.3,1-.4,1.5-.4h0Z"
       id="path12" />
    <path
       class="st8"
       d="M168.8,268.6v-13.6h0c-.5,0-1.1,0-1.5-.4v14.4c.5-.3,1-.4,1.5-.4Z"
       id="path13" />
    <path
       class="st8"
       d="M168.8,289v-13.6h0c-.5,0-1.1,0-1.5-.4v14.4c.5-.3,1-.4,1.5-.4Z"
       id="path14" />
    <path
       class="st8"
       d="M168.8,309.4v-13.6h0c-.5,0-1.1,0-1.5-.4v14.4c.5-.3,1-.4,1.5-.4Z"
       id="path15" />
    <path
       class="st8"
       d="M168.8,329.9v-13.6h0c-.5,0-1.1,0-1.5-.4v14.4c.5-.3,1-.4,1.5-.4Z"
       id="path16" />
    <path
       class="st8"
       d="M168.8,350.3v-13.6h0c-.5,0-1.1-.2-1.5-.4v14.4c.5-.3,1-.4,1.5-.4h0"
       id="path17" />
    <path
       class="st8"
       d="M168.8,370.7v-13.6h0c-.5,0-1.1,0-1.5-.4v14.4c.5-.3,1-.4,1.5-.4Z"
       id="path18" />
    <path
       class="st8"
       d="M168.8,391v-13.6h0c-.5,0-1.1,0-1.5-.4v14.4c.5-.3,1-.4,1.5-.4h0Z"
       id="path19" />
    <path
       class="st8"
       d="M168.8,411.4v-13.5h0c-.5,0-1.1,0-1.5-.4v14.4c.5-.3,1-.4,1.5-.4h0Z"
       id="path20" />
    <path
       class="st8"
       d="M168.8,418.2h0c-.5,0-1.1,0-1.5-.4v4.5c0,1.1-.9,2-2,2h-57.4c.3.5.4,1,.4,1.5h57.3c1.8,0,3.2-1.4,3.2-3.2h0v-4.4h0Z"
       id="path21" />
    <path
       class="st8"
       d="M67,424.3c.3.5.4,1,.4,1.5h13.5c0-.5,0-1.1.4-1.5h-14.4,0Z"
       id="path22" />
    <path
       class="st8"
       d="M87.4,424.3c.3.5.4,1,.4,1.5h13.6c0-.5,0-1.1.4-1.5h-14.4Z"
       id="path23" />
    <path
       class="st8"
       d="M167.8,17.4l-1.2,1.2c.4.4.6.9.6,1.4v4.4c.5-.3,1-.4,1.5-.4h0v-4.3c0-.9-.3-1.7-.9-2.3"
       id="path24" />
    <path
       class="st8"
       d="M61,424.3H3.6c-.5,0-1-.2-1.4-.6l-1.2,1.2c.6.6,1.4.9,2.3.9h57.3c0-.5,0-1.1.4-1.5"
       id="path25" />
    <path
       class="st0"
       d="M165.6,16.5H3.2c-1.8,0-3.2,1.4-3.2,3.2v4.3h0c.5,0,1.1,0,1.5.4v-4.4c0-1.1.9-2,2-2h161.6c.5,0,1,.2,1.4.6l1.2-1.2c-.6-.6-1.4-.9-2.3-.9"
       id="path26" />
    <path
       class="st0"
       d="M0,51.3v13.6h0c.5,0,1.1,0,1.5.4v-14.4c-.5.3-1,.4-1.5.4Z"
       id="path27" />
    <path
       class="st0"
       d="M0,71.6v13.6h0c.5,0,1.1,0,1.5.4v-14.4c-.5.3-1,.4-1.5.4h0"
       id="path28" />
    <path
       class="st0"
       d="M0,92v13.6h0c.5,0,1.1,0,1.5.4v-14.4c-.5.3-1,.4-1.5.4Z"
       id="path29" />
    <path
       class="st0"
       d="M0,112.4v13.6h0c.5,0,1.1,0,1.5.4v-14.4c-.5.3-1,.4-1.5.4Z"
       id="path30" />
    <path
       class="st0"
       d="M0,132.8v13.6h0c.5,0,1.1,0,1.5.4v-14.4c-.5.3-1,.4-1.5.4h0Z"
       id="path31" />
    <path
       class="st0"
       d="M0,153.2v13.6h0c.5,0,1.1,0,1.5.4v-14.4c-.5.3-1,.4-1.5.4Z"
       id="path32" />
    <path
       class="st0"
       d="M0,173.5v13.6h0c.5,0,1.1,0,1.5.4v-14.4c-.5.3-1,.4-1.5.4Z"
       id="path33" />
    <path
       class="st0"
       d="M0,194v13.6h0c.5,0,1.1,0,1.5.4v-14.4c-.5.3-1,.4-1.5.4Z"
       id="path34" />
    <path
       class="st0"
       d="M0,214.4v13.6h0c.5,0,1.1,0,1.5.4v-14.4c-.5.3-1,.4-1.5.4Z"
       id="path35" />
    <path
       class="st0"
       d="M0,234.8v13.6h0c.5,0,1.1,0,1.5.4v-14.4c-.5.3-1,.4-1.5.4h0Z"
       id="path36" />
    <path
       class="st0"
       d="M0,255.2v13.6h0c.5,0,1.1,0,1.5.4v-14.4c-.5.3-1,.4-1.5.4h0Z"
       id="path37" />
    <path
       class="st0"
       d="M0,275.5v13.6h0c.5,0,1.1,0,1.5.4v-14.4c-.5.3-1,.4-1.5.4Z"
       id="path38" />
    <path
       class="st0"
       d="M0,295.9v13.6h0c.5,0,1.1,0,1.5.4v-14.4c-.5.3-1,.4-1.5.4Z"
       id="path39" />
    <path
       class="st0"
       d="M0,316.3v13.6h0c.5,0,1.1,0,1.5.4v-14.4c-.5.3-1,.4-1.5.4Z"
       id="path40" />
    <path
       class="st0"
       d="M0,336.7v13.6h0c.5,0,1.1,0,1.5.4v-14.4c-.5.3-1,.4-1.5.4h0Z"
       id="path41" />
    <path
       class="st0"
       d="M0,357.1v13.6h0c.5,0,1.1,0,1.5.4v-14.4c-.5.3-1,.4-1.5.4Z"
       id="path42" />
    <path
       class="st0"
       d="M0,377.4v13.6h0c.5,0,1.1,0,1.5.4v-14.4c-.5.3-1,.4-1.5.4h0Z"
       id="path43" />
    <path
       class="st0"
       d="M0,397.8v13.5h0c.5,0,1.1,0,1.5.4v-14.4c-.5.3-1,.4-1.5.4h0Z"
       id="path44" />
    <path
       class="st0"
       d="M0,30.9v13.6h0c.5,0,1.1,0,1.5.4v-14.4c-.5.3-1,.4-1.5.4Z"
       id="path45" />
    <path
       class="st0"
       d="M1,424.9l1.2-1.2c-.4-.4-.6-.9-.6-1.4v-4.5c-.5.3-1,.4-1.5.4v4.4c0,.9.3,1.7.9,2.3"
       id="path46" />
    <path
       class="st15"
       d="M18.6,47.9c0-3.1-2.5-5.6-5.6-5.6H0v2.2h0c1.9,0,3.4,1.5,3.4,3.4s-1.5,3.4-3.4,3.4h0v2.2h12.9c3.1,0,5.6-2.5,5.6-5.6M13,51.3c-1.9,0-3.4-1.5-3.4-3.4s1.5-3.4,3.4-3.4,3.4,1.5,3.4,3.4-1.5,3.4-3.4,3.4h0"
       id="path47" />
    <path
       class="st15"
       d="M18.6,62.6H0v2.2h0c1.9,0,3.4,1.5,3.4,3.4s-1.5,3.4-3.4,3.4h0v2.2h18.5v-11.2s.1,0,.1,0ZM13,71.6c-1.9,0-3.4-1.5-3.4-3.4s1.5-3.4,3.4-3.4,3.4,1.5,3.4,3.4-1.5,3.4-3.4,3.4h0"
       id="path48" />
    <path
       class="st15"
       d="M18.6,88.6c0-3.1-2.5-5.6-5.6-5.6H0v2.2h0c1.9,0,3.4,1.5,3.4,3.4s-1.5,3.4-3.4,3.4h0v2.2h12.9c3.1,0,5.6-2.5,5.6-5.6M13,92c-1.9,0-3.4-1.5-3.4-3.4s1.5-3.4,3.4-3.4,3.4,1.5,3.4,3.4-1.5,3.4-3.4,3.4h0"
       id="path49" />
    <path
       class="st15"
       d="M18.6,109c0-3.1-2.5-5.6-5.6-5.6H0v2.2h0c1.9,0,3.4,1.5,3.4,3.4s-1.5,3.4-3.4,3.4h0v2.2h12.9c3.1,0,5.6-2.5,5.6-5.6M13,112.4c-1.9,0-3.4-1.5-3.4-3.4s1.5-3.4,3.4-3.4,3.4,1.5,3.4,3.4-1.5,3.4-3.4,3.4h0"
       id="path50" />
    <path
       class="st15"
       d="M18.6,129.4c0-3.1-2.5-5.6-5.6-5.6H0v2.2h0c1.9,0,3.4,1.5,3.4,3.4s-1.5,3.4-3.4,3.4h0v2.2h12.9c3.1,0,5.6-2.5,5.6-5.6M13,132.8c-1.9,0-3.4-1.5-3.4-3.4s1.5-3.4,3.4-3.4,3.4,1.5,3.4,3.4-1.5,3.4-3.4,3.4h0"
       id="path51" />
    <path
       class="st15"
       d="M18.6,149.8c0-3.1-2.5-5.6-5.6-5.6H0v2.2h0c1.9,0,3.4,1.5,3.4,3.4s-1.5,3.4-3.4,3.4h0v2.2h12.9c3.1,0,5.6-2.5,5.6-5.6M13,153.2c-1.9,0-3.4-1.5-3.4-3.4s1.5-3.4,3.4-3.4,3.4,1.5,3.4,3.4-1.5,3.4-3.4,3.4h0"
       id="path52" />
    <path
       class="st15"
       d="M18.6,164.5H0v2.2h0c1.9,0,3.4,1.5,3.4,3.4s-1.5,3.4-3.4,3.4h0v2.2h18.5v-11.2h.1ZM13,173.5c-1.9,0-3.4-1.5-3.4-3.4s1.5-3.4,3.4-3.4,3.4,1.5,3.4,3.4-1.5,3.4-3.4,3.4h0"
       id="path53" />
    <path
       class="st15"
       d="M18.6,190.5c0-3.1-2.5-5.6-5.6-5.6H0v2.2h0c1.9,0,3.4,1.5,3.4,3.4s-1.5,3.4-3.4,3.4h0v2.2h12.9c3.1,0,5.6-2.5,5.6-5.6M13,193.9c-1.9,0-3.4-1.5-3.4-3.4s1.5-3.4,3.4-3.4,3.4,1.5,3.4,3.4h0c0,1.9-1.5,3.4-3.4,3.4"
       id="path54" />
    <path
       class="st15"
       d="M18.6,210.9c0-3.1-2.5-5.6-5.6-5.6H0v2.2h0c1.9,0,3.4,1.5,3.4,3.4s-1.5,3.4-3.4,3.4h0v2.2h12.9c3.1,0,5.6-2.5,5.6-5.6M13,214.3c-1.9,0-3.4-1.5-3.4-3.4s1.5-3.4,3.4-3.4,3.4,1.5,3.4,3.4h0c0,1.9-1.5,3.4-3.4,3.4"
       id="path55" />
    <path
       class="st15"
       d="M18.6,231.3c0-3.1-2.5-5.6-5.6-5.6H0v2.2h0c1.9,0,3.4,1.5,3.4,3.4s-1.5,3.4-3.4,3.4h0v2.2h12.9c3.1,0,5.6-2.5,5.6-5.6M13,234.7c-1.9,0-3.4-1.5-3.4-3.4s1.5-3.4,3.4-3.4,3.4,1.5,3.4,3.4h0c0,1.9-1.5,3.4-3.4,3.4"
       id="path56" />
    <path
       class="st15"
       d="M18.6,251.7c0-3.1-2.5-5.6-5.6-5.6H0v2.2h0c1.9,0,3.4,1.5,3.4,3.4s-1.5,3.4-3.4,3.4h0v2.2h12.9c3.1,0,5.6-2.5,5.6-5.6M13,255.1c-1.9,0-3.4-1.5-3.4-3.4s1.5-3.4,3.4-3.4,3.4,1.5,3.4,3.4h0c0,1.9-1.5,3.4-3.4,3.4"
       id="path57" />
    <path
       class="st15"
       d="M18.6,266.5H0v2.2h0c1.9,0,3.4,1.5,3.4,3.4s-1.5,3.4-3.4,3.4h0v2.2h18.5v-11.2h.1ZM13,275.4c-1.9,0-3.4-1.5-3.4-3.4s1.5-3.4,3.4-3.4,3.4,1.5,3.4,3.4h0c0,1.9-1.5,3.4-3.4,3.4"
       id="path58" />
    <path
       class="st15"
       d="M18.6,292.5c0-3.1-2.5-5.6-5.6-5.6H0v2.2h0c1.9,0,3.4,1.5,3.4,3.4s-1.5,3.4-3.4,3.4h0v2.2h12.9c3.1,0,5.6-2.5,5.6-5.6M13,295.9c-1.9,0-3.4-1.5-3.4-3.4s1.5-3.4,3.4-3.4,3.4,1.5,3.4,3.4h0c0,1.9-1.5,3.4-3.4,3.4"
       id="path59" />
    <path
       class="st15"
       d="M18.6,312.9c0-3.1-2.5-5.6-5.6-5.6H0v2.2h0c1.9,0,3.4,1.5,3.4,3.4s-1.5,3.4-3.4,3.4h0v2.2h12.9c3.1,0,5.6-2.5,5.6-5.6M13,316.3c-1.9,0-3.4-1.5-3.4-3.4s1.5-3.4,3.4-3.4,3.4,1.5,3.4,3.4h0c0,1.9-1.5,3.4-3.4,3.4"
       id="path60" />
    <path
       class="st15"
       d="M18.6,333.3c0-3.1-2.5-5.6-5.6-5.6H0v2.2h0c1.9,0,3.4,1.5,3.4,3.4s-1.5,3.4-3.4,3.4h0v2.2h12.9c3.1,0,5.6-2.5,5.6-5.6M13,336.7c-1.9,0-3.4-1.5-3.4-3.4s1.5-3.4,3.4-3.4,3.4,1.5,3.4,3.4h0c0,1.9-1.5,3.4-3.4,3.4"
       id="path61" />
    <path
       class="st15"
       d="M18.6,353.7c0-3.1-2.5-5.6-5.6-5.6H0v2.2h0c1.9,0,3.4,1.5,3.4,3.4s-1.5,3.4-3.4,3.4h0v2.2h12.9c3.1,0,5.6-2.5,5.6-5.6M13,357.1c-1.9,0-3.4-1.5-3.4-3.4s1.5-3.4,3.4-3.4,3.4,1.5,3.4,3.4h0c0,1.9-1.5,3.4-3.4,3.4"
       id="path62" />
    <path
       class="st15"
       d="M18.6,368.5H0v2.2h0c1.9,0,3.4,1.5,3.4,3.4s-1.5,3.4-3.4,3.4h0v2.2h18.5v-11.2h.1ZM13,377.4c-1.9,0-3.4-1.5-3.4-3.4s1.5-3.4,3.4-3.4,3.4,1.5,3.4,3.4h0c0,1.9-1.5,3.4-3.4,3.4"
       id="path63" />
    <path
       class="st15"
       d="M18.6,394.4c0-3.1-2.5-5.6-5.6-5.6H0v2.2h0c1.9,0,3.4,1.5,3.4,3.4s-1.5,3.4-3.4,3.4h0v2.2h12.9c3.1,0,5.6-2.5,5.6-5.6M13,397.8c-1.9,0-3.4-1.5-3.4-3.4s1.5-3.4,3.4-3.4,3.4,1.5,3.4,3.4h0c0,1.9-1.5,3.4-3.4,3.4"
       id="path64" />
    <path
       class="st15"
       d="M18.6,414.8c0-3.1-2.5-5.6-5.6-5.6H0v2.2h0c1.9,0,3.4,1.5,3.4,3.4s-1.5,3.4-3.4,3.4h0v2.2h12.9c3.1,0,5.6-2.5,5.6-5.6M13,418.2c-1.9,0-3.4-1.5-3.4-3.4s1.5-3.4,3.4-3.4,3.4,1.5,3.4,3.4h0c0,1.9-1.5,3.4-3.4,3.4"
       id="path65" />
    <path
       class="st15"
       d="M155.8,53.5h12.9v-2.2c-1.9,0-3.5-1.4-3.5-3.3s1.4-3.5,3.3-3.5h.2v-2.2h-12.9c-3.1,0-5.5,2.6-5.5,5.7s2.5,5.4,5.5,5.5M152.4,47.9c0-1.9,1.5-3.4,3.4-3.4s3.4,1.5,3.4,3.4-1.5,3.4-3.4,3.4-3.4-1.5-3.4-3.4h0"
       id="path66" />
    <path
       class="st15"
       d="M150.2,73.8h18.5v-2.2c-1.9,0-3.5-1.4-3.5-3.3s1.4-3.5,3.3-3.5h.2v-2.2h-18.5v11.2ZM152.4,68.2c0-1.9,1.5-3.4,3.4-3.4s3.4,1.5,3.4,3.4-1.5,3.4-3.4,3.4-3.4-1.5-3.4-3.4h0"
       id="path67" />
    <path
       class="st15"
       d="M155.8,94.2h12.9v-2.2c-1.9,0-3.5-1.4-3.5-3.3s1.4-3.5,3.3-3.5h.2v-2.2h-12.9c-3.1,0-5.5,2.6-5.5,5.7s2.5,5.4,5.5,5.5M152.4,88.6c0-1.9,1.5-3.4,3.4-3.4s3.4,1.5,3.4,3.4-1.5,3.4-3.4,3.4h0c-1.9,0-3.4-1.5-3.4-3.4h0"
       id="path68" />
    <path
       class="st15"
       d="M155.8,114.6h12.9v-2.2c-1.9,0-3.5-1.4-3.5-3.3s1.4-3.5,3.3-3.5h.2v-2.2h-12.9c-3.1,0-5.5,2.6-5.5,5.7s2.5,5.4,5.5,5.5M152.4,109c0-1.9,1.5-3.4,3.4-3.4s3.4,1.5,3.4,3.4-1.5,3.4-3.4,3.4-3.4-1.5-3.4-3.4h0"
       id="path69" />
    <path
       class="st15"
       d="M155.8,135h12.9v-2.2c-1.9,0-3.5-1.4-3.5-3.3s1.4-3.5,3.3-3.5h.2v-2.2h-12.9c-3.1,0-5.5,2.6-5.5,5.7s2.5,5.4,5.5,5.5M152.4,129.4c0-1.9,1.5-3.4,3.4-3.4s3.4,1.5,3.4,3.4-1.5,3.4-3.4,3.4-3.4-1.5-3.4-3.4h0"
       id="path70" />
    <path
       class="st15"
       d="M155.8,155.4h12.9v-2.2c-1.9,0-3.5-1.4-3.5-3.3s1.4-3.5,3.3-3.5h.2v-2.2h-12.9c-3.1,0-5.5,2.6-5.5,5.7s2.5,5.4,5.5,5.5M152.4,149.8c0-1.9,1.5-3.4,3.4-3.4s3.4,1.5,3.4,3.4-1.5,3.4-3.4,3.4-3.4-1.5-3.4-3.4h0"
       id="path71" />
    <path
       class="st15"
       d="M150.2,175.7h18.5v-2.2c-1.9,0-3.5-1.4-3.5-3.3s1.4-3.5,3.3-3.5h.2v-2.2h-18.5v11.2ZM152.4,170.1c0-1.9,1.5-3.4,3.4-3.4s3.4,1.5,3.4,3.4-1.5,3.4-3.4,3.4-3.4-1.5-3.4-3.4h0"
       id="path72" />
    <path
       class="st15"
       d="M155.8,196.1h12.9v-2.2c-1.9,0-3.5-1.4-3.5-3.3s1.4-3.5,3.3-3.5h.2v-2.2h-12.9c-3.1,0-5.5,2.6-5.5,5.7s2.5,5.4,5.5,5.5M152.4,190.5c0-1.9,1.5-3.4,3.4-3.4s3.4,1.5,3.4,3.4-1.5,3.4-3.4,3.4h0c-1.9,0-3.4-1.5-3.4-3.4"
       id="path73" />
    <path
       class="st15"
       d="M155.8,216.5h12.9v-2.2c-1.9,0-3.5-1.4-3.5-3.3s1.4-3.5,3.3-3.5h.2v-2.2h-12.9c-3.1,0-5.5,2.6-5.5,5.7s2.5,5.4,5.5,5.5M152.4,210.9c0-1.9,1.5-3.4,3.4-3.4s3.4,1.5,3.4,3.4-1.5,3.4-3.4,3.4h0c-1.9,0-3.4-1.5-3.4-3.4"
       id="path74" />
    <path
       class="st15"
       d="M155.8,236.9h12.9v-2.2c-1.9,0-3.5-1.4-3.5-3.3s1.4-3.5,3.3-3.5h.2v-2.2h-12.9c-3.1,0-5.6,2.5-5.6,5.6s2.5,5.6,5.6,5.6M152.4,231.3c0-1.9,1.5-3.4,3.4-3.4s3.4,1.5,3.4,3.4-1.5,3.4-3.4,3.4h0c-1.9,0-3.4-1.5-3.4-3.4"
       id="path75" />
    <path
       class="st15"
       d="M155.8,257.3h12.9v-2.2c-1.9,0-3.5-1.4-3.5-3.3s1.4-3.5,3.3-3.5h.2v-2.2h-12.9c-3.1,0-5.6,2.5-5.6,5.6s2.5,5.6,5.6,5.6M152.4,251.7c0-1.9,1.5-3.4,3.4-3.4s3.4,1.5,3.4,3.4-1.5,3.4-3.4,3.4h0c-1.9,0-3.4-1.5-3.4-3.4"
       id="path76" />
    <path
       class="st15"
       d="M150.2,277.7h18.5v-2.2c-1.9,0-3.5-1.4-3.5-3.3s1.4-3.5,3.3-3.5h.2v-2.2h-18.5v11.2ZM152.4,272.1c0-1.9,1.5-3.4,3.4-3.4s3.4,1.5,3.4,3.4-1.5,3.4-3.4,3.4h0c-1.9,0-3.4-1.5-3.4-3.4"
       id="path77" />
    <path
       class="st15"
       d="M155.8,298.1h12.9v-2.2c-1.9,0-3.5-1.4-3.5-3.3s1.4-3.5,3.3-3.5h.2v-2.2h-12.9c-3.1,0-5.5,2.6-5.5,5.7s2.5,5.4,5.5,5.5M152.4,292.5c0-1.9,1.5-3.4,3.4-3.4s3.4,1.5,3.4,3.4-1.5,3.4-3.4,3.4h0c-1.9,0-3.4-1.5-3.4-3.4"
       id="path78" />
    <path
       class="st15"
       d="M155.8,318.5h12.9v-2.2c-1.9,0-3.5-1.4-3.5-3.3s1.4-3.5,3.3-3.5h.2v-2.2h-12.9c-3.1,0-5.5,2.6-5.5,5.7s2.5,5.4,5.5,5.5M152.4,312.9c0-1.9,1.5-3.4,3.4-3.4s3.4,1.5,3.4,3.4-1.5,3.4-3.4,3.4h0c-1.9,0-3.4-1.5-3.4-3.4"
       id="path79" />
    <path
       class="st15"
       d="M155.8,338.9h12.9v-2.2c-1.9,0-3.5-1.4-3.5-3.3s1.4-3.5,3.3-3.5h.2v-2.2h-12.9c-3.1,0-5.5,2.6-5.5,5.7s2.5,5.4,5.5,5.5M152.4,333.3c0-1.9,1.5-3.4,3.4-3.4s3.4,1.5,3.4,3.4-1.5,3.4-3.4,3.4h0c-1.9,0-3.4-1.5-3.4-3.4"
       id="path80" />
    <path
       class="st15"
       d="M155.8,359.3h12.9v-2.2c-1.9,0-3.5-1.4-3.5-3.3s1.4-3.5,3.3-3.5h.2v-2.2h-12.9c-3.1,0-5.5,2.6-5.5,5.7s2.5,5.4,5.5,5.5M152.4,353.7c0-1.9,1.5-3.4,3.4-3.4s3.4,1.5,3.4,3.4-1.5,3.4-3.4,3.4h0c-1.9,0-3.4-1.5-3.4-3.4"
       id="path81" />
    <path
       class="st15"
       d="M150.2,379.6h18.5v-2.2c-1.9,0-3.5-1.4-3.5-3.3s1.4-3.5,3.3-3.5h.2v-2.2h-18.5v11.2ZM152.4,374c0-1.9,1.5-3.4,3.4-3.4s3.4,1.5,3.4,3.4-1.5,3.4-3.4,3.4h0c-1.9,0-3.4-1.5-3.4-3.4"
       id="path82" />
    <path
       class="st15"
       d="M155.8,400h12.9v-2.2c-1.9,0-3.5-1.4-3.5-3.3s1.4-3.5,3.3-3.5h.2v-2.2h-12.9c-3.1,0-5.5,2.6-5.5,5.7s2.5,5.4,5.5,5.5M152.4,394.4c0-1.9,1.5-3.4,3.4-3.4s3.4,1.5,3.4,3.4-1.5,3.4-3.4,3.4h0c-1.9,0-3.4-1.5-3.4-3.4"
       id="path83" />
    <path
       class="st15"
       d="M155.8,420.4h12.9v-2.2c-1.9,0-3.5-1.4-3.5-3.3s1.4-3.5,3.3-3.5h.2v-2.2h-12.9c-3.1,0-5.6,2.5-5.6,5.6s2.5,5.6,5.6,5.6M152.4,414.8c0-1.9,1.5-3.4,3.4-3.4s3.4,1.5,3.4,3.4-1.5,3.4-3.4,3.4h0c-1.9,0-3.4-1.5-3.4-3.4"
       id="path84" />
    <path
       class="st15"
       d="M64,409.2c-3.1,0-5.6,2.5-5.6,5.6v11.1h2.2c0-1.9,1.5-3.4,3.4-3.4s3.4,1.5,3.4,3.4h2.2v-11.1c0-3.1-2.5-5.6-5.6-5.6M67.4,414.8c0,1.9-1.5,3.4-3.4,3.4s-3.4-1.5-3.4-3.4,1.5-3.4,3.4-3.4h0c1.9,0,3.4,1.5,3.4,3.4"
       id="path85" />
    <path
       class="st15"
       d="M78.8,409.4v16.5h2.2c0-1.9,1.4-3.5,3.3-3.5s3.5,1.4,3.5,3.3v.2h2.2v-16.5h-11.2ZM87.8,414.8c0,1.9-1.5,3.4-3.4,3.4s-3.4-1.5-3.4-3.4,1.5-3.4,3.4-3.4h0c1.9,0,3.4,1.5,3.4,3.4"
       id="path86" />
    <path
       class="st15"
       d="M104.8,409.2c-3.1,0-5.6,2.5-5.6,5.6v11.1h2.2c0-1.9,1.4-3.5,3.3-3.5s3.5,1.4,3.5,3.3v.2h2.2v-11.1c0-3.1-2.5-5.6-5.6-5.6M108.2,414.8c0,1.9-1.5,3.4-3.4,3.4s-3.4-1.5-3.4-3.4,1.5-3.4,3.4-3.4h0c1.9,0,3.4,1.5,3.4,3.4"
       id="path87" />
    <path
       class="st15"
       d="M155.8,33.1h12.9v-2.2c-1.9,0-3.5-1.4-3.5-3.3s1.4-3.5,3.3-3.5h.2v-2.2h-12.9c-3.1,0-5.5,2.6-5.5,5.7s2.5,5.4,5.5,5.5M152.4,27.5c0-1.9,1.5-3.4,3.4-3.4s3.4,1.5,3.4,3.4-1.5,3.4-3.4,3.4-3.4-1.5-3.4-3.4h0"
       id="path88" />
    <path
       class="st15"
       d="M18.6,27.5c0-3.1-2.5-5.6-5.6-5.6H0v2.2h0c1.9,0,3.4,1.5,3.4,3.4h0c0,1.9-1.5,3.4-3.4,3.4h0v2.2h12.9c3.1,0,5.6-2.5,5.6-5.6M13,30.9c-1.9,0-3.4-1.5-3.4-3.4s1.5-3.4,3.4-3.4,3.4,1.5,3.4,3.4-1.5,3.4-3.4,3.4"
       id="path89" />
    <path
       class="st4"
       d="M38.6,422.2c-7.1,0-12.8-5.7-12.8-12.8s5.7-12.8,12.8-12.8,12.8,5.7,12.8,12.8h0c0,7.1-5.7,12.8-12.8,12.8M38.6,402.2c-3.9,0-7.1,3.2-7.1,7.1s3.2,7.1,7.1,7.1,7.1-3.2,7.1-7.1-3.2-7.1-7.1-7.1"
       id="path90" />
    <path
       class="st4"
       d="M130.2,422.2c-7.1,0-12.8-5.7-12.8-12.8s5.7-12.8,12.8-12.8,12.8,5.7,12.8,12.8h0c0,7.1-5.7,12.8-12.8,12.8M130.2,402.2c-3.9,0-7.1,3.2-7.1,7.1s3.2,7.1,7.1,7.1,7.1-3.2,7.1-7.1-3.2-7.1-7.1-7.1"
       id="path91" />
    <path
       class="st4"
       d="M38.6,45.8c-7.1,0-12.8-5.7-12.8-12.8s5.7-12.8,12.8-12.8,12.8,5.7,12.8,12.8h0c0,7.1-5.7,12.8-12.8,12.8M38.6,25.8c-3.9,0-7.1,3.2-7.1,7.1s3.2,7.1,7.1,7.1,7.1-3.2,7.1-7.1-3.2-7.1-7.1-7.1"
       id="path92" />
    <path
       class="st4"
       d="M130.2,45.8c-7.1,0-12.8-5.7-12.8-12.8s5.7-12.8,12.8-12.8,12.8,5.7,12.8,12.8h0c0,7.1-5.7,12.8-12.8,12.8M130.2,25.8c-3.9,0-7.1,3.2-7.1,7.1s3.2,7.1,7.1,7.1,7.1-3.2,7.1-7.1-3.2-7.1-7.1-7.1"
       id="path93" />
    <rect
       class="st1"
       x="56.1"
       y="192.9"
       width="56.6"
       height="56.5"
       id="rect93" />
    <path
       class="st12"
       d="M110.9,48.6h-53c-.9,0-1.6-.7-1.6-1.6V7.5c0-.9.7-1.6,1.6-1.6h53c.9,0,1.6.7,1.6,1.6v39.5c0,.9-.7,1.6-1.6,1.6"
       id="path94" />
    <path
       class="st3"
       d="M60.3.4c-.7,0-1.3.5-1.5,1.1l-.9,2.9-1.6,1.6v40.9c0,.9.7,1.6,1.6,1.6h9.8c.4,0,.8-.4.8-.8v-2.3c0-.6-.3-1.1-.8-1.4l-5.5-3c-.5-.3-.8-.8-.8-1.4v-2.3h3.6v-2.7h5.5v2.7h3.2v5.6c0,.9.7,1.6,1.6,1.6h2.6v-2.9h13v2.9h2.6c.9,0,1.6-.7,1.6-1.6v-5.6h3.2v-2.7h5.5v2.7h3.6v2.3c0,.6-.3,1.1-.9,1.4l-5.4,3c-.5.3-.8.8-.9,1.4v2.3c0,.4.4.8.8.8h9.8c.9,0,1.6-.7,1.6-1.6h0V6.1l-1.6-1.6-.9-2.9c0-.7-.7-1.2-1.4-1.2h-48.2,0Z"
       id="path95" />
    <path
       class="st3"
       d="M58,8.6c-.7-1-1.4-1.9-2.1-3-.3-.5-.6-1.1-.9-1.7-.2-.6-.4-1.2-.5-1.8,0-.5.2-1,.7-1.2.5,0,1,.2,1.2.7h0c.3,1,.8,1.9,1.5,2.7.7.9,1.4,1.7,2.2,2.5h0c.5.6.5,1.5,0,2-.6.5-1.5.5-2,0h0"
       id="path96" />
    <path
       class="st3"
       d="M108.6,6.7c.8-.8,1.5-1.6,2.2-2.4.7-.8,1.2-1.7,1.5-2.7h0c.2-.5.7-.8,1.2-.6.5.2.7.6.6,1.1,0,.6-.3,1.2-.5,1.8s-.5,1.2-.9,1.7c-.6,1-1.3,2-2.1,3-.5.6-1.4.8-2,.3s-.8-1.4-.3-2h0l.2-.2h.1Z"
       id="path97" />
    <path
       class="st3"
       d="M75.9,300.5h-20.9c-.9,0-1.6-.7-1.6-1.6h0v-12.9c0-.9.7-1.6,1.6-1.6h20.9c.9,0,1.6.7,1.6,1.6h0v12.9c0,.9-.7,1.6-1.6,1.6h0"
       id="path98" />
    <rect
       class="st11"
       x="46"
       y="154.2"
       width="16.1"
       height="24.1"
       id="rect98" />
    <rect
       class="st11"
       x="97.1"
       y="90.6"
       width="20.1"
       height="20.1"
       id="rect99" />
    <rect
       class="st11"
       x="126.1"
       y="55.8"
       width="12.1"
       height="20.1"
       id="rect100" />
    <path
       class="st6"
       d="M45.6,93.4h20.9c.9,0,1.6.7,1.6,1.6v28.9c0,.9-.7,1.6-1.6,1.6h-20.9c-.9,0-1.6-.7-1.6-1.6h0v-28.9c0-.9.7-1.6,1.6-1.6"
       id="path100" />
    <path
       class="st9"
       d="M56.1,95.4h0c5.5,0,10,4.5,10,10v8c0,5.5-4.7,10-10.2,9.9-5.4,0-9.8-4.5-9.9-9.9v-8c0-5.5,4.5-10,10-10"
       id="path101" />
    <path
       class="st9"
       d="M44,95v3c0,.9.7,1.6,1.6,1.6s.8-.2,1.1-.5l3-3c.6-.6.6-1.6,0-2.3-.3-.3-.7-.5-1.1-.5h-3c-.9,0-1.6.7-1.6,1.6"
       id="path102" />
    <path
       class="st9"
       d="M66.5,93.4h-3c-.9,0-1.6.7-1.6,1.6s.2.8.5,1.1l3,3c.6.6,1.6.6,2.3,0,.3-.3.5-.7.5-1.1v-3c0-.9-.7-1.6-1.6-1.6"
       id="path103" />
    <path
       class="st9"
       d="M68.1,123.8v-3c0-.9-.7-1.6-1.6-1.6s-.8.2-1.1.5l-3,3c-.6.6-.6,1.6,0,2.3.3.3.7.5,1.1.5h3c.9,0,1.6-.7,1.6-1.6"
       id="path104" />
    <path
       class="st9"
       d="M45.6,125.4h3c.9,0,1.6-.7,1.6-1.6s-.2-.8-.5-1.1l-3-3c-.6-.6-1.6-.6-2.3,0-.3.3-.5.7-.5,1.1v3c0,.9.7,1.6,1.6,1.6h0"
       id="path105" />
    <path
       class="st11"
       d="M124.1,109.1v-16.9c0-.9.7-1.6,1.6-1.6h12.9c.9,0,1.6.7,1.6,1.6h0v16.9c0,.9-.7,1.6-1.6,1.6h-12.9c-.9,0-1.6-.7-1.6-1.6h0"
       id="path106" />
    <rect
       class="st3"
       x="99.1"
       y="114.2"
       width="16.1"
       height="12.1"
       id="rect106" />
    <rect
       class="st3"
       x="115.2"
       y="136.2"
       width="8"
       height="16.1"
       id="rect107" />
    <rect
       class="st11"
       x="115.2"
       y="139"
       width="8"
       height="10.4"
       id="rect108" />
    <rect
       class="st3"
       x="99.1"
       y="74.8"
       width="16.1"
       height="12.1"
       id="rect109" />
    <rect
       class="st2"
       x="101.1"
       y="74.8"
       width="12.1"
       height="12.1"
       id="rect110" />
    <rect
       class="st2"
       x="101.1"
       y="114.2"
       width="12.1"
       height="12.1"
       id="rect111" />
    <path
       class="st15"
       d="M132.9,374c1.9,0,3.4,1.5,3.4,3.4s-1.5,3.4-3.4,3.4-3.4-1.5-3.4-3.4h0c0-1.9,1.5-3.4,3.4-3.4"
       id="path111" />
    <path
       class="st15"
       d="M38.1,71.2c1.9,0,3.4,1.5,3.4,3.4s-1.5,3.4-3.4,3.4-3.4-1.5-3.4-3.4,1.5-3.4,3.4-3.4h0"
       id="path112" />
    <rect
       class="st3"
       x="57.9"
       y="72.9"
       width="8"
       height="4"
       id="rect112" />
    <rect
       class="st11"
       x="58.9"
       y="72.9"
       width="6"
       height="4"
       id="rect113" />
    <rect
       class="st3"
       x="133.4"
       y="176.3"
       width="4"
       height="8"
       id="rect114" />
    <rect
       class="st11"
       x="133.4"
       y="177.3"
       width="4"
       height="6"
       id="rect115" />
    <rect
       class="st3"
       x="133.4"
       y="176.3"
       width="4"
       height="8"
       id="rect116" />
    <rect
       class="st11"
       x="130.2"
       y="157.6"
       width="12.1"
       height="4"
       id="rect117" />
    <rect
       class="st11"
       x="133.4"
       y="177.3"
       width="4"
       height="6"
       id="rect118" />
    <rect
       class="st3"
       x="125.7"
       y="176.3"
       width="4"
       height="8"
       id="rect119" />
    <rect
       class="st11"
       x="125.7"
       y="177.3"
       width="4"
       height="6"
       id="rect120" />
    <rect
       class="st3"
       x="118.1"
       y="176.3"
       width="4"
       height="8"
       id="rect121" />
    <rect
       class="st15"
       x="118.1"
       y="177.3"
       width="4"
       height="6"
       id="rect122" />
    <rect
       class="st3"
       x="93.9"
       y="177.3"
       width="3"
       height="6"
       id="rect123" />
    <rect
       class="st11"
       x="93.9"
       y="178.3"
       width="3"
       height="4"
       id="rect124" />
    <rect
       class="st3"
       x="88.2"
       y="177.3"
       width="3"
       height="6"
       id="rect125" />
    <rect
       class="st11"
       x="88.2"
       y="178.3"
       width="3"
       height="4"
       id="rect126" />
    <rect
       class="st3"
       x="82.4"
       y="177.3"
       width="3"
       height="6"
       id="rect127" />
    <rect
       class="st15"
       x="82.4"
       y="178.3"
       width="3"
       height="4"
       id="rect128" />
    <rect
       class="st3"
       x="130.6"
       y="138.9"
       width="3"
       height="6"
       id="rect129" />
    <rect
       class="st15"
       x="130.6"
       y="139.9"
       width="3"
       height="4"
       id="rect130" />
    <rect
       class="st3"
       x="76.7"
       y="177.3"
       width="3"
       height="6"
       id="rect131" />
    <rect
       class="st15"
       x="76.7"
       y="178.3"
       width="3"
       height="4"
       id="rect132" />
    <rect
       class="st3"
       x="45.9"
       y="144.2"
       width="3"
       height="6"
       id="rect133" />
    <rect
       class="st15"
       x="45.9"
       y="145.2"
       width="3"
       height="4"
       id="rect134" />
    <rect
       class="st3"
       x="88.3"
       y="260"
       width="3"
       height="6"
       id="rect135" />
    <rect
       class="st15"
       x="88.3"
       y="261"
       width="3"
       height="4"
       id="rect136" />
    <rect
       class="st3"
       x="82.5"
       y="260"
       width="3"
       height="6"
       id="rect137" />
    <rect
       class="st15"
       x="82.5"
       y="261"
       width="3"
       height="4"
       id="rect138" />
    <rect
       class="st3"
       x="82.5"
       y="284.4"
       width="3"
       height="6"
       id="rect139" />
    <rect
       class="st15"
       x="82.5"
       y="285.4"
       width="3"
       height="4"
       id="rect140" />
    <rect
       class="st3"
       x="44.9"
       y="294.5"
       width="3"
       height="6"
       id="rect141" />
    <rect
       class="st15"
       x="44.9"
       y="295.5"
       width="3"
       height="4"
       id="rect142" />
    <rect
       class="st3"
       x="107.1"
       y="176.3"
       width="4"
       height="8"
       id="rect143" />
    <rect
       class="st15"
       x="107.1"
       y="177.3"
       width="4"
       height="6"
       id="rect144" />
    <rect
       class="st3"
       x="99.5"
       y="176.3"
       width="4"
       height="8"
       id="rect145" />
    <rect
       class="st15"
       x="99.5"
       y="177.3"
       width="4"
       height="6"
       id="rect146" />
    <rect
       class="st3"
       x="57.9"
       y="65.9"
       width="8"
       height="4"
       id="rect147" />
    <rect
       class="st11"
       x="58.9"
       y="65.9"
       width="6"
       height="4"
       id="rect148" />
    <rect
       class="st3"
       x="103.1"
       y="65.9"
       width="8"
       height="4"
       id="rect149" />
    <rect
       class="st11"
       x="104.1"
       y="65.9"
       width="6"
       height="4"
       id="rect150" />
    <rect
       class="st3"
       x="38.1"
       y="154.2"
       width="4"
       height="8"
       id="rect151" />
    <rect
       class="st11"
       x="38.1"
       y="155.2"
       width="4"
       height="6"
       id="rect152" />
    <rect
       class="st3"
       x="38.1"
       y="170.2"
       width="4"
       height="8"
       id="rect153" />
    <rect
       class="st11"
       x="38.1"
       y="171.2"
       width="4"
       height="6"
       id="rect154" />
    <rect
       class="st3"
       x="137.3"
       y="136.2"
       width="4"
       height="8"
       id="rect155" />
    <rect
       class="st11"
       x="137.3"
       y="137.2"
       width="4"
       height="6"
       id="rect156" />
    <rect
       class="st3"
       x="117.3"
       y="196.1"
       width="6"
       height="3"
       id="rect157" />
    <rect
       class="st15"
       x="118.3"
       y="196.1"
       width="4"
       height="3"
       id="rect158" />
    <rect
       class="st3"
       x="44.9"
       y="199.2"
       width="6"
       height="3"
       id="rect159" />
    <rect
       class="st15"
       x="45.9"
       y="199.2"
       width="4"
       height="3"
       id="rect160" />
    <rect
       class="st3"
       x="44.9"
       y="229"
       width="6"
       height="3"
       id="rect161" />
    <rect
       class="st15"
       x="45.9"
       y="229"
       width="4"
       height="3"
       id="rect162" />
    <rect
       class="st3"
       x="120.4"
       y="230.1"
       width="3"
       height="6"
       transform="translate(-129.1 154.4) rotate(-45)"
       id="rect163" />
    <rect
       class="st15"
       x="120.1"
       y="231.4"
       width="3"
       height="4"
       transform="translate(-129.4 154.3) rotate(-45)"
       id="rect164" />
    <rect
       class="st3"
       x="128.7"
       y="222.5"
       width="8"
       height="4"
       id="rect165" />
    <rect
       class="st11"
       x="129.7"
       y="222.5"
       width="6"
       height="4"
       id="rect166" />
    <rect
       class="st3"
       x="128.7"
       y="222.5"
       width="8"
       height="4"
       id="rect167" />
    <rect
       class="st11"
       x="129.7"
       y="222.5"
       width="6"
       height="4"
       id="rect168" />
    <rect
       class="st3"
       x="128.7"
       y="214.9"
       width="8"
       height="4"
       id="rect169" />
    <rect
       class="st11"
       x="129.7"
       y="214.9"
       width="6"
       height="4"
       id="rect170" />
    <rect
       class="st3"
       x="41.9"
       y="191.5"
       width="8"
       height="4"
       id="rect171" />
    <rect
       class="st15"
       x="42.9"
       y="191.5"
       width="6"
       height="4"
       id="rect172" />
    <rect
       class="st3"
       x="70.7"
       y="274"
       width="8"
       height="4"
       id="rect173" />
    <rect
       class="st11"
       x="71.7"
       y="274"
       width="6"
       height="4"
       id="rect174" />
    <rect
       class="st3"
       x="70.7"
       y="274"
       width="8"
       height="4"
       id="rect175" />
    <rect
       class="st11"
       x="71.7"
       y="274"
       width="6"
       height="4"
       id="rect176" />
    <path
       class="st9"
       d="M108.9,345.4l-.6-.9c.4-4.8-2.3-9.4-6.7-11.4,1-.3,2.2-.6,2.5-1.9,1.2,0,2.2-1,2.5-2.2.4-.3,2.2-1.3,1.9-2.8.9-.5,1.4-1.6,1.2-2.6,1-1,1.3-1.9.9-2.8.9-.8,1-2.1.2-3h0c.9-1.6,0-3.4-2.3-3.1-.9-1-2.2-1.4-3.5-1.2-.6-.7-1.5-.9-2.3-.7-.9-.7-2.2-.9-3.2-.3-1.3-1-2.2,0-3.2,0-1.6-.6-2,0-2.8.4-1.8-.4-2.3.4-3.2,1.3h-1c-2.2,1.5-3.7,3.8-4.5,6.3-.6-2.6-2.3-4.9-4.5-6.3h-1c-.9-.9-1.3-1.6-3.2-1.3-.7-.3-1.2-1-2.8-.4-.7-.3-1.3-.5-2-.6-.5,0-.9.2-1.3.4-1-.6-2.3-.5-3.2.3-1.5,0-2,0-2.3.7-.3,0-2.5-.3-3.5,1.2-2.5-.3-3.2,1.5-2.3,3.1-.8.9-.7,2.3,0,3.1-.4.9,0,1.8.9,2.8-.2,1,.3,2.1,1.2,2.6,0,1.6,1.5,2.5,1.9,2.8,0,.9.6,1.8,2.5,2.2.3,1.3,1.5,1.6,2.5,1.9-4.4,2-7.1,6.6-6.7,11.4l-.6.9c-5.2,3.4-6.6,10.4-3.1,15.6.3.5.7,1,1.1,1.4.4,1.7.9,3.5,1.6,5.1.7,4.5,3.7,8.3,7.9,9.9,2.3,1.8,4.8,3.2,7.5,4.3,2.4,2.6,5.7,4.1,9.2,4.1h0c3.5,0,6.8-1.5,9.2-4.1,2.7-1,5.2-2.4,7.5-4.3,4.3-1.6,7.3-5.4,7.9-9.9.7-1.7,1.2-3.4,1.6-5.1,4.4-4,4.6-10.8.6-15.2-.6-.7-1.3-1.3-2.1-1.7M105.9,344.2c0,2.6-14.2-9.4-11.8-9.8,6.6-1,12,2.8,11.8,9.8M99.6,357.6c-4,2.2-9,.8-11.3-3.2-2.8-3.6-2.2-8.7,1.4-11.5h0c4-2.2,9-.8,11.3,3.2,2.8,3.5,2.2,8.7-1.3,11.5h0M89.9,316.2c0,.6.3,1,.4,1,.7-.9,1.5-1.7,2.3-2.5,0,.4-.3,1,.3,1.3.6-.7,1.4-1.4,2.2-1.9-.4.7,0,1,0,1.3.8-.8,1.7-1.4,2.8-1.8-.4.4-.9.9-.3,1.5,1-.6,2.2-1.1,3.4-1.3-.4.4-1.3.9-.7,1.3,1.1-.3,2.1-.6,3.2-.7-.6.4-1,.9-.6,1.3,1.2-.4,2.5-.6,3.8-.4l-.9.9c1.1.2,2.2.2,3.4,0-.6.8-1,1.7-1.3,2.6h1.5c-.7,1.5-1.9,1.8-2,2.3.5.3,1.1.3,1.6,0-.4,1-1.5,1.6-2.3,2.5,0,0,.6.3,1.5,0-.8.8-1.7,1.5-2.6,2.2.5,0,1,.2,1.5.3-1,.8-2.2,1.5-3.4,2,.4.3,1,.4,1.5.3-1.1.7-2.3,1.2-3.5,1.5.3.4.4.4,1,.6-1.3.7-3.4.4-4,.7,0,.4.4.6,1,.9-2.2,0-8.2,0-9.4-4.7,3.9-3.7,8.5-6.8,13.5-8.9-5.3,1.6-10.3,4.3-14.6,7.8-5.1-2.3-1.8-8,.7-10.4M85,332.7h0c3.5,0,7.8,2.5,7.8,5s-3.1,4-7.8,3.8c-4.7,0-7.8-2.2-7.8-4.3s3.8-4.7,7.8-4.5M67.3,330.8c.6,0,.7,0,1-.6-1.2-.3-2.4-.8-3.5-1.5.5,0,1,0,1.5-.3-1.2-.5-2.3-1.2-3.4-2,.6,0,1.3,0,1.5-.3-1-.6-1.9-1.3-2.6-2.2h1.5c-.9-.8-1.6-1.6-2.3-2.5.5.2,1.1.2,1.6,0-.3-.6-1.5-1-2-2.3h1.5c-.3-.9-.7-1.8-1.3-2.6h3.4l-.9-.9c1.3-.2,2.6,0,3.8.4.4-.3,0-.7-.6-1.3,1.1.2,2.2.4,3.2.7.4-.4-.3-.9-.7-1.3,1.2.2,2.4.6,3.4,1.3.6-.6,0-1-.3-1.5,1,.4,2,1,2.8,1.8.3-.3.6-.6,0-1.3.9.4,1.6,1.1,2.2,1.9.6-.4.3-.9.3-1.3.9.7,1.7,1.6,2.3,2.5.2-.3.4-.7.4-1,2.3,2.3,5.7,8,.9,10.2-4.4-3.4-9.3-6.1-14.6-7.7,4.9,2.2,9.5,5.2,13.5,8.9-1.2,4.5-7.2,4.8-9.4,4.7.5,0,.8-.4,1-.9-1.4,0-2.8,0-4.1-.6M75.9,334.3c2.5.4-11.6,12.4-11.8,9.8,0-7,5.3-10.8,11.8-9.8M61.1,361.1c-3.6-3.4-3.7-9.1-.3-12.6.6-.6,1.3-1.1,2-1.6,3.8-.9,1.3,15.7-1.8,14.2M74.2,375.2c-1.9,1.2-6.6.7-9.9-4-2.2-3.9-1.9-7.9-.4-9.1,2.3-1.5,6,.4,8.8,3.7,2.5,2.8,3.7,7.9,1.6,9.4M85,383.2c-4.3,0-8.3-3.4-8.3-4.7s5.1-3.2,8.5-3.2,8,1,8,2.8-4.1,5.1-8.2,5.1M93.5,365.3c-.2,4.5-4,7.9-8.5,7.8-4.5.2-8.3-3.2-8.5-7.7h0c.2-4.6,4-8.1,8.5-7.9,4.5,0,8.3,3.4,8.5,7.9M105.3,371.5c-3.7,5-8.5,5.1-10.4,3.8-1.9-1.8-.4-7.3,2.2-10.4,3.1-3.4,6.3-5.6,8.5-3.8,2,3.2,1.9,7.3-.3,10.4M108.5,360.9c-3.1,1.3-5.6-15.1-1.8-14.2,4.3,2.4,5.8,7.8,3.4,12-.4.8-1,1.5-1.7,2.2M70.8,358c-3.7-2.7-4.6-7.8-2-11.6,2-4,6.9-5.7,11-3.7h0c3.7,2.7,4.6,7.8,2,11.5-2,4-6.9,5.7-10.9,3.7h0"
       id="path176" />
    <path
       class="st14"
       d="M62.6,236.6h-.8v1.8h-.6v-4.4h1.2c.4,0,.7,0,1,.3.4.5.4,1.2.2,1.7,0,.2-.3.4-.5.5l.9,1.9h-.6s-.8-1.8-.8-1.8ZM61.8,236.1h.7c.2,0,.4,0,.6-.2,0-.2.2-.4.2-.6,0-.6-.3-.9-.8-.9h-.7v1.7Z"
       id="path177" />
    <path
       class="st14"
       d="M65.7,236.6v1.7h-.6v-4.4h1.4c.4,0,.7,0,1,.4.5.6.5,1.4,0,2-.3.2-.6.4-.9.4h-.9ZM65.7,236.2h.9c.2,0,.4,0,.6-.2,0-.2.2-.4.2-.6s0-.5-.2-.6c0-.2-.4-.3-.6-.2h-.9v1.7h0Z"
       id="path178" />
    <path
       class="st14"
       d="M71.6,238.4h-2.5v-.4l1.3-1.7c.2-.2.3-.4.4-.6v-.5c0-.2,0-.4-.2-.6,0,0-.3-.2-.4-.2-.2,0-.4,0-.5.2s-.2.4-.2.7h-.5c0-.4,0-.7.3-1,.2-.3.6-.4.9-.4s.6,0,.8.3c.2.2.3.5.3.9,0,.6-.3,1.1-.7,1.6l-1,1.3h1.8v.5h.2,0Z"
       id="path179" />
    <rect
       class="st14"
       x="72.6"
       y="236.3"
       width="1.3"
       height=".5"
       id="rect179" />
    <path
       class="st14"
       d="M77.3,235.1v.6c0,.2-.2.3-.4.4.2,0,.4.2.5.4.3.5.2,1.1-.2,1.6-.5.5-1.2.5-1.7,0-.2-.3-.3-.6-.3-.9s0-.5.2-.7c0-.2.3-.3.5-.4-.2,0-.3-.2-.4-.4v-.6c0-.3,0-.6.3-.9.4-.4,1.2-.4,1.6,0,.2.2.3.6.3.9M76.8,237.2c0-.2,0-.4-.2-.6s-.3-.2-.5-.2-.4,0-.5.2-.2.4-.2.6,0,.4.2.6.3.2.5.2.4,0,.5-.2.2-.4.2-.6M76.8,235.1c0-.2,0-.4-.2-.5-.2-.2-.5-.3-.7,0h0c0,.3-.2.5-.2.7s0,.4.2.5c0,0,.2.2.4.2s.3,0,.4-.2.2-.4.2-.5"
       id="path180" />
    <path
       class="st14"
       d="M81.1,236.5c0,.5,0,1-.3,1.5s-1,.6-1.5.3l-.3-.3c-.2-.4-.3-.9-.3-1.4v-.8c0-.5,0-1,.3-1.5s1-.6,1.5-.3l.3.3c.2.4.3.9.3,1.4v.8ZM80.6,235.7c0-.4,0-.7-.2-1,0-.2-.3-.3-.5-.3s-.4,0-.5.3c0,.3-.2.6-.2,1v.9c0,.4,0,.7.2,1.1,0,.2.3.4.5.4s.4,0,.5-.3c0-.3.2-.7.2-1v-1.1h0Z"
       id="path181" />
    <path
       class="st14"
       d="M93.1,238.4h-2.5v-.4l1.3-1.7c.2-.2.3-.4.4-.6v-.5c0-.2,0-.4-.2-.6,0,0-.3-.2-.4-.2-.2,0-.4,0-.5.2s-.2.4-.2.7h-.5c0-.4,0-.7.3-1,.2-.3.6-.4.9-.4s.6,0,.8.3c.2.2.3.5.3.9,0,.6-.3,1.1-.7,1.6l-1,1.3h1.8v.5h.2,0Z"
       id="path182" />
    <path
       class="st14"
       d="M96.7,236.5c0,.5,0,1-.3,1.5s-1,.6-1.5.3l-.3-.3c-.2-.4-.3-.9-.3-1.4v-.8c0-.5,0-1,.3-1.5s1-.6,1.5-.3l.3.3c.2.4.3.9.3,1.4v.8ZM96.1,235.7c0-.4,0-.7-.2-1,0-.2-.3-.3-.5-.3s-.4,0-.5.3c0,.3-.2.7-.2,1v.9c0,.4,0,.7.2,1.1,0,.2.3.4.5.4s.4,0,.5-.3c0-.3.2-.7.2-1v-1.1h0Z"
       id="path183" />
    <polygon
       class="st14"
       points="98.2 238.7 97.8 238.7 99.3 233.9 99.8 233.9 98.2 238.7"
       id="polygon183" />
    <path
       class="st14"
       d="M103.4,238.4h-2.5v-.4l1.3-1.7c.2-.2.3-.4.4-.6v-.5c0-.2,0-.4-.2-.6,0,0-.3-.2-.4-.2-.2,0-.4,0-.5.2s-.2.4-.2.7h-.5c0-.4,0-.7.3-1,.2-.3.6-.4.9-.4s.6,0,.8.3c.2.2.3.5.3.9,0,.6-.3,1.1-.7,1.6l-1,1.3h1.8v.5h.2,0Z"
       id="path184" />
    <polygon
       class="st14"
       points="106.3 238.4 105.7 238.4 105.7 234.6 104.8 235 104.8 234.5 106.2 233.9 106.3 233.9 106.3 238.4"
       id="polygon184" />
    <path
       class="st14"
       d="M61.7,243.7v1.7h-.6v-4.4h1.4c.4,0,.7,0,1,.4.5.6.5,1.4,0,2-.3.2-.6.4-.9.4h-.9ZM61.7,243.2h.9c.2,0,.4,0,.6-.2.3-.4.3-.9,0-1.3,0-.2-.4-.3-.6-.2h-.9v1.7Z"
       id="path185" />
    <path
       class="st14"
       d="M67,241v.5h0c-.3,0-.6,0-.9.4-.2.3-.4.7-.3,1.1.2-.2.5-.4.8-.4s.6,0,.8.4c.2.3.3.7.3,1.1s0,.8-.3,1.1c-.2.3-.5.4-.9.4s-.7-.2-.9-.5c-.2-.4-.4-.8-.3-1.3v-.2c0-.5,0-1,.2-1.5,0-.3.3-.6.6-.8.3-.2.6-.3,1-.3h0ZM66.4,243c-.2,0-.3,0-.4.2,0,0-.2.3-.3.4v.2c0,.3,0,.6.2.9,0,.2.3.3.5.3s.4,0,.5-.3c.2-.5.2-1,0-1.5,0-.2-.3-.3-.5-.3"
       id="path186" />
    <path
       class="st14"
       d="M70.9,244h.5v.5h-.5v1h-.5v-1h-1.7v-.3l1.6-3.1h.6v2.9h0ZM69.3,244h1.1v-2.1l-1.1,2.1Z"
       id="path187" />
    <polygon
       class="st14"
       points="73.4 241 74.5 244.6 75.7 241 76.4 241 76.4 245.4 75.8 245.4 75.8 243.7 75.9 242 74.7 245.4 74.3 245.4 73.2 242 73.2 243.7 73.2 245.4 72.7 245.4 72.7 241 73.4 241"
       id="polygon187" />
    <polygon
       class="st14"
       points="79.5 245.4 78.9 245.4 78.9 241.7 78 242.1 78 241.6 79.4 241 79.5 241 79.5 245.4"
       id="polygon188" />
    <path
       class="st14"
       d="M81.8,243.2l.2-2.2h1.9v.5h-1.5v1.2s.3-.2.5-.2c.3,0,.6,0,.8.4.2.3.3.7.3,1.1s0,.8-.3,1.1c-.4.5-1.2.5-1.7,0h0c-.2-.2-.3-.6-.4-.9h.5c0,.2,0,.4.2.6s.3.2.5.2.4,0,.5-.3.2-.5.2-.7c0-.3,0-.5-.2-.7,0-.2-.3-.3-.5-.3h-1v.2h0Z"
       id="path188" />
    <path
       class="st14"
       d="M85.3,245.2v-.2h.6v.4h-.3c-.2,0-.3,0-.3-.3h0"
       id="path189" />
    <path
       class="st14"
       d="M89.9,243.6c0,.5,0,1-.3,1.5s-1,.6-1.5.3l-.3-.3c-.2-.4-.3-.9-.3-1.4v-.8c0-.5,0-1,.3-1.5s1-.6,1.5-.3l.3.3c.2.4.3.9.3,1.4v.8ZM89.4,242.8c0-.4,0-.7-.2-1,0-.2-.3-.3-.5-.3s-.4,0-.5.3c0,.3-.2.6-.2,1v.9c0,.4,0,.7.2,1.1,0,.2.3.4.5.4s.4,0,.5-.3c0-.3.2-.7.2-1v-1.1h0Z"
       id="path190" />
    <path
       class="st14"
       d="M93.6,243.6c0,.5,0,1-.3,1.5s-1,.6-1.5.3l-.3-.3c-.2-.4-.3-.9-.3-1.4v-.8c0-.5,0-1,.3-1.5s1-.6,1.5-.3l.3.3c.2.4.3.9.3,1.4v.8ZM93.1,242.8c0-.4,0-.7-.2-1,0-.3-.4-.4-.7-.3l-.3.3c0,.3-.2.7-.2,1v.9c0,.4,0,.7.2,1.1,0,.2.3.4.5.4s.4,0,.5-.3c0-.3.2-.7.2-1v-1.1h0Z"
       id="path191" />
    <polygon
       class="st14"
       points="99.6 241.5 98.4 241.5 98.4 245.5 97.9 245.5 97.9 241.5 96.7 241.5 96.7 241 99.6 241 99.6 241.5"
       id="polygon191" />
    <polygon
       class="st14"
       points="103.5 241.5 102.3 241.5 102.3 245.5 101.8 245.5 101.8 241.5 100.6 241.5 100.6 241 103.5 241 103.5 241.5 103.5 241.5"
       id="polygon192" />
    <polygon
       class="st14"
       points="107.4 241.5 106.3 241.5 106.3 245.5 105.7 245.5 105.7 241.5 104.5 241.5 104.5 241 107.4 241 107.4 241.5"
       id="polygon193" />
    <path
       class="st14"
       d="M94.3,215.2l-.2-.4c.2-2-.9-3.8-2.7-4.6.4,0,.9-.2,1-.8.5,0,.9-.4,1-.9.2,0,.9-.5.8-1.1.4-.2.6-.6.5-1.1.4-.4.5-.8.4-1.1.4-.3.4-.8,0-1.2h0c.4-.7,0-1.4-.9-1.2-.4-.4-.9-.6-1.4-.5-.2-.3-.6-.4-.9-.3-.4-.3-.9-.3-1.3,0-.5-.4-.9,0-1.3,0-.7-.2-.8,0-1.1.2-.7-.2-.9.2-1.3.5h-.4c-.9.6-1.5,1.5-1.8,2.6-.3-1.1-.9-2-1.8-2.6h-.4c-.3-.4-.8-.7-1.3-.5-.3,0-.5-.4-1.1-.2-.3,0-.5-.2-.8-.2s-.4,0-.5.2c-.4-.2-.9-.2-1.3,0-.6,0-.8,0-.9.3,0,0-1,0-1.4.5-1,0-1.3.6-.9,1.2-.3.4-.3.9,0,1.2-.2.4,0,.7.4,1.1,0,.4,0,.9.5,1.1,0,.7.6,1,.8,1.1,0,.4.2.7,1,.9,0,.5.6.6,1,.8-1.8.8-2.9,2.7-2.7,4.6l-.2.4c-2.1,1.4-2.7,4.2-1.3,6.3,0,.2.3.4.4.6.2.7.4,1.4.7,2.1.3,1.8,1.5,3.3,3.2,4,.9.7,1.9,1.3,3,1.7,1,1,2.3,1.6,3.7,1.7h0c1.4,0,2.8-.6,3.7-1.7,1.1-.4,2.1-1,3-1.7,1.7-.6,3-2.2,3.2-4,.3-.7.5-1.4.6-2.1,1.8-1.6,1.9-4.4.3-6.2-.3-.3-.5-.5-.9-.7M93.1,214.7c0,1.1-5.7-3.8-4.8-4,2-.5,4.1.7,4.7,2.7v1.2M90.5,220.1c-1.6.9-3.7.3-4.6-1.3-1.1-1.4-.9-3.5.6-4.7h0c1.6-.9,3.7-.3,4.6,1.3,1.1,1.4.9,3.5-.5,4.6h0M86.6,203.3c0,.2,0,.4.2.4.3-.4.6-.7.9-1v.5c.3-.3.6-.6.9-.8-.2.3,0,.4,0,.5.3-.3.7-.6,1.1-.7-.2.2-.4.4,0,.6.4-.3.9-.4,1.4-.5-.2.2-.5.4-.3.5.4,0,.9-.2,1.3-.3-.2.2-.4.4-.2.5.5-.2,1-.2,1.5-.2l-.4.4h1.4c-.2.3-.4.7-.5,1.1h.6c-.3.6-.8.7-.8.9h.7c-.2.4-.6.6-.9,1h.6c-.3.3-.7.6-1.1.9h.6c-.4.3-.9.6-1.4.8.2,0,.4.2.6,0-.4.3-.9.5-1.4.6,0,.2.2.2.4.2-.5.3-1.4.2-1.6.3,0,.2.2.2.4.4-.9,0-3.3,0-3.8-1.9,1.6-1.5,3.4-2.7,5.4-3.6-2.2.7-4.2,1.7-5.9,3.1-2.1-.9-.7-3.3.3-4.2M84.6,210h0c1.4,0,3.1,1,3.1,2s-1.2,1.6-3.1,1.5c-1.9,0-3.1-.9-3.1-1.7s1.5-1.9,3.1-1.8M77.5,209.2c.2,0,.3,0,.4-.2-.5,0-1-.3-1.4-.6h.6c-.5-.2-.9-.5-1.4-.8h.6c-.4-.2-.8-.5-1.1-.9h.6c-.3-.3-.7-.6-.9-1h.7c0-.2-.6-.4-.8-.9h.6c0-.4-.3-.7-.5-1.1h1.4l-.4-.4c.5,0,1.1,0,1.5.2.2,0,0-.3-.2-.5.4,0,.9.2,1.3.3.2-.2,0-.4-.3-.5.5,0,1,.3,1.4.5.2-.2,0-.4,0-.6.4.2.8.4,1.1.7,0,0,.2-.2,0-.5.4.2.7.4.9.8.2-.2,0-.4,0-.5.4.3.7.6.9,1,0,0,.2-.3.2-.4.9.9,2.3,3.3.4,4.1-1.8-1.4-3.8-2.5-5.9-3.1,2,.9,3.8,2.1,5.4,3.6-.5,1.8-2.9,2-3.8,1.9.2,0,.3-.2.4-.4-.6,0-1.1,0-1.7-.2M81,210.7c1,.2-4.7,5-4.8,4,0-2.1,1.5-3.9,3.6-4.1h1.2M75,221.5c-1.4-1.4-1.5-3.7,0-5.1.2-.2.5-.5.8-.6,1.5-.4.5,6.3-.7,5.7M80.2,227.2c-1.6.5-3.2-.2-4-1.6-.9-1.6-.8-3.2-.2-3.7.9-.6,2.4.2,3.6,1.5,1,1.1,1.5,3.2.7,3.8M78.7,220.2c-1.8-.8-2.6-3-1.8-4.8.8-1.8,3-2.6,4.8-1.8s2.6,3,1.8,4.8c0,.2-.2.3-.3.5-.9,1.6-2.9,2.2-4.6,1.3M84.6,230.5c-1.4,0-2.7-.7-3.4-1.9,0-.7,2.1-1.3,3.4-1.3s3.3.4,3.3,1.1-1.7,2.1-3.3,2.1M88.1,223.2c0,1.8-1.6,3.2-3.4,3.1-1.8,0-3.3-1.3-3.4-3.1h0c0-1.9,1.6-3.3,3.4-3.2,1.8,0,3.3,1.4,3.4,3.2M92.9,225.7c-1.5,2-3.4,2.1-4.2,1.5-.8-.7-.2-3,.9-4.2,1.2-1.4,2.6-2.2,3.4-1.5.8,1.3.8,2.9,0,4.2M94.2,221.4c-1.2.5-2.3-6.1-.7-5.7,1.7,1,2.4,3.1,1.4,4.9-.2.3-.4.6-.7.9"
       id="path193" />
    <rect
       class="st5"
       x="32.5"
       y="48.6"
       width="12.1"
       height="8"
       id="rect193" />
    <path
       class="st7"
       d="M36.7,50.8c1.1,0,2,.9,2,2s-.9,2-2,2-2-.9-2-2h0c0-1.1.9-2,2-2h0"
       id="path194" />
  </g>
</svg>
