<?xml version="1.0" encoding="UTF-8" standalone="no"?>
<svg
   id="svg14242"
   version="1.1"
   viewBox="0 0 168.7 425.9"
   xmlns="http://www.w3.org/2000/svg"
   xmlns:svg="http://www.w3.org/2000/svg">
  <!-- Generator: Adobe Illustrator 29.2.1, SVG Export Plug-In . SVG Version: 2.1.0 Build 116)  -->
  <defs
     id="defs1">
    <style
       id="style1">
      .st0 {
        fill: none;
      }

      .st1 {
        fill: #bcbbba;
      }

      .st2 {
        fill: #338661;
      }

      .st3 {
        fill: #323230;
      }

      .st4 {
        fill: #dbddda;
      }

      .st5 {
        fill: #014f29;
      }

      .st6 {
        fill: #e9f5fc;
      }

      .st7 {
        isolation: isolate;
      }

      .st8 {
        fill: #0a6939;
      }

      .st9 {
        fill: #99906c;
      }

      .st10 {
        fill: #57af39;
      }

      .st11 {
        fill: #fff;
      }

      .st12 {
        fill: #2b2d2f;
      }

      .st13 {
        fill: #ebe713;
        fill-opacity: 0;
      }

      .st14 {
        fill: #353b45;
      }

      .st15 {
        fill: #cdcbcb;
      }

      .st16 {
        fill: #349ad6;
      }

      .st17 {
        fill: #958763;
      }

      .st18 {
        fill: #3e3f38;
      }

      .st19 {
        fill: #f8e935;
      }
    </style>
  </defs>
  <g
     id="g1">
    <path
       id="OF_pin1"
style="opacity:0;fill:#ebe713;fill-opacity:1"
       class="st13"
       d="M19.7,47.4c0,3.4-2.9,6.2-6.3,6.2s-6.2-2.8-6.3-6.2,2.7-6.3,6.1-6.4,6.3,2.6,6.5,6" />
    <path
       id="OF_pin2"
style="opacity:0;fill:#ebe713;fill-opacity:1"
       class="st13"
       d="M19.8,88.2c0,3.4-2.9,6.2-6.3,6.2s-6.2-2.8-6.3-6.2c0-3.4,2.7-6.3,6.1-6.4s6.3,2.6,6.5,6" />
    <path
       id="OF_pin3"
style="opacity:0;fill:#ebe713;fill-opacity:1"
       class="st13"
       d="M19.7,108.8c0,3.4-2.9,6.2-6.3,6.2s-6.2-2.8-6.3-6.2,2.7-6.3,6.1-6.4,6.3,2.6,6.5,6" />
    <path
       id="OF_pin4"
style="opacity:0;fill:#ebe713;fill-opacity:1"
       class="st13"
       d="M19.7,129c0,3.4-2.9,6.2-6.3,6.2s-6.2-2.8-6.3-6.2c0-3.4,2.7-6.3,6.1-6.4s6.3,2.6,6.5,6" />
    <path
       id="OF_pin5"
style="opacity:0;fill:#ebe713;fill-opacity:1"
       class="st13"
       d="M19.7,149.5c0,3.4-2.9,6.2-6.3,6.2s-6.2-2.8-6.3-6.2,2.7-6.3,6.1-6.4,6.3,2.6,6.5,6" />
    <path
       id="OF_pin6"
style="opacity:0;fill:#ebe713;fill-opacity:1"
       class="st13"
       d="M19.8,190.4c0,3.4-2.9,6.2-6.3,6.2s-6.2-2.8-6.3-6.2,2.7-6.3,6.1-6.4,6.3,2.6,6.5,6" />
    <path
       id="OF_pin7"
style="opacity:0;fill:#ebe713;fill-opacity:1"
       class="st13"
       d="M19.8,210.9c0,3.4-2.9,6.2-6.3,6.2s-6.2-2.8-6.3-6.2,2.7-6.3,6.1-6.4,6.3,2.6,6.5,6" />
    <path
       id="OF_pin8"
style="opacity:0;fill:#ebe713;fill-opacity:1"
       class="st13"
       d="M19.7,231.3c0,3.4-2.9,6.2-6.3,6.2-3.4,0-6.2-2.8-6.3-6.2s2.7-6.3,6.1-6.4,6.3,2.6,6.5,6" />
    <path
       id="OF_pin26"
style="opacity:0;fill:#ebe713;fill-opacity:1"
       class="st13"
       d="M162.6,210.8c0,3.4-2.9,6.2-6.3,6.2-3.4,0-6.2-2.8-6.3-6.2,0-3.4,2.7-6.3,6.1-6.4,3.4-.1,6.3,2.6,6.5,6" />
    <path
       id="OF_pin27"
style="opacity:0;fill:#ebe713;fill-opacity:1"
       class="st13"
       d="M162.6,190.4c0,3.4-2.9,6.2-6.3,6.2-3.4,0-6.2-2.8-6.3-6.2,0-3.4,2.7-6.3,6.1-6.4,3.4-.1,6.3,2.6,6.5,6" />
    <path
       id="OF_pin28"
style="opacity:0;fill:#ebe713;fill-opacity:1"
       class="st13"
       d="M162.7,149.5c0,3.4-2.9,6.2-6.3,6.2-3.4,0-6.2-2.8-6.3-6.2,0-3.4,2.7-6.3,6.1-6.4,3.4-.1,6.3,2.6,6.5,6" />
    <path
       id="OF_pin9"
style="opacity:0;fill:#ebe713;fill-opacity:1"
       class="st13"
       d="M19.8,251.8c0,3.4-2.9,6.2-6.3,6.2s-6.2-2.8-6.3-6.2c0-3.4,2.7-6.3,6.1-6.4s6.3,2.6,6.5,6" />
    <path
       id="OF_pin10"
style="opacity:0;fill:#ebe713;fill-opacity:1"
       class="st13"
       d="M19.7,292.6c0,3.4-2.9,6.2-6.3,6.2-3.4,0-6.2-2.8-6.3-6.2,0-3.4,2.7-6.3,6.1-6.4s6.3,2.6,6.5,6" />
    <path
       id="OF_pin11"
style="opacity:0;fill:#ebe713;fill-opacity:1"
       class="st13"
       d="M19.7,313.2c0,3.4-2.9,6.2-6.3,6.2-3.4,0-6.2-2.8-6.3-6.2s2.7-6.3,6.1-6.4c3.4-.1,6.3,2.6,6.5,6" />
    <path
       id="OF_pin12"
style="opacity:0;fill:#ebe713;fill-opacity:1"
       class="st13"
       d="M19.8,333.6c0,3.4-2.9,6.2-6.3,6.2-3.4,0-6.2-2.8-6.3-6.2s2.7-6.3,6.1-6.4,6.3,2.6,6.5,6" />
    <path
       id="OF_pin13"
style="opacity:0;fill:#ebe713;fill-opacity:1"
       class="st13"
       d="M19.8,354c0,3.4-2.9,6.2-6.3,6.2s-6.2-2.8-6.3-6.2,2.7-6.3,6.1-6.4,6.3,2.6,6.5,6" />
    <path
       id="OF_pin14"
style="opacity:0;fill:#ebe713;fill-opacity:1"
       class="st13"
       d="M19.7,394.9c0,3.4-2.9,6.2-6.3,6.2-3.4,0-6.2-2.8-6.3-6.2s2.7-6.3,6.1-6.4,6.3,2.6,6.5,6" />
    <path
       id="OF_pin17"
style="opacity:0;fill:#ebe713;fill-opacity:1"
       class="st13"
       d="M162.6,394.9c0,3.4-2.9,6.2-6.3,6.2-3.4,0-6.2-2.8-6.3-6.2,0-3.4,2.7-6.3,6.1-6.4,3.4-.1,6.3,2.6,6.5,6" />
    <path
       id="OF_pin15"
style="opacity:0;fill:#ebe713;fill-opacity:1"
       class="st13"
       d="M19.6,415.3c0,3.4-2.9,6.2-6.3,6.2s-6.2-2.8-6.3-6.2,2.7-6.3,6.1-6.4c3.4-.1,6.3,2.6,6.5,6" />
    <path
       id="OF_pin16"
style="opacity:0;fill:#ebe713;fill-opacity:1"
       class="st13"
       d="M162.6,415.1c0,3.4-2.9,6.2-6.3,6.2-3.4,0-6.2-2.8-6.3-6.2,0-3.4,2.7-6.3,6.1-6.4,3.4-.1,6.3,2.6,6.5,6" />
    <path
       id="OF_pin18"
style="opacity:0;fill:#ebe713;fill-opacity:1"
       class="st13"
       d="M162.6,354c0,3.4-2.9,6.2-6.3,6.2-3.4,0-6.2-2.8-6.3-6.2,0-3.4,2.7-6.3,6.1-6.4,3.4-.1,6.3,2.6,6.5,6" />
    <path
       id="OF_pin19"
style="opacity:0;fill:#ebe713;fill-opacity:1"
       class="st13"
       d="M162.5,333.6c0,3.4-2.9,6.2-6.3,6.2-3.4,0-6.2-2.8-6.3-6.2,0-3.4,2.7-6.3,6.1-6.4,3.4-.1,6.3,2.6,6.5,6" />
    <path
       id="OF_pin20"
style="opacity:0;fill:#ebe713;fill-opacity:1"
       class="st13"
       d="M162.7,313.2c0,3.4-2.9,6.2-6.3,6.2-3.4,0-6.2-2.8-6.3-6.2,0-3.4,2.7-6.3,6.1-6.4,3.4-.1,6.3,2.6,6.5,6" />
    <path
       id="OF_pin21"
style="opacity:0;fill:#ebe713;fill-opacity:1"
       class="st13"
       d="M162.6,292.8c0,3.4-2.9,6.2-6.3,6.2-3.4,0-6.2-2.8-6.3-6.2,0-3.4,2.7-6.3,6.1-6.4,3.4-.1,6.3,2.6,6.5,6" />
    <path
       id="OF_pin22"
style="opacity:0;fill:#ebe713;fill-opacity:1"
       class="st13"
       d="M162.7,251.7c0,3.4-2.9,6.2-6.3,6.2-3.4,0-6.2-2.8-6.3-6.2,0-3.4,2.7-6.3,6.1-6.4,3.4-.1,6.3,2.6,6.5,6" />
    <path
       id="OF_pin0"
style="opacity:0;fill:#ebe713;fill-opacity:1"
       class="st13"
       d="M19.7,27c0,3.4-2.9,6.2-6.3,6.2s-6.2-2.8-6.3-6.2,2.7-6.3,6.1-6.4,6.3,2.6,6.5,6" />
  </g>
  <g
     id="board">
    <g
       id="board1"
       data-name="board">
      <path
         id="path6617"
         class="st8"
         d="M167.2,24v-4.4c0-1.1-.9-2-2-2H3.5c-1.1,0-2,.9-2,2v4.4c1.1.6,1.9,1.7,1.9,3s-.8,2.5-1.9,3v14.4c1.1.6,1.9,1.7,1.9,3s-.8,2.5-1.9,3v14.4c1.1.6,1.9,1.7,1.9,3s-.8,2.5-1.9,3v14.4c1.1.6,1.9,1.7,1.9,3s-.8,2.5-1.9,3v14.4c1.1.6,1.9,1.7,1.9,3s-.8,2.5-1.9,3v14.4c1.1.6,1.9,1.7,1.9,3s-.8,2.5-1.9,3v14.4c1.1.6,1.9,1.7,1.9,3s-.8,2.5-1.9,3v14.4c1.1.6,1.9,1.7,1.9,3s-.8,2.5-1.9,3v14.4c1.1.6,1.9,1.7,1.9,3s-.8,2.5-1.9,3v14.4c1.1.6,1.9,1.7,1.9,3s-.8,2.5-1.9,3v14.4c1.1.6,1.9,1.7,1.9,3s-.8,2.5-1.9,3v14.4c1.1.6,1.9,1.7,1.9,3s-.8,2.5-1.9,3v14.4c1.1.6,1.9,1.7,1.9,3s-.8,2.5-1.9,3v14.4c1.1.6,1.9,1.7,1.9,3s-.8,2.5-1.9,3v14.4c1.1.6,1.9,1.7,1.9,3s-.8,2.5-1.9,3v14.4c1.1.6,1.9,1.7,1.9,3s-.8,2.5-1.9,3v14.4c1.1.6,1.9,1.7,1.9,3s-.8,2.5-1.9,3v14.4c1.1.6,1.9,1.7,1.9,3s-.8,2.5-1.9,3v14.4c1.1.6,1.9,1.7,1.9,3s-.8,2.5-1.9,3v14.4c1.1.6,1.9,1.7,1.9,3s-.8,2.5-1.9,3v4.5c0,1.1.9,2,2,2h161.6c1.1,0,2-.9,2-2v-4.5c-1.1-.6-1.9-1.7-1.9-3s.8-2.5,1.9-3v-14.4c-1.1-.6-1.9-1.7-1.9-3s.8-2.5,1.9-3v-14.4c-1.1-.6-1.9-1.7-1.9-3s.8-2.5,1.9-3v-14.4c-1.1-.6-1.9-1.7-1.9-3s.8-2.5,1.9-3v-14.4c-1.1-.6-1.9-1.7-1.9-3s.8-2.5,1.9-3v-14.4c-1.1-.6-1.9-1.7-1.9-3s.8-2.5,1.9-3v-14.4c-1.1-.6-1.9-1.7-1.9-3s.8-2.5,1.9-3v-14.4c-1.1-.6-1.9-1.7-1.9-3s.8-2.5,1.9-3v-14.4c-1.1-.6-1.9-1.7-1.9-3s.8-2.5,1.9-3v-14.4c-1.1-.6-1.9-1.7-1.9-3s.8-2.5,1.9-3v-14.4c-1.1-.6-1.9-1.7-1.9-3s.8-2.5,1.9-3v-14.4c-1.1-.6-1.9-1.7-1.9-3s.8-2.5,1.9-3v-14.4c-1.1-.6-1.9-1.7-1.9-3s.8-2.5,1.9-3v-14.4c-1.1-.6-1.9-1.7-1.9-3s.8-2.5,1.9-3v-14.4c-1.1-.6-1.9-1.7-1.9-3s.8-2.5,1.9-3v-14.4c-1.1-.6-1.9-1.7-1.9-3s.8-2.5,1.9-3v-14.4c-1.1-.6-1.9-1.7-1.9-3s.8-2.5,1.9-3v-14.4c-1.1-.6-1.9-1.7-1.9-3s.8-2.5,1.9-3v-14.4c-1.1-.6-1.9-1.7-1.9-3s.8-2.5,1.9-3v-14.4c-1.1-.6-1.9-1.7-1.9-3s.8-2.5,1.9-3ZM12.9,418.2c-1.9,0-3.4-1.5-3.4-3.4s1.5-3.4,3.4-3.4,3.4,1.5,3.4,3.4-1.5,3.4-3.4,3.4ZM12.9,397.8c-1.9,0-3.4-1.5-3.4-3.4s1.5-3.4,3.4-3.4,3.4,1.5,3.4,3.4-1.5,3.4-3.4,3.4ZM12.9,377.4c-1.9,0-3.4-1.5-3.4-3.4s1.5-3.4,3.4-3.4,3.4,1.5,3.4,3.4-1.5,3.4-3.4,3.4ZM12.9,357c-1.9,0-3.4-1.5-3.4-3.4s1.5-3.4,3.4-3.4,3.4,1.5,3.4,3.4-1.5,3.4-3.4,3.4ZM12.9,336.6c-1.9,0-3.4-1.5-3.4-3.4s1.5-3.4,3.4-3.4,3.4,1.5,3.4,3.4-1.5,3.4-3.4,3.4ZM12.9,316.2c-1.9,0-3.4-1.5-3.4-3.4s1.5-3.4,3.4-3.4,3.4,1.5,3.4,3.4-1.5,3.4-3.4,3.4ZM12.9,295.7c-1.9,0-3.4-1.5-3.4-3.4s1.5-3.4,3.4-3.4,3.4,1.5,3.4,3.4-1.5,3.4-3.4,3.4ZM12.9,275.3c-1.9,0-3.4-1.5-3.4-3.4s1.5-3.4,3.4-3.4,3.4,1.5,3.4,3.4-1.5,3.4-3.4,3.4ZM12.9,254.9c-1.9,0-3.4-1.5-3.4-3.4s1.5-3.4,3.4-3.4,3.4,1.5,3.4,3.4-1.5,3.4-3.4,3.4ZM12.9,234.5c-1.9,0-3.4-1.5-3.4-3.4s1.5-3.4,3.4-3.4,3.4,1.5,3.4,3.4-1.5,3.4-3.4,3.4ZM12.9,214.1c-1.9,0-3.4-1.5-3.4-3.4s1.5-3.4,3.4-3.4,3.4,1.5,3.4,3.4-1.5,3.4-3.4,3.4ZM12.9,193.7c-1.9,0-3.4-1.5-3.4-3.4s1.5-3.4,3.4-3.4,3.4,1.5,3.4,3.4-1.5,3.4-3.4,3.4ZM12.9,173.3c-1.9,0-3.4-1.5-3.4-3.4s1.5-3.4,3.4-3.4,3.4,1.5,3.4,3.4-1.5,3.4-3.4,3.4ZM12.9,152.9c-1.9,0-3.4-1.5-3.4-3.4s1.5-3.4,3.4-3.4,3.4,1.5,3.4,3.4-1.5,3.4-3.4,3.4ZM12.9,132.5c-1.9,0-3.4-1.5-3.4-3.4s1.5-3.4,3.4-3.4,3.4,1.5,3.4,3.4-1.5,3.4-3.4,3.4ZM12.9,112.1c-1.9,0-3.4-1.5-3.4-3.4s1.5-3.4,3.4-3.4,3.4,1.5,3.4,3.4-1.5,3.4-3.4,3.4ZM12.9,91.7c-1.9,0-3.4-1.5-3.4-3.4s1.5-3.4,3.4-3.4,3.4,1.5,3.4,3.4-1.5,3.4-3.4,3.4ZM12.9,71.3c-1.9,0-3.4-1.5-3.4-3.4s1.5-3.4,3.4-3.4,3.4,1.5,3.4,3.4-1.5,3.4-3.4,3.4ZM12.9,50.9c-1.9,0-3.4-1.5-3.4-3.4s1.5-3.4,3.4-3.4,3.4,1.5,3.4,3.4-1.5,3.4-3.4,3.4ZM12.9,30.4c-1.9,0-3.4-1.5-3.4-3.4s1.5-3.4,3.4-3.4,3.4,1.5,3.4,3.4-1.5,3.4-3.4,3.4ZM38.6,416.5c-3.9,0-7.1-3.2-7.1-7.1s3.2-7.1,7.1-7.1,7.1,3.2,7.1,7.1-3.2,7.1-7.1,7.1ZM38.6,39.7c-3.9,0-7.1-3.2-7.1-7.1s3.2-7.1,7.1-7.1,7.1,3.2,7.1,7.1-3.2,7.1-7.1,7.1ZM89.1,270.2c-2,0-3.4-1.4-3.4-3.4s1.4-3.4,3.4-3.4,3.4,1.4,3.4,3.4c-.3,2-1.7,3.4-3.4,3.4ZM109.5,270.2c-2,0-3.4-1.4-3.4-3.4s1.4-3.4,3.4-3.4,3.4,1.4,3.4,3.4c-.3,2-1.7,3.4-3.4,3.4ZM130.1,416.5c-3.9,0-7.1-3.2-7.1-7.1s3.2-7.1,7.1-7.1,7.1,3.2,7.1,7.1-3.2,7.1-7.1,7.1ZM126.5,266.8c0-2,1.4-3.4,3.4-3.4s3.4,1.4,3.4,3.4c-.3,2-1.7,3.4-3.4,3.4s-3.4-1.4-3.4-3.4ZM130.1,39.7c-3.9,0-7.1-3.2-7.1-7.1s3.2-7.1,7.1-7.1,7.1,3.2,7.1,7.1-3.2,7.1-7.1,7.1ZM155.8,418.2c-1.9,0-3.4-1.5-3.4-3.4s1.5-3.4,3.4-3.4,3.4,1.5,3.4,3.4-1.5,3.4-3.4,3.4ZM155.8,397.8c-1.9,0-3.4-1.5-3.4-3.4s1.5-3.4,3.4-3.4,3.4,1.5,3.4,3.4-1.5,3.4-3.4,3.4ZM155.8,377.4c-1.9,0-3.4-1.5-3.4-3.4s1.5-3.4,3.4-3.4,3.4,1.5,3.4,3.4-1.5,3.4-3.4,3.4ZM155.8,357c-1.9,0-3.4-1.5-3.4-3.4s1.5-3.4,3.4-3.4,3.4,1.5,3.4,3.4-1.5,3.4-3.4,3.4ZM155.8,336.6c-1.9,0-3.4-1.5-3.4-3.4s1.5-3.4,3.4-3.4,3.4,1.5,3.4,3.4-1.5,3.4-3.4,3.4ZM155.8,316.2c-1.9,0-3.4-1.5-3.4-3.4s1.5-3.4,3.4-3.4,3.4,1.5,3.4,3.4-1.5,3.4-3.4,3.4ZM155.8,295.7c-1.9,0-3.4-1.5-3.4-3.4s1.5-3.4,3.4-3.4,3.4,1.5,3.4,3.4-1.5,3.4-3.4,3.4ZM155.8,275.3c-1.9,0-3.4-1.5-3.4-3.4s1.5-3.4,3.4-3.4,3.4,1.5,3.4,3.4-1.5,3.4-3.4,3.4ZM155.8,254.9c-1.9,0-3.4-1.5-3.4-3.4s1.5-3.4,3.4-3.4,3.4,1.5,3.4,3.4-1.5,3.4-3.4,3.4ZM155.8,234.5c-1.9,0-3.4-1.5-3.4-3.4s1.5-3.4,3.4-3.4,3.4,1.5,3.4,3.4-1.5,3.4-3.4,3.4ZM155.8,214.1c-1.9,0-3.4-1.5-3.4-3.4s1.5-3.4,3.4-3.4,3.4,1.5,3.4,3.4-1.5,3.4-3.4,3.4ZM155.8,193.7c-1.9,0-3.4-1.5-3.4-3.4s1.5-3.4,3.4-3.4,3.4,1.5,3.4,3.4-1.5,3.4-3.4,3.4ZM155.8,173.3c-1.9,0-3.4-1.5-3.4-3.4s1.5-3.4,3.4-3.4,3.4,1.5,3.4,3.4-1.5,3.4-3.4,3.4ZM155.8,152.9c-1.9,0-3.4-1.5-3.4-3.4s1.5-3.4,3.4-3.4,3.4,1.5,3.4,3.4-1.5,3.4-3.4,3.4ZM155.8,132.5c-1.9,0-3.4-1.5-3.4-3.4s1.5-3.4,3.4-3.4,3.4,1.5,3.4,3.4-1.5,3.4-3.4,3.4ZM155.8,112.1c-1.9,0-3.4-1.5-3.4-3.4s1.5-3.4,3.4-3.4,3.4,1.5,3.4,3.4-1.5,3.4-3.4,3.4ZM155.8,91.7c-1.9,0-3.4-1.5-3.4-3.4s1.5-3.4,3.4-3.4,3.4,1.5,3.4,3.4-1.5,3.4-3.4,3.4ZM155.8,71.3c-1.9,0-3.4-1.5-3.4-3.4s1.5-3.4,3.4-3.4,3.4,1.5,3.4,3.4-1.5,3.4-3.4,3.4ZM155.8,50.9c-1.9,0-3.4-1.5-3.4-3.4s1.5-3.4,3.4-3.4,3.4,1.5,3.4,3.4-1.5,3.4-3.4,3.4ZM155.8,30.4c-1.9,0-3.4-1.5-3.4-3.4s1.5-3.4,3.4-3.4,3.4,1.5,3.4,3.4-1.5,3.4-3.4,3.4Z" />
      <g
         id="path52">
        <path
           id="path6619"
           class="st5"
           d="M97.7,424.3c.2.5.4,1,.4,1.5h13.5c0-.6.2-1.1.4-1.5h-14.4Z" />
      </g>
      <g
         id="path521"
         data-name="path52">
        <path
           id="path6622"
           class="st5"
           d="M76.4,424.3c.2.5.4,1,.4,1.5h13.5c0-.6.2-1.1.4-1.5h-14.4Z" />
      </g>
      <g
         id="path522"
         data-name="path52">
        <path
           id="path6625"
           class="st5"
           d="M56.5,424.3c.2.5.4,1,.4,1.5h13.5c0-.6.2-1.1.4-1.5h-14.4Z" />
      </g>
      <g
         id="path4">
        <path
           id="path6628"
           class="st0"
           d="M38.6,39.7c3.9,0,7.1-3.2,7.1-7.1s-3.2-7.1-7.1-7.1-7.1,3.2-7.1,7.1,3.2,7.1,7.1,7.1Z" />
      </g>
      <g
         id="path6">
        <path
           id="path6631"
           class="st0"
           d="M130.1,416.5c3.9,0,7.1-3.2,7.1-7.1s-3.2-7.1-7.1-7.1-7.1,3.2-7.1,7.1,3.2,7.1,7.1,7.1Z" />
      </g>
      <g
         id="path8">
        <path
           id="path6634"
           class="st0"
           d="M130.1,39.7c3.9,0,7.1-3.2,7.1-7.1s-3.2-7.1-7.1-7.1-7.1,3.2-7.1,7.1,3.2,7.1,7.1,7.1Z" />
      </g>
      <g
         id="circle10">
        <circle
           id="ellipse6637"
           class="st0"
           cx="38.6"
           cy="409.4"
           r="7.1" />
      </g>
      <g
         id="path12">
        <path
           id="path6640"
           class="st5"
           d="M168.7,44v-13.6h0c-.6,0-1.1-.2-1.5-.4v14.4c.5-.2,1-.4,1.5-.4Z" />
      </g>
      <g
         id="path14">
        <path
           id="path6643"
           class="st5"
           d="M168.7,64.4v-13.6h0c-.6,0-1.1-.2-1.5-.4v14.4c.5-.2,1-.4,1.5-.4h0Z" />
      </g>
      <g
         id="path16">
        <path
           id="path6646"
           class="st5"
           d="M168.7,84.9v-13.6h0c-.6,0-1.1-.2-1.5-.4v14.4c.5-.2,1-.4,1.5-.4h0Z" />
      </g>
      <g
         id="path18">
        <path
           id="path6649"
           class="st5"
           d="M168.7,105.3v-13.5h0c-.6,0-1.1-.2-1.5-.4v14.4c.5-.2,1-.4,1.5-.4Z" />
      </g>
      <g
         id="path20">
        <path
           id="path6652"
           class="st5"
           d="M168.7,125.7v-13.6h0c-.6,0-1.1-.2-1.5-.4v14.4c.5-.2,1-.4,1.5-.4h0Z" />
      </g>
      <g
         id="path22">
        <path
           id="path6655"
           class="st5"
           d="M168.7,146.1v-13.6h0c-.6,0-1.1-.2-1.5-.4v14.4c.5-.2,1-.4,1.5-.4Z" />
      </g>
      <g
         id="path24">
        <path
           id="path6658"
           class="st5"
           d="M168.7,166.5v-13.6h0c-.6,0-1.1-.2-1.5-.4v14.4c.5-.2,1-.4,1.5-.4Z" />
      </g>
      <g
         id="path26">
        <path
           id="path6661"
           class="st5"
           d="M168.7,186.9v-13.6h0c-.6,0-1.1-.2-1.5-.4v14.4c.5-.2,1-.4,1.5-.4Z" />
      </g>
      <g
         id="path28">
        <path
           id="path6664"
           class="st5"
           d="M168.7,207.3v-13.6h0c-.6,0-1.1-.2-1.5-.4v14.4c.5-.2,1-.4,1.5-.4Z" />
      </g>
      <g
         id="path30">
        <path
           id="path6667"
           class="st5"
           d="M168.7,227.7v-13.6h0c-.6,0-1.1-.2-1.5-.4v14.4c.5-.2,1-.4,1.5-.4Z" />
      </g>
      <g
         id="path32">
        <path
           id="path6670"
           class="st5"
           d="M168.7,248.1v-13.6h0c-.6,0-1.1-.2-1.5-.4v14.4c.5-.2,1-.4,1.5-.4Z" />
      </g>
      <g
         id="path34">
        <path
           id="path6673"
           class="st5"
           d="M168.7,268.5v-13.6h0c-.6,0-1.1-.2-1.5-.4v14.4c.5-.2,1-.4,1.5-.4Z" />
      </g>
      <g
         id="path36">
        <path
           id="path6676"
           class="st5"
           d="M168.7,288.9v-13.6h0c-.6,0-1.1-.2-1.5-.4v14.4c.5-.2,1-.4,1.5-.4Z" />
      </g>
      <g
         id="path38">
        <path
           id="path6679"
           class="st5"
           d="M168.7,309.3v-13.6h0c-.6,0-1.1-.2-1.5-.4v14.4c.5-.2,1-.4,1.5-.4Z" />
      </g>
      <g
         id="path40">
        <path
           id="path6682"
           class="st5"
           d="M168.7,329.7v-13.6h0c-.6,0-1.1-.2-1.5-.4v14.4c.5-.2,1-.4,1.5-.4Z" />
      </g>
      <g
         id="path42">
        <path
           id="path6685"
           class="st5"
           d="M168.7,350.2v-13.6h0c-.6,0-1.1-.2-1.5-.4v14.4c.5-.2,1-.4,1.5-.4Z" />
      </g>
      <g
         id="path44">
        <path
           id="path6688"
           class="st5"
           d="M168.7,370.6v-13.6h0c-.6,0-1.1-.2-1.5-.4v14.4c.5-.2,1-.4,1.5-.4Z" />
      </g>
      <g
         id="path46">
        <path
           id="path6691"
           class="st5"
           d="M168.7,391v-13.6h0c-.6,0-1.1-.2-1.5-.4v14.4c.5-.2,1-.4,1.5-.4Z" />
      </g>
      <g
         id="path48">
        <path
           id="path6694"
           class="st5"
           d="M168.7,411.4v-13.5h0c-.6,0-1.1-.2-1.5-.4v14.4c.5-.2,1-.4,1.5-.4Z" />
      </g>
      <g
         id="path50">
        <path
           id="path6697"
           class="st5"
           d="M168.7,418.2h0c-.6,0-1.1-.2-1.5-.4v4.5c0,1.1-.9,2-2,2h-57.4c.2.5.4,1,.4,1.5h57.3c1.8,0,3.2-1.4,3.2-3.2v-4.4h0,0Z" />
      </g>
      <g
         id="path523"
         data-name="path52">
        <path
           id="path6700"
           class="st5"
           d="M67,424.3c.2.5.4,1,.4,1.5h13.5c0-.6.2-1.1.4-1.5h-14.4Z" />
      </g>
      <g
         id="path54">
        <path
           id="path6703"
           class="st5"
           d="M87.4,424.3c.2.5.4,1,.4,1.5h13.6c0-.6.2-1.1.4-1.5h-14.4Z" />
      </g>
      <g
         id="path56">
        <path
           id="path6706"
           class="st5"
           d="M167.8,17l-1.2,1.2c.4.4.6.9.6,1.4v4.4c.5-.2,1-.4,1.5-.4h0v-4.3c0-.9-.4-1.7-.9-2.3Z" />
      </g>
      <g
         id="path62">
        <path
           id="path6709"
           class="st5"
           d="M60.9,424.3H3.5c-.6,0-1.1-.2-1.4-.6l-1.2,1.2c.6.6,1.4.9,2.3.9h57.3c0-.6.2-1.1.4-1.5h0Z" />
      </g>
      <g
         id="path70">
        <path
           id="path6712"
           class="st2"
           d="M165.5,16.1H3.2C1.4,16.1,0,17.5,0,19.3v4.3H0c.6,0,1.1.2,1.5.4v-4.4c0-1.1.9-2,2-2h161.6c.6,0,1.1.2,1.4.6l1.2-1.2c-.6-.6-1.4-.9-2.3-.9h0Z" />
      </g>
      <g
         id="path72">
        <path
           id="path6715"
           class="st2"
           d="M0,50.9v13.6H0c.6,0,1.1.2,1.5.4v-14.4c-.5.2-1,.4-1.5.4Z" />
      </g>
      <g
         id="path74">
        <path
           id="path6718"
           class="st2"
           d="M0,71.3v13.6H0c.6,0,1.1.2,1.5.4v-14.4c-.5.2-1,.4-1.5.4Z" />
      </g>
      <g
         id="path76">
        <path
           id="path6721"
           class="st2"
           d="M0,91.7v13.5H0c.6,0,1.1.2,1.5.4v-14.4c-.5.2-1,.4-1.5.4Z" />
      </g>
      <g
         id="path78">
        <path
           id="path6724"
           class="st2"
           d="M0,112.1v13.6H0c.6,0,1.1.2,1.5.4v-14.4c-.5.2-1,.4-1.5.4Z" />
      </g>
      <g
         id="path80">
        <path
           id="path6727"
           class="st2"
           d="M0,132.5v13.6H0c.6,0,1.1.2,1.5.4v-14.4c-.5.2-1,.4-1.5.4Z" />
      </g>
      <g
         id="path82">
        <path
           id="path6730"
           class="st2"
           d="M0,152.9v13.6H0c.6,0,1.1.2,1.5.4v-14.4c-.5.2-1,.4-1.5.4Z" />
      </g>
      <g
         id="path84">
        <path
           id="path6733"
           class="st2"
           d="M0,173.3v13.6H0c.6,0,1.1.2,1.5.4v-14.4c-.5.2-1,.4-1.5.4Z" />
      </g>
      <g
         id="path86">
        <path
           id="path6736"
           class="st2"
           d="M0,193.7v13.6H0c.6,0,1.1.2,1.5.4v-14.4c-.5.2-1,.4-1.5.4Z" />
      </g>
      <g
         id="path88">
        <path
           id="path6739"
           class="st2"
           d="M0,214.2v13.6H0c.6,0,1.1.2,1.5.4v-14.4c-.5.2-1,.4-1.5.4Z" />
      </g>
      <g
         id="path90">
        <path
           id="path6742"
           class="st2"
           d="M0,234.6v13.6H0c.6,0,1.1.2,1.5.4v-14.4c-.5.2-1,.4-1.5.4Z" />
      </g>
      <g
         id="path92">
        <path
           id="path6745"
           class="st2"
           d="M0,255v13.6H0c.6,0,1.1.2,1.5.4v-14.4c-.5.2-1,.4-1.5.4Z" />
      </g>
      <g
         id="path94">
        <path
           id="path6748"
           class="st2"
           d="M0,275.4v13.6H0c.6,0,1.1.2,1.5.4v-14.4c-.5.2-1,.4-1.5.4Z" />
      </g>
      <g
         id="path96">
        <path
           id="path6751"
           class="st2"
           d="M0,295.8v13.6H0c.6,0,1.1.2,1.5.4v-14.4c-.5.2-1,.4-1.5.4Z" />
      </g>
      <g
         id="path98">
        <path
           id="path6754"
           class="st2"
           d="M0,316.2v13.6H0c.6,0,1.1.2,1.5.4v-14.4c-.5.2-1,.4-1.5.4Z" />
      </g>
      <g
         id="path100">
        <path
           id="path6757"
           class="st2"
           d="M0,336.6v13.6H0c.6,0,1.1.2,1.5.4v-14.4c-.5.2-1,.4-1.5.4Z" />
      </g>
      <g
         id="path102">
        <path
           id="path6760"
           class="st2"
           d="M0,357v13.6H0c.6,0,1.1.2,1.5.4v-14.4c-.5.2-1,.4-1.5.4Z" />
      </g>
      <g
         id="path104">
        <path
           id="path6763"
           class="st2"
           d="M0,377.4v13.6H0c.6,0,1.1.2,1.5.4v-14.4c-.5.2-1,.4-1.5.4Z" />
      </g>
      <g
         id="path106">
        <path
           id="path6766"
           class="st2"
           d="M0,397.8v13.5H0c.6,0,1.1.2,1.5.4v-14.4c-.5.2-1,.4-1.5.4Z" />
      </g>
      <g
         id="path108">
        <path
           id="path6769"
           class="st2"
           d="M0,30.5v13.6H0c.6,0,1.1.2,1.5.4v-14.4c-.5.2-1,.4-1.5.4Z" />
      </g>
      <g
         id="path112">
        <path
           id="path6772"
           class="st2"
           d="M.9,424.9l1.2-1.2c-.4-.4-.6-.9-.6-1.4v-4.5c-.5.2-1,.4-1.5.4v4.4c0,.9.4,1.7.9,2.3Z" />
      </g>
      <g
         id="yellow_holes">
        <g
           id="circle119">
          <path
             id="path6775"
             class="st19"
             d="M38.6,422.2c-7.1,0-12.8-5.7-12.8-12.8s5.7-12.8,12.8-12.8,12.8,5.7,12.8,12.8-5.7,12.8-12.8,12.8ZM38.6,402.2c-3.9,0-7.1,3.2-7.1,7.1s3.2,7.1,7.1,7.1,7.1-3.2,7.1-7.1-3.2-7.1-7.1-7.1Z" />
        </g>
        <g
           id="circle125">
          <path
             id="path6778"
             class="st19"
             d="M130.1,422.2c-7.1,0-12.8-5.7-12.8-12.8s5.7-12.8,12.8-12.8,12.8,5.7,12.8,12.8-5.7,12.8-12.8,12.8ZM130.1,402.2c-3.9,0-7.1,3.2-7.1,7.1s3.2,7.1,7.1,7.1,7.1-3.2,7.1-7.1-3.2-7.1-7.1-7.1Z" />
        </g>
        <g
           id="circle131">
          <path
             id="path6781"
             class="st19"
             d="M38.6,45.3c-7.1,0-12.8-5.7-12.8-12.8s5.7-12.8,12.8-12.8,12.8,5.7,12.8,12.8-5.7,12.8-12.8,12.8ZM38.6,25.4c-3.9,0-7.1,3.2-7.1,7.1s3.2,7.1,7.1,7.1,7.1-3.2,7.1-7.1-3.2-7.1-7.1-7.1Z" />
        </g>
        <g
           id="circle137">
          <path
             id="path6784"
             class="st19"
             d="M130.1,45.3c-7.1,0-12.8-5.7-12.8-12.8s5.7-12.8,12.8-12.8,12.8,5.7,12.8,12.8-5.7,12.8-12.8,12.8ZM130.1,25.4c-3.9,0-7.1,3.2-7.1,7.1s3.2,7.1,7.1,7.1,7.1-3.2,7.1-7.1-3.2-7.1-7.1-7.1Z" />
        </g>
      </g>
      <g
         id="usb">
        <g
           id="path145">
          <path
             id="path6788"
             class="st14"
             d="M110.9,48.2h-53c-.9,0-1.6-.7-1.6-1.6V7.1c0-.9.7-1.6,1.6-1.6h53c.9,0,1.6.7,1.6,1.6v39.5c0,.9-.7,1.6-1.6,1.6Z" />
        </g>
        <g
           id="path147">
          <path
             id="path6791"
             class="st4"
             d="M60.3,0c-.7,0-1.3.5-1.5,1.1l-.9,2.9-1.6,1.6v40.9c0,.9.7,1.6,1.6,1.6h9.8c.4,0,.8-.4.8-.8v-2.3c0-.6-.3-1.1-.8-1.4l-5.5-3c-.5-.3-.8-.8-.8-1.4v-2.3h3.6v-2.7h5.5v2.7h3.2v5.6c0,.9.7,1.6,1.6,1.6h2.6v-2.9h13v2.9h2.6c.9,0,1.6-.7,1.6-1.6v-5.6h3.2v-2.7h5.5v2.7h3.6v2.3c0,.6-.3,1.1-.8,1.4l-5.5,3c-.5.3-.8.8-.8,1.4v2.3c0,.4.4.8.8.8h9.8c.9,0,1.6-.7,1.6-1.6V5.7l-1.6-1.6-.9-2.9C109.8.5,109.2,0,108.5,0h-48.2Z" />
        </g>
        <g
           id="path151">
          <path
             id="path6794"
             class="st4"
             d="M58,7.7c-.7-.9-1.4-1.9-2.1-3-.7-1.1-1.1-2.4-1.4-3.6h0c-.1-.6.2-1.1.8-1.2.5,0,1,.2,1.1.7.6,2,2.1,3.5,3.7,5.2.6.6.5,1.5,0,2-.6.6-1.5.5-2,0,0,0,0-.1-.1-.1h0s0,0,0,0Z" />
        </g>
        <g
           id="path153">
          <path
             id="path6797"
             class="st4"
             d="M108.6,5.9c1.6-1.7,3.1-3.1,3.7-5.2.2-.5.7-.8,1.2-.6.5.1.7.6.7,1.1h0c-.2,1.2-.7,2.5-1.4,3.6-.6,1.1-1.4,2-2.1,3-.5.6-1.4.8-2,.3-.6-.5-.8-1.4-.3-2,0,0,0-.1.1-.2h0Z" />
        </g>
      </g>
    </g>
    <g
       id="Components_Large">
      <g
         id="g6804">
        <path
           id="path6802"
           class="st4"
           d="M63.1,274h-21c-.9,0-1.7-.9-1.7-1.7v-12.8c0-.9.9-1.7,1.7-1.7h21c.9,0,1.7.9,1.7,1.7v12.8c-.3.9-.9,1.7-1.7,1.7Z" />
      </g>
      <g
         id="g6808">
        <rect
           id="rect6806"
           class="st12"
           x="45.1"
           y="144.7"
           width="24.1"
           height="16.2" />
      </g>
      <g
         id="g6812">
        <rect
           id="rect6810"
           class="st12"
           x="92.1"
           y="91.3"
           width="26.1"
           height="20.1" />
      </g>
      <g
         id="g6816">
        <rect
           id="rect6814"
           class="st12"
           x="127"
           y="56.4"
           width="12.2"
           height="20.1" />
      </g>
      <g
         id="g6820">
        <rect
           id="rect6818"
           class="st6"
           x="33.4"
           y="49.3"
           width="12.2"
           height="7.9" />
      </g>
      <g
         id="g6846">
        <g
           id="g6824">
          <path
             id="path6822"
             class="st15"
             d="M46.7,94h21c.9,0,1.7.9,1.7,1.7v28.9c0,.9-.9,1.7-1.7,1.7h-21c-.9,0-1.7-.9-1.7-1.7v-28.9c0-.9.9-1.7,1.7-1.7Z" />
        </g>
        <g
           id="g6828">
          <path
             id="path6826"
             class="st11"
             d="M57.2,96h0c5.7,0,9.9,4.5,9.9,9.9v7.9c0,5.7-4.5,9.9-9.9,9.9h0c-5.7,0-9.9-4.5-9.9-9.9v-7.9c-.3-5.4,4.3-9.9,9.9-9.9h0Z" />
        </g>
        <g
           id="g6832">
          <path
             id="path6830"
             class="st11"
             d="M45,95.7v3.1c0,1.4,1.7,2.3,2.8,1.1l3.1-3.1c1.1-1.1.3-2.8-1.1-2.8h-3.1c-.9,0-1.7.9-1.7,1.7h0Z" />
        </g>
        <g
           id="g6836">
          <path
             id="path6834"
             class="st11"
             d="M67.7,94h-3.1c-1.4,0-2.3,1.7-1.1,2.8l3.1,3.1c1.1,1.1,2.8.3,2.8-1.1v-3.1c-.3-.9-.9-1.7-1.7-1.7h0Z" />
        </g>
        <g
           id="g6840">
          <path
             id="path6838"
             class="st11"
             d="M69.1,124.6v-3.1c0-1.4-1.7-2.3-2.8-1.1l-2.8,3.1c-1.1,1.1-.3,2.8,1.1,2.8h3.1c.9-.3,1.4-.9,1.4-1.7Z" />
        </g>
        <g
           id="g6844">
          <path
             id="path6842"
             class="st11"
             d="M46.7,126h3.1c1.4,0,2.3-1.7,1.1-2.8l-3.1-3.1c-1.1-1.1-2.8-.3-2.8,1.1v3.1c0,1.1.9,1.7,1.7,1.7Z" />
        </g>
      </g>
      <g
         id="g6850">
        <path
           id="path6848"
           class="st12"
           d="M125.2,109.9v-17c0-.9.9-1.7,1.7-1.7h12.8c.9,0,1.7.9,1.7,1.7v17c0,.9-.9,1.7-1.7,1.7h-12.8c-1.1-.3-1.7-.9-1.7-1.7Z" />
      </g>
      <g
         id="g6854">
        <circle
           id="circle6852"
           class="st10"
           cx="37.6"
           cy="53.4"
           r="2" />
      </g>
      <g
         id="g6858">
        <rect
           id="rect6856"
           class="st4"
           x="97.1"
           y="126.8"
           width="16.2"
           height="12.2" />
      </g>
      <g
         id="g6862">
        <rect
           id="rect6860"
           class="st4"
           x="98.1"
           y="64.2"
           width="16.2"
           height="12.2" />
      </g>
      <g
         id="g6866">
        <rect
           id="rect6864"
           class="st17"
           x="100.1"
           y="64.2"
           width="12.2"
           height="12.2" />
      </g>
      <g
         id="g6870">
        <rect
           id="rect6868"
           class="st17"
           x="99.1"
           y="126.8"
           width="12.2"
           height="12.2" />
      </g>
      <g
         id="g6874">
        <rect
           id="rect6872"
           class="st4"
           x="97.1"
           y="141.5"
           width="16.2"
           height="12.2" />
      </g>
      <g
         id="g6878">
        <rect
           id="rect6876"
           class="st17"
           x="99.1"
           y="141.5"
           width="12.2"
           height="12.2" />
      </g>
      <g
         id="g6882">
        <circle
           id="circle6880"
           class="st9"
           cx="39"
           cy="75.3"
           r="3.4" />
      </g>
      <g
         id="g6886">
        <path
           id="path6884"
           class="st4"
           d="M127.5,359.8H43.3c-.9,0-1.7-.9-1.7-1.7v-77.1c0-.9.9-1.7,1.7-1.7h84.2c.9,0,1.7.9,1.7,1.7v77.1c0,1.1-.9,1.7-1.7,1.7Z" />
      </g>
    </g>
    <g
       id="Components_Small">
      <g
         id="g6891">
        <rect
           id="rect6889"
           class="st12"
           x="133.4"
           y="155.6"
           width="12.2"
           height="6.2" />
      </g>
      <g
         id="g6895">
        <rect
           id="rect6893"
           class="st4"
           x="124.1"
           y="138.8"
           width="4"
           height="7.9" />
      </g>
      <g
         id="g6899">
        <rect
           id="rect6897"
           class="st16"
           x="124.1"
           y="139.6"
           width="4"
           height="6" />
      </g>
      <g
         id="g6903">
        <rect
           id="rect6901"
           class="st4"
           x="125.4"
           y="163.3"
           width="4"
           height="7.9" />
      </g>
      <g
         id="g6907">
        <rect
           id="rect6905"
           class="st9"
           x="125.4"
           y="164.4"
           width="4"
           height="6" />
      </g>
      <g
         id="g6911">
        <rect
           id="rect6909"
           class="st4"
           x="124.3"
           y="127.3"
           width="10.5"
           height="6.2" />
      </g>
      <g
         id="g6915">
        <rect
           id="rect6913"
           class="st16"
           x="125.4"
           y="127.3"
           width="7.9"
           height="6.2" />
      </g>
      <g
         id="g6919">
        <rect
           id="rect6917"
           class="st4"
           x="99.5"
           y="164.4"
           width="3.1"
           height="6" />
      </g>
      <g
         id="g6923">
        <rect
           id="rect6921"
           class="st12"
           x="99.5"
           y="165.3"
           width="3.1"
           height="4" />
      </g>
      <g
         id="g6927">
        <rect
           id="rect6925"
           class="st4"
           x="133.4"
           y="174.3"
           width="6"
           height="3.1" />
      </g>
      <g
         id="g6931">
        <rect
           id="rect6929"
           class="st12"
           x="134.3"
           y="174.3"
           width="4"
           height="3.1" />
      </g>
      <g
         id="g6935">
        <rect
           id="rect6933"
           class="st4"
           x="136.3"
           y="136.6"
           width="6"
           height="3.1" />
      </g>
      <g
         id="g6939">
        <rect
           id="rect6937"
           class="st12"
           x="137.5"
           y="136.6"
           width="4"
           height="3.1" />
      </g>
      <g
         id="g6943">
        <rect
           id="rect6941"
           class="st4"
           x="93.9"
           y="164.4"
           width="3.1"
           height="6" />
      </g>
      <g
         id="g6947">
        <rect
           id="rect6945"
           class="st12"
           x="93.9"
           y="165.3"
           width="3.1"
           height="4" />
      </g>
      <g
         id="g6951">
        <rect
           id="rect6949"
           class="st4"
           x="60.7"
           y="71.6"
           width="6"
           height="3.1" />
      </g>
      <g
         id="g6955">
        <rect
           id="rect6953"
           class="st12"
           x="61.9"
           y="71.6"
           width="4"
           height="3.1" />
      </g>
      <g
         id="g6959">
        <rect
           id="rect6957"
           class="st4"
           x="64.8"
           y="65.9"
           width="6"
           height="3.1" />
      </g>
      <g
         id="g6963">
        <rect
           id="rect6961"
           class="st12"
           x="65.7"
           y="65.9"
           width="4"
           height="3.1" />
      </g>
      <g
         id="g6967">
        <rect
           id="rect6965"
           class="st4"
           x="88.1"
           y="164.4"
           width="3.1"
           height="6" />
      </g>
      <g
         id="g6971">
        <rect
           id="rect6969"
           class="st9"
           x="88.1"
           y="165.3"
           width="3.1"
           height="4" />
      </g>
      <g
         id="g6975">
        <rect
           id="rect6973"
           class="st4"
           x="82.2"
           y="164.4"
           width="3.1"
           height="6" />
      </g>
      <g
         id="g6979">
        <rect
           id="rect6977"
           class="st9"
           x="82.2"
           y="165.3"
           width="3.1"
           height="4" />
      </g>
      <g
         id="g6983">
        <rect
           id="rect6981"
           class="st4"
           x="61"
           y="141.1"
           width="6"
           height="3.1" />
      </g>
      <g
         id="g6987">
        <rect
           id="rect6985"
           class="st9"
           x="61.9"
           y="141.1"
           width="4"
           height="3.1" />
      </g>
      <g
         id="g6991">
        <rect
           id="rect6989"
           class="st4"
           x="88.2"
           y="247.5"
           width="3.1"
           height="6" />
      </g>
      <g
         id="g6995">
        <rect
           id="rect6993"
           class="st9"
           x="88.2"
           y="248.6"
           width="3.1"
           height="4" />
      </g>
      <g
         id="g6999">
        <rect
           id="rect6997"
           class="st4"
           x="82.3"
           y="247.5"
           width="3.1"
           height="6" />
      </g>
      <g
         id="g7003">
        <rect
           id="rect7001"
           class="st9"
           x="82.3"
           y="248.6"
           width="3.1"
           height="4" />
      </g>
      <g
         id="g7007">
        <rect
           id="rect7005"
           class="st4"
           x="65.7"
           y="259.3"
           width="3.1"
           height="6" />
      </g>
      <g
         id="g7011">
        <rect
           id="rect7009"
           class="st1"
           x="65.7"
           y="260.5"
           width="3.1"
           height="4" />
      </g>
      <g
         id="g7015">
        <rect
           id="rect7013"
           class="st4"
           x="65.8"
           y="269.4"
           width="3.1"
           height="6" />
      </g>
      <g
         id="g7019">
        <rect
           id="rect7017"
           class="st1"
           x="65.8"
           y="270.2"
           width="3.1"
           height="4" />
      </g>
      <g
         id="g7023">
        <rect
           id="rect7021"
           class="st4"
           x="113"
           y="163.3"
           width="4"
           height="7.9" />
      </g>
      <g
         id="g7027">
        <rect
           id="rect7025"
           class="st9"
           x="113"
           y="164.4"
           width="4"
           height="6" />
      </g>
      <g
         id="g7031">
        <rect
           id="rect7029"
           class="st4"
           x="105.3"
           y="163.3"
           width="4"
           height="7.9" />
      </g>
      <g
         id="g7035">
        <rect
           id="rect7033"
           class="st9"
           x="105.3"
           y="164.4"
           width="4"
           height="6" />
      </g>
      <g
         id="g7039">
        <rect
           id="rect7037"
           class="st4"
           x="118.5"
           y="184.4"
           width="6"
           height="3.1" />
      </g>
      <g
         id="g7043">
        <rect
           id="rect7041"
           class="st9"
           x="119.6"
           y="184.4"
           width="4"
           height="3.1" />
      </g>
      <g
         id="g7047">
        <rect
           id="rect7045"
           class="st4"
           x="50.6"
           y="183.1"
           width="6"
           height="3.1" />
      </g>
      <g
         id="g7051">
        <rect
           id="rect7049"
           class="st9"
           x="51.7"
           y="183.1"
           width="4"
           height="3.1" />
      </g>
      <g
         id="g7055">
        <rect
           id="rect7053"
           class="st4"
           x="49.6"
           y="218.4"
           width="6"
           height="3.1" />
      </g>
      <g
         id="g7059">
        <rect
           id="rect7057"
           class="st9"
           x="50.7"
           y="218.4"
           width="4"
           height="3.1" />
      </g>
      <g
         id="g7063">
        <rect
           id="rect7061"
           class="st4"
           x="121.5"
           y="216.9"
           width="3.1"
           height="6"
           transform="translate(-119.4 151.4) rotate(-45)" />
      </g>
      <g
         id="g7067">
        <rect
           id="rect7065"
           class="st9"
           x="121.6"
           y="218"
           width="3.1"
           height="4"
           transform="translate(-119.5 151.5) rotate(-45)" />
      </g>
      <g
         id="g7071">
        <rect
           id="rect7069"
           class="st4"
           x="133.3"
           y="200.8"
           width="4"
           height="7.9" />
      </g>
      <g
         id="g7075">
        <rect
           id="rect7073"
           class="st12"
           x="133.3"
           y="201.6"
           width="4"
           height="6" />
      </g>
      <g
         id="g7079">
        <rect
           id="rect7077"
           class="st4"
           x="133.3"
           y="200.8"
           width="4"
           height="7.9" />
      </g>
      <g
         id="g7083">
        <rect
           id="rect7081"
           class="st12"
           x="133.3"
           y="201.6"
           width="4"
           height="6" />
      </g>
      <g
         id="g7087">
        <rect
           id="rect7085"
           class="st4"
           x="137.8"
           y="215.5"
           width="4"
           height="7.9" />
      </g>
      <g
         id="g7091">
        <rect
           id="rect7089"
           class="st12"
           x="137.8"
           y="216.4"
           width="4"
           height="6" />
      </g>
      <g
         id="g7095">
        <rect
           id="rect7093"
           class="st4"
           x="70.6"
           y="261.7"
           width="4"
           height="7.9" />
      </g>
      <g
         id="g7099">
        <rect
           id="rect7097"
           class="st12"
           x="70.6"
           y="262.8"
           width="4"
           height="6" />
      </g>
      <g
         id="g7103">
        <rect
           id="rect7101"
           class="st4"
           x="48.6"
           y="175.6"
           width="7.9"
           height="4" />
      </g>
      <g
         id="g7107">
        <rect
           id="rect7105"
           class="st9"
           x="49.4"
           y="175.6"
           width="6"
           height="4" />
      </g>
      <g
         id="g7111">
        <rect
           id="rect7109"
           class="st4"
           x="50.7"
           y="169.6"
           width="6"
           height="3.1" />
      </g>
      <g
         id="g7115">
        <rect
           id="rect7113"
           class="st12"
           x="51.5"
           y="169.6"
           width="4"
           height="3.1" />
      </g>
      <g
         id="g7119">
        <rect
           id="rect7117"
           class="st4"
           x="91"
           y="392.9"
           width="7.9"
           height="4" />
      </g>
      <g
         id="g7123">
        <rect
           id="rect7121"
           class="st1"
           x="91.9"
           y="392.9"
           width="6"
           height="4" />
      </g>
      <g
         id="g7127">
        <rect
           id="rect7125"
           class="st4"
           x="70.7"
           y="392.8"
           width="7.9"
           height="4" />
      </g>
      <g
         id="g7131">
        <rect
           id="rect7129"
           class="st1"
           x="71.5"
           y="392.8"
           width="6"
           height="4" />
      </g>
      <g
         id="g7135">
        <rect
           id="rect7133"
           class="st4"
           x="91"
           y="417.5"
           width="7.9"
           height="4" />
      </g>
      <g
         id="g7139">
        <rect
           id="rect7137"
           class="st1"
           x="91.9"
           y="417.5"
           width="6"
           height="4" />
      </g>
      <g
         id="g7143">
        <rect
           id="rect7141"
           class="st4"
           x="70.7"
           y="417.4"
           width="7.9"
           height="4" />
      </g>
      <g
         id="g7147">
        <rect
           id="rect7145"
           class="st1"
           x="71.5"
           y="417.4"
           width="6"
           height="4" />
      </g>
    </g>
    <g
       id="silkscreen">
      <g
         id="g7154">
        <g
           id="g7152">
          <rect
             id="rect7150"
             class="st0"
             x="94.7"
             y="239.7"
             width="38.5"
             height="9.6" />
        </g>
      </g>
      <g
         id="g7218">
        <path
           id="path7216"
           class="st4"
           d="M140.4,275.5h-61.9v-17.4h61.9v17.4ZM78.9,275.1h61.1v-16.6h-61.1v16.6Z" />
      </g>
    </g>
    <g
       id="RP2040">
      <g
         id="Pico_2040">
        <rect
           id="rect7272"
           class="st3"
           x="59"
           y="179.9"
           width="56.7"
           height="56.7" />
      </g>
      <g
         id="g7297"
         class="st7">
        <path
           id="path7275"
           class="st18"
           d="M64.8,223.5v1.8h-.6v-4.5h1.1c.5,0,.9.1,1.2.3.3.2.4.5.4.9s0,.3,0,.5c0,.1-.1.2-.2.3,0,0-.2.2-.3.2-.1,0-.2.1-.3.2l1.2,2h-.7l-1.1-1.8h-.7,0ZM64.8,223h.5c.2,0,.3,0,.5,0,.1,0,.2,0,.3-.2,0,0,.1-.2.2-.3,0-.1,0-.2,0-.4s0-.3,0-.4c0-.1-.1-.2-.2-.2,0,0-.2-.1-.3-.1-.1,0-.3,0-.5,0h-.5v1.6h0Z" />
        <path
           id="path7277"
           class="st18"
           d="M70.6,222.2c0,.2,0,.4,0,.5,0,.2-.1.3-.3.5-.1.1-.3.2-.5.3-.2,0-.5.1-.8.1h-.5v1.7h-.6v-4.5h1.1c.3,0,.5,0,.7,0,.2,0,.4.1.5.3.1.1.2.2.3.4,0,.2,0,.3,0,.6h0ZM68.5,223.1h.4c.2,0,.4,0,.5,0,.1,0,.3,0,.3-.2,0,0,.2-.2.2-.3,0-.1,0-.3,0-.4,0-.3,0-.5-.2-.6-.2-.1-.4-.2-.8-.2h-.5v1.8h0Z" />
        <path
           id="path7279"
           class="st18"
           d="M74,225.3h-2.8v-.5l1.1-1.2c.2-.2.3-.3.4-.5.1-.1.2-.3.3-.4,0-.1.1-.3.2-.4,0-.1,0-.3,0-.4s0-.2,0-.3c0,0,0-.2-.1-.2,0,0-.1-.1-.2-.1,0,0-.2,0-.3,0-.2,0-.4,0-.5.1-.2,0-.3.2-.4.3l-.3-.4c0,0,.2-.1.3-.2,0,0,.2-.1.3-.2.1,0,.2,0,.3-.1.1,0,.2,0,.4,0,.2,0,.4,0,.5,0,.2,0,.3.1.4.2.1.1.2.2.3.4,0,.1,0,.3,0,.5s0,.3,0,.5c0,.2-.1.3-.2.5,0,.1-.2.3-.3.5-.1.2-.3.3-.4.5l-.9.9h0s2.1,0,2.1,0v.5h0Z" />
        <path
           id="path7281"
           class="st18"
           d="M74.6,223.9v-.5h1.5v.5h-1.5Z" />
        <path
           id="path7283"
           class="st18"
           d="M78.1,220.8c.2,0,.3,0,.5,0s.3.1.4.2c.1,0,.2.2.3.3,0,.1,0,.3,0,.5s0,.3,0,.4c0,.1,0,.2-.2.3,0,0-.2.2-.3.2,0,0-.2.1-.3.2.1,0,.2.1.3.2.1,0,.2.2.3.3,0,0,.2.2.2.3,0,.1,0,.3,0,.4s0,.4-.1.5c0,.2-.2.3-.3.4-.1.1-.3.2-.4.2-.2,0-.4,0-.6,0s-.4,0-.6,0c-.2,0-.3-.1-.4-.2-.1-.1-.2-.2-.3-.4,0-.1,0-.3,0-.5s0-.3,0-.4c0-.1.1-.2.2-.3,0,0,.2-.2.3-.3.1,0,.2-.1.3-.2,0,0-.2-.1-.3-.2,0,0-.2-.2-.2-.2,0,0-.1-.2-.2-.3,0-.1,0-.2,0-.4s0-.3,0-.5c0-.1.2-.2.3-.3.1,0,.2-.2.4-.2.1,0,.3,0,.5,0h0ZM77.2,224.2c0,.1,0,.2,0,.3,0,0,0,.2.2.2,0,0,.2.1.3.1.1,0,.2,0,.4,0s.3,0,.4,0c.1,0,.2,0,.3-.2,0,0,.1-.1.2-.2,0,0,0-.2,0-.3s0-.2,0-.3c0,0,0-.2-.2-.2,0,0-.2-.1-.3-.2-.1,0-.2-.1-.3-.2h0c-.3,0-.4.2-.6.4-.1.2-.2.3-.2.6h0ZM78.1,221.3c-.2,0-.4,0-.5.2-.1.1-.2.3-.2.5s0,.2,0,.3c0,0,0,.2.1.2,0,0,.1.1.2.2,0,0,.2.1.3.1,0,0,.2,0,.3-.1,0,0,.2-.1.2-.2,0,0,.1-.1.1-.2,0,0,0-.2,0-.3,0-.2,0-.4-.2-.5-.1-.1-.3-.2-.5-.2h0Z" />
        <path
           id="path7285"
           class="st18"
           d="M82.9,225.3h-2.8v-.5l1.1-1.2c.2-.2.3-.3.4-.5.1-.1.2-.3.3-.4,0-.1.1-.3.2-.4,0-.1,0-.3,0-.4s0-.2,0-.3c0,0,0-.2-.1-.2,0,0-.1-.1-.2-.1,0,0-.2,0-.3,0-.2,0-.4,0-.5.1-.2,0-.3.2-.4.3l-.3-.4c0,0,.2-.1.3-.2,0,0,.2-.1.3-.2.1,0,.2,0,.3-.1.1,0,.2,0,.4,0,.2,0,.4,0,.5,0,.2,0,.3.1.4.2.1.1.2.2.3.4,0,.1,0,.3,0,.5s0,.3,0,.5c0,.2-.1.3-.2.5,0,.1-.2.3-.3.5-.1.2-.3.3-.4.5l-.9.9h0s2.1,0,2.1,0v.5h0Z" />
        <path
           id="path7287"
           class="st18"
           d="M92.8,225.3h-2.8v-.5l1.1-1.2c.2-.2.3-.3.4-.5.1-.1.2-.3.3-.4,0-.1.1-.3.2-.4,0-.1,0-.3,0-.4s0-.2,0-.3c0,0,0-.2-.1-.2,0,0-.1-.1-.2-.1,0,0-.2,0-.3,0-.2,0-.4,0-.5.1-.2,0-.3.2-.4.3l-.3-.4c0,0,.2-.1.3-.2,0,0,.2-.1.3-.2.1,0,.2,0,.3-.1.1,0,.2,0,.4,0,.2,0,.4,0,.5,0,.2,0,.3.1.4.2.1.1.2.2.3.4,0,.1,0,.3,0,.5s0,.3,0,.5c0,.2-.1.3-.2.5,0,.1-.2.3-.3.5-.1.2-.3.3-.4.5l-.9.9h0s2.1,0,2.1,0v.5h0Z" />
        <path
           id="path7289"
           class="st18"
           d="M95.3,225.3h-.5v-3.1c0,0,0-.2,0-.3,0,0,0-.2,0-.3,0,0,0-.2,0-.2,0,0,0,0,0,0,0,0,0,0,0,0,0,0,0,0,0,0,0,0,0,0-.1,0l-.4.4-.3-.4,1.2-.9h.5v4.5h0Z" />
        <path
           id="path7291"
           class="st18"
           d="M98.8,220.9l-1.7,4.5h-.5l1.7-4.5h.5Z" />
        <path
           id="path7293"
           class="st18"
           d="M102.2,224.3h-.6v1h-.5v-1h-2.1v-.5l2-3h.6v3h.6v.5ZM101,223.8v-1.1c0-.1,0-.2,0-.4,0-.1,0-.2,0-.4,0-.1,0-.2,0-.3,0-.1,0-.2,0-.3h0s0,0,0,.1c0,0,0,0,0,.1,0,0,0,0,0,.1,0,0,0,0,0,.1l-1.3,1.9h1.5Z" />
        <path
           id="path7295"
           class="st18"
           d="M105.4,225.3h-2.8v-.5l1.1-1.2c.2-.2.3-.3.4-.5.1-.1.2-.3.3-.4,0-.1.1-.3.2-.4,0-.1,0-.3,0-.4s0-.2,0-.3c0,0,0-.2-.1-.2,0,0-.1-.1-.2-.1,0,0-.2,0-.3,0-.2,0-.4,0-.5.1-.2,0-.3.2-.4.3l-.3-.4c0,0,.2-.1.3-.2,0,0,.2-.1.3-.2.1,0,.2,0,.3-.1.1,0,.2,0,.4,0,.2,0,.4,0,.5,0,.2,0,.3.1.4.2.1.1.2.2.3.4,0,.1,0,.3,0,.5s0,.3,0,.5c0,.2-.1.3-.2.5,0,.1-.2.3-.3.5-.1.2-.3.3-.4.5l-.9.9h0s2.1,0,2.1,0v.5h0Z" />
      </g>
      <g
         id="g7317"
         class="st7">
        <path
           id="path7299"
           class="st18"
           d="M66.9,228.5c0,.2,0,.4,0,.5,0,.2-.1.3-.3.5-.1.1-.3.2-.5.3-.2,0-.5.1-.8.1h-.5v1.7h-.6v-4.5h1.1c.3,0,.5,0,.7,0,.2,0,.4.1.5.3.1.1.2.2.3.4,0,.2,0,.3,0,.6h0ZM64.8,229.4h.4c.2,0,.4,0,.5,0,.1,0,.3,0,.4-.2,0,0,.2-.2.2-.3,0-.1,0-.3,0-.4,0-.3,0-.5-.3-.6-.2-.1-.4-.2-.8-.2h-.5v1.8h0Z" />
        <path
           id="path7301"
           class="st18"
           d="M70.2,231.7l-.5-1.4h-1.7l-.5,1.4h-.6l1.6-4.5h.5l1.6,4.5h-.6ZM69.6,229.8l-.5-1.3s0,0,0-.1c0,0,0-.1,0-.2,0,0,0-.1,0-.2,0,0,0-.1,0-.2,0,0,0,.1,0,.2,0,0,0,.1,0,.2,0,0,0,.1,0,.2,0,0,0,0,0,.1l-.4,1.3h1.3Z" />
        <path
           id="path7303"
           class="st18"
           d="M74.4,231.7h-.6l-1.4-2.1-.4.3v1.8h-.6v-4.5h.6v2.2l.4-.5,1.4-1.7h.6l-1.6,1.9,1.6,2.5Z" />
        <path
           id="path7305"
           class="st18"
           d="M76.6,231.7h-.5v-3.1c0,0,0-.2,0-.3,0,0,0-.2,0-.3,0,0,0-.2,0-.2,0,0,0,0,0,0,0,0,0,0,0,0,0,0,0,0,0,0,0,0,0,0-.1,0l-.4.4-.3-.4,1.2-.9h.5v4.5h0Z" />
        <path
           id="path7307"
           class="st18"
           d="M81,229.4c0,.4,0,.7,0,1,0,.3-.1.5-.2.7-.1.2-.3.3-.4.5-.2.1-.4.2-.7.2s-.4,0-.6-.2c-.2-.1-.3-.3-.4-.5-.1-.2-.2-.4-.3-.7,0-.3,0-.6,0-1s0-.7,0-1c0-.3.1-.5.2-.7.1-.2.3-.3.4-.4.2-.1.4-.2.7-.2s.5,0,.6.2c.2.1.3.3.4.4.1.2.2.4.3.7,0,.3,0,.6,0,1h0ZM78.7,229.4c0,.3,0,.6,0,.8s0,.4.1.6c0,.2.2.3.3.3.1,0,.2.1.4.1s.3,0,.4-.1c.1,0,.2-.2.3-.3,0-.2.1-.3.2-.6,0-.2,0-.5,0-.8s0-.6,0-.8c0-.2,0-.4-.2-.6,0-.1-.2-.3-.3-.3-.1,0-.2-.1-.4-.1s-.3,0-.4.1c-.1,0-.2.2-.3.3,0,.1-.1.3-.1.6,0,.2,0,.5,0,.8Z" />
        <path
           id="path7309"
           class="st18"
           d="M82.1,231.7l1.7-3.9h-2.3v-.5h2.9v.4l-1.7,4h-.6Z" />
        <path
           id="path7311"
           class="st18"
           d="M85.2,231.3c0,0,0-.1,0-.2,0,0,0,0,0-.1,0,0,0,0,.1,0,0,0,0,0,.2,0s.1,0,.2,0c0,0,0,0,.1,0,0,0,0,0,0,.1,0,0,0,.1,0,.2s0,.1,0,.2c0,0,0,0,0,.1,0,0,0,0-.1,0,0,0,0,0-.2,0s-.1,0-.2,0c0,0,0,0-.1,0,0,0,0,0,0-.1,0,0,0-.1,0-.2Z" />
        <path
           id="path7313"
           class="st18"
           d="M89.5,229.4c0,.4,0,.7,0,1,0,.3-.1.5-.2.7-.1.2-.3.3-.4.5-.2.1-.4.2-.7.2s-.4,0-.6-.2c-.2-.1-.3-.3-.4-.5s-.2-.4-.3-.7c0-.3,0-.6,0-1s0-.7,0-1c0-.3.1-.5.2-.7s.3-.3.4-.4c.2-.1.4-.2.7-.2s.5,0,.6.2c.2.1.3.3.4.4.1.2.2.4.3.7,0,.3,0,.6,0,1h0ZM87.2,229.4c0,.3,0,.6,0,.8s0,.4.1.6c0,.2.2.3.3.3.1,0,.2.1.4.1s.3,0,.4-.1c.1,0,.2-.2.3-.3,0-.2.1-.3.2-.6,0-.2,0-.5,0-.8s0-.6,0-.8c0-.2,0-.4-.2-.6,0-.1-.2-.3-.3-.3-.1,0-.2-.1-.4-.1s-.3,0-.4.1c-.1,0-.2.2-.3.3,0,.1-.1.3-.1.6,0,.2,0,.5,0,.8Z" />
        <path
           id="path7315"
           class="st18"
           d="M93,229.4c0,.4,0,.7,0,1,0,.3-.1.5-.2.7-.1.2-.3.3-.4.5-.2.1-.4.2-.7.2s-.4,0-.6-.2c-.2-.1-.3-.3-.4-.5s-.2-.4-.3-.7c0-.3,0-.6,0-1s0-.7,0-1c0-.3.1-.5.2-.7s.3-.3.4-.4c.2-.1.4-.2.7-.2s.5,0,.6.2c.2.1.3.3.4.4.1.2.2.4.3.7,0,.3,0,.6,0,1ZM90.7,229.4c0,.3,0,.6,0,.8s0,.4.1.6c0,.2.2.3.3.3.1,0,.2.1.4.1s.3,0,.4-.1c.1,0,.2-.2.3-.3,0-.2.1-.3.2-.6,0-.2,0-.5,0-.8s0-.6,0-.8c0-.2,0-.4-.2-.6,0-.1-.2-.3-.3-.3-.1,0-.2-.1-.4-.1s-.3,0-.4.1c-.1,0-.2.2-.3.3,0,.1-.1.3-.1.6,0,.2,0,.5,0,.8Z" />
      </g>
      <g
         id="g7321"
         class="st7">
        <path
           id="path7319"
           class="st18"
           d="M73.3,230h-1.3v-.5h1.3v.5Z" />
      </g>
      <g
         id="Chip_print">
        <g
           id="g7327">
          <g
             id="g7325">
            <path
               id="path7323"
               class="st18"
               d="M97.3,202l-.3-.3c0-2.8-1.1-3.7-2.8-4.5.3,0,.9-.3,1.1-.9.9-.3.9-.6,1.1-.9.3,0,.9-.6.9-1.1.3-.3.6-.6.6-1.1.3-.3.6-.9.3-1.1.6-.6.3-.9,0-1.1.3-.6,0-1.4-.9-1.1-.3-.6-1.1-.6-1.4-.6q-.3-.3-.9-.3c-.3-.3-.9-.3-1.4,0-.6-.3-.9,0-1.4,0-.6-.3-.9,0-1.1.3-.9-.3-.9.3-1.4.6h-.3c-1.1.6-1.7,2-1.7,2.6-.3-.6-.9-2-1.7-2.6h-.9c-.3-.3-.6-.6-1.4-.6s-.6-.3-1.1-.3-.6-.3-.9-.3h0q-.3,0-.6.3c-.6-.3-.9-.3-1.4,0-.6,0-.9,0-.9.3,0,0-1.1,0-1.4.6-1.1,0-1.4.6-.9,1.1-.3.3-.3.6,0,1.1-.3.3,0,.9.3,1.1,0,.6,0,.9.6,1.1,0,.6.6,1.1.9,1.1,0,.3.3.9,1.1.9,0,.6.6.6,1.1.9-1.4.9-2.8,2-2.8,4.5l-.3.3c-1.7,1.1-3.1,4.3-.9,6.8.3.9.3,1.4.6,2,.3,2.6,2.6,4,3.1,4,.9.6,1.7,1.1,3.1,1.7,1.1,1.1,2.6,1.7,3.7,1.7h0c1.4,0,2.6-.6,3.7-1.7,1.1-.3,2.3-1.1,3.1-1.7.6,0,2.8-1.4,3.1-4,.3-.6.6-1.1.6-2,2.8-2.6,1.4-5.7-.3-6.8ZM95.9,201.7c0,1.1-5.7-3.7-4.8-4,2.8-.6,5.1,1.1,4.8,4ZM93.3,207.1c-1.4.9-3.4.3-4.5-1.4-1.1-1.7-.9-3.7.6-4.8,1.4-.9,3.4-.3,4.5,1.4,1.1,1.7.9,4-.6,4.8ZM89.6,190.4q0,.3.3.3c.3-.3.6-.9.9-1.1v.6c.3-.3.6-.6.9-.9-.3.3,0,.3,0,.6.3-.3.6-.6,1.1-.9q-.3.3,0,.6c.3-.3.6-.3,1.4-.6-.3.3-.6.3-.3.6.3,0,.9-.3,1.4-.3q-.3.3-.3.6c.3,0,1.1-.3,1.4-.3l-.3.3h1.4c-.3.3-.3.6-.6,1.1h.6c-.3.6-.9.9-.9.9h.6c-.3.3-.6.6-.9,1.1h.6c-.3.3-.6.6-1.1.9h.6c-.3.3-.9.6-1.4.9.3.3.3,0,.6,0-.3.3-.9.3-1.4.6,0,.3.3.3.3.3-.6.3-1.4.3-1.7.3,0,.3.3.3.3.3-.9,0-3.4,0-3.7-2,.9-1.1,2.6-2.3,5.4-3.7-2.3.9-4.3,1.7-6,3.1-1.7,0-.3-2.3.9-3.1ZM87.4,196.9h0c1.4,0,3.1,1.1,3.1,2s-1.1,1.7-3.1,1.4c-2,0-3.1-.9-3.1-1.7s1.7-1.7,3.1-1.7ZM80.3,196.1q.3,0,.3-.3c-.6-.3-1.1-.3-1.4-.6h.6c-.6-.3-.9-.6-1.4-.9h.6c-.3-.3-.9-.6-1.1-.9h.6c-.3-.3-.9-.6-.9-1.1h.6c0-.3-.6-.3-.9-.9h.6c0-.6-.3-.9-.6-1.1h1.4l-.3-.3c.6,0,1.1,0,1.4.3.3,0,0-.3-.3-.6.6,0,.9.3,1.4.3.3-.3,0-.3-.3-.6.9,0,1.1.3,1.4.6.3-.3,0-.3,0-.6.6.3.9.6,1.1.9,0,0,.3-.3,0-.6.3.3.9.6.9.9.3-.3,0-.3,0-.6.3.3.6.6.9,1.1,0,0,0-.3.3-.3.9.9,2.3,3.1.3,4.3-1.7-1.4-3.7-2.3-6-3.1,2.8,1.4,4.5,2.6,5.4,3.7-.6,1.7-2.8,2-3.7,2,.3,0,.3-.3.3-.3.3-1.1-.6-.9-1.1-1.4ZM83.7,197.5c1.1.3-4.8,5.1-4.8,4,0-2.8,2.3-4.3,4.8-4ZM77.7,208.6c-1.4-1.1-1.7-4.3.9-5.7,1.4-.6.6,6.2-.9,5.7ZM83.1,214.2c-.9.6-2.6.3-4-1.7-.9-1.7-.9-3.1-.3-3.7.9-.6,2.6.3,3.7,1.4.9,1.4,1.4,3.4.6,4ZM81.7,207.1c-1.4-.9-1.7-3.1-.6-4.8,1.1-1.7,3.1-2.3,4.5-1.4s1.7,3.1.6,4.8c-1.1,2-3.1,2.6-4.5,1.4ZM87.4,217.3c-1.7,0-3.4-1.4-3.4-2,0-.9,2-1.4,3.4-1.4s3.1.3,3.1,1.1c.3.9-1.4,2.3-3.1,2.3ZM91.1,210.3c0,1.7-1.4,3.1-3.4,3.1s-3.4-1.4-3.4-3.1h0c0-1.7,1.4-3.1,3.4-3.1s3.4,1.4,3.4,3.1ZM95.6,212.8c-1.4,2-3.4,2-4.3,1.4-.9-.9-.3-2.8.9-4.3h0c1.1-1.4,2.6-2.3,3.4-1.4.9.6,1.1,2.8,0,4.3ZM97,208.6c-1.1.6-2.3-6.2-.9-5.7,2.8,1.1,2.3,4.5.9,5.7Z" />
          </g>
        </g>
      </g>
      <g
         id="g7332">
        <rect
           id="rect7330"
           class="st0"
           x="63.6"
           y="227"
           width="32"
           height="6.8" />
      </g>
    </g>
    <g
       id="g7464">
      <g
         id="connector0pin">
        <circle
           id="circle7335"
           class="st0"
           cx="12.9"
           cy="27.1"
           r="3.3" />
      </g>
      <g
         id="connector1pin">
        <circle
           id="circle7338"
           class="st0"
           cx="12.9"
           cy="47.5"
           r="3.3" />
      </g>
      <g
         id="connector2pin">
        <circle
           id="circle7341"
           class="st0"
           cx="12.9"
           cy="67.9"
           r="3.3" />
      </g>
      <g
         id="connector3pin">
        <circle
           id="circle7344"
           class="st0"
           cx="12.9"
           cy="88.3"
           r="3.3" />
      </g>
      <g
         id="connector4pin">
        <circle
           id="circle7347"
           class="st0"
           cx="12.9"
           cy="108.7"
           r="3.3" />
      </g>
      <g
         id="connector5pin">
        <circle
           id="circle7350"
           class="st0"
           cx="12.9"
           cy="129.1"
           r="3.3" />
      </g>
      <g
         id="connector6pin">
        <circle
           id="circle7353"
           class="st0"
           cx="12.9"
           cy="149.5"
           r="3.3" />
      </g>
      <g
         id="connector7pin">
        <circle
           id="circle7356"
           class="st0"
           cx="12.9"
           cy="169.9"
           r="3.3" />
      </g>
      <g
         id="connector8pin">
        <circle
           id="circle7359"
           class="st0"
           cx="12.9"
           cy="190.3"
           r="3.3" />
      </g>
      <g
         id="connector9pin">
        <circle
           id="circle7362"
           class="st0"
           cx="12.9"
           cy="210.7"
           r="3.3" />
      </g>
      <g
         id="connector10pin">
        <circle
           id="circle7365"
           class="st0"
           cx="12.9"
           cy="231.1"
           r="3.3" />
      </g>
      <g
         id="connector11pin">
        <circle
           id="circle7368"
           class="st0"
           cx="12.9"
           cy="251.6"
           r="3.3" />
      </g>
      <g
         id="connector12pin">
        <circle
           id="circle7371"
           class="st0"
           cx="12.9"
           cy="272"
           r="3.3" />
      </g>
      <g
         id="connector13pin">
        <circle
           id="circle7374"
           class="st0"
           cx="12.9"
           cy="292.4"
           r="3.3" />
      </g>
      <g
         id="connector14pin">
        <circle
           id="circle7377"
           class="st0"
           cx="12.9"
           cy="312.8"
           r="3.3" />
      </g>
      <g
         id="connector15pin">
        <circle
           id="circle7380"
           class="st0"
           cx="12.9"
           cy="333.2"
           r="3.3" />
      </g>
      <g
         id="connector16pin">
        <circle
           id="circle7383"
           class="st0"
           cx="12.9"
           cy="353.6"
           r="3.3" />
      </g>
      <g
         id="connector17pin">
        <circle
           id="circle7386"
           class="st0"
           cx="12.9"
           cy="374"
           r="3.3" />
      </g>
      <g
         id="connector18pin">
        <circle
           id="circle7389"
           class="st0"
           cx="12.9"
           cy="394.4"
           r="3.3" />
      </g>
      <g
         id="connector19pin">
        <circle
           id="circle7392"
           class="st0"
           cx="12.9"
           cy="414.8"
           r="3.3" />
      </g>
      <g
         id="connector20pin">
        <circle
           id="circle7395"
           class="st0"
           cx="155.7"
           cy="414.8"
           r="3.3" />
      </g>
      <g
         id="connector21pin">
        <circle
           id="circle7398"
           class="st0"
           cx="155.7"
           cy="394.4"
           r="3.3" />
      </g>
      <g
         id="connector22pin">
        <circle
           id="circle7401"
           class="st0"
           cx="155.7"
           cy="374"
           r="3.3" />
      </g>
      <g
         id="connector23pin">
        <circle
           id="circle7404"
           class="st0"
           cx="155.7"
           cy="353.6"
           r="3.3" />
      </g>
      <g
         id="connector24pin">
        <circle
           id="circle7407"
           class="st0"
           cx="155.7"
           cy="333.2"
           r="3.3" />
      </g>
      <g
         id="connector25pin">
        <circle
           id="circle7410"
           class="st0"
           cx="155.7"
           cy="312.8"
           r="3.3" />
      </g>
      <g
         id="connector26pin">
        <circle
           id="circle7413"
           class="st0"
           cx="155.7"
           cy="292.4"
           r="3.3" />
      </g>
      <g
         id="connector27pin">
        <circle
           id="circle7416"
           class="st0"
           cx="155.7"
           cy="272"
           r="3.3" />
      </g>
      <g
         id="connector28pin">
        <circle
           id="circle7419"
           class="st0"
           cx="155.7"
           cy="251.6"
           r="3.3" />
      </g>
      <g
         id="connector29pin">
        <circle
           id="circle7422"
           class="st0"
           cx="155.7"
           cy="231.1"
           r="3.3" />
      </g>
      <g
         id="connector30pin">
        <circle
           id="circle7425"
           class="st0"
           cx="155.7"
           cy="210.7"
           r="3.3" />
      </g>
      <g
         id="connector31pin">
        <circle
           id="circle7428"
           class="st0"
           cx="155.7"
           cy="190.3"
           r="3.3" />
      </g>
      <g
         id="connector32pin">
        <circle
           id="circle7431"
           class="st0"
           cx="155.7"
           cy="169.9"
           r="3.3" />
      </g>
      <g
         id="connector33pin">
        <circle
           id="circle7434"
           class="st0"
           cx="155.7"
           cy="149.5"
           r="3.3" />
      </g>
      <g
         id="connector34pin">
        <circle
           id="circle7437"
           class="st0"
           cx="155.7"
           cy="129.1"
           r="3.3" />
      </g>
      <g
         id="connector35pin">
        <circle
           id="circle7440"
           class="st0"
           cx="155.7"
           cy="108.7"
           r="3.3" />
      </g>
      <g
         id="connector36pin">
        <circle
           id="circle7443"
           class="st0"
           cx="155.7"
           cy="88.3"
           r="3.3" />
      </g>
      <g
         id="connector37pin">
        <circle
           id="circle7446"
           class="st0"
           cx="155.7"
           cy="67.9"
           r="3.3" />
      </g>
      <g
         id="connector38pin">
        <circle
           id="circle7449"
           class="st0"
           cx="155.7"
           cy="47.5"
           r="3.3" />
      </g>
      <g
         id="connector39pin">
        <circle
           id="circle7452"
           class="st0"
           cx="155.7"
           cy="27.1"
           r="3.3" />
      </g>
      <g
         id="connector40pin">
        <path
           id="path7455"
           class="st0"
           d="M63.9,418.1c-1.8,0-3.3-1.5-3.3-3.3" />
      </g>
      <g
         id="connector41pin">
        <path
           id="path7458"
           class="st0"
           d="M87.5,414.8c0,1.8-1.5,3.3-3.3,3.3s-3.3-1.5-3.3-3.3" />
      </g>
      <g
         id="connector42pin">
        <path
           id="path7461"
           class="st0"
           d="M108,414.8c0,1.8-1.5,3.3-3.3,3.3s-3.3-1.5-3.3-3.3" />
      </g>
    </g>
    <g
       id="path227">
      <path
         id="path7466"
         class="st17"
         d="M18.5,47.5c0-3.1-2.5-5.6-5.6-5.6H0v2.2H0c1.9,0,3.4,1.5,3.4,3.4S1.9,50.9,0,50.9H0v2.2h12.9c3.1,0,5.6-2.5,5.6-5.6ZM12.9,50.9c-1.9,0-3.4-1.5-3.4-3.4s1.5-3.4,3.4-3.4,3.4,1.5,3.4,3.4-1.5,3.4-3.4,3.4Z" />
    </g>
    <g
       id="path41">
      <path
         id="path7469"
         class="st17"
         d="M18.5,62.3H0v2.2H0c1.9,0,3.4,1.5,3.4,3.4S1.9,71.3,0,71.3H0v2.2h18.5v-11.2ZM12.9,71.3c-1.9,0-3.4-1.5-3.4-3.4s1.5-3.4,3.4-3.4,3.4,1.5,3.4,3.4-1.5,3.4-3.4,3.4Z" />
    </g>
    <g
       id="path230">
      <path
         id="path7472"
         class="st17"
         d="M18.5,88.3c0-3.1-2.5-5.6-5.6-5.6H0v2.2H0c1.9,0,3.4,1.5,3.4,3.4S1.9,91.7,0,91.7H0v2.2h12.9c3.1,0,5.6-2.5,5.6-5.6ZM12.9,91.7c-1.9,0-3.4-1.5-3.4-3.4s1.5-3.4,3.4-3.4,3.4,1.5,3.4,3.4-1.5,3.4-3.4,3.4Z" />
    </g>
    <g
       id="path39">
      <path
         id="path7475"
         class="st17"
         d="M18.5,108.7c0-3.1-2.5-5.6-5.6-5.6H0v2.2H0c1.9,0,3.4,1.5,3.4,3.4S1.9,112.1,0,112.1H0v2.2h12.9c3.1,0,5.6-2.5,5.6-5.6ZM12.9,112.1c-1.9,0-3.4-1.5-3.4-3.4s1.5-3.4,3.4-3.4,3.4,1.5,3.4,3.4-1.5,3.4-3.4,3.4Z" />
    </g>
    <g
       id="path233">
      <path
         id="path7478"
         class="st17"
         d="M18.5,129.1c0-3.1-2.5-5.6-5.6-5.6H0v2.2H0c1.9,0,3.4,1.5,3.4,3.4S1.9,132.5,0,132.5H0v2.2h12.9c3.1,0,5.6-2.5,5.6-5.6ZM12.9,132.5c-1.9,0-3.4-1.5-3.4-3.4s1.5-3.4,3.4-3.4,3.4,1.5,3.4,3.4-1.5,3.4-3.4,3.4Z" />
    </g>
    <g
       id="path37">
      <path
         id="path7481"
         class="st17"
         d="M18.5,149.5c0-3.1-2.5-5.6-5.6-5.6H0v2.2H0c1.9,0,3.4,1.5,3.4,3.4S1.9,152.9,0,152.9H0v2.2h12.9c3.1,0,5.6-2.5,5.6-5.6ZM12.9,152.9c-1.9,0-3.4-1.5-3.4-3.4s1.5-3.4,3.4-3.4,3.4,1.5,3.4,3.4-1.5,3.4-3.4,3.4Z" />
    </g>
    <g
       id="path236">
      <path
         id="path7484"
         class="st17"
         d="M18.5,164.3H0v2.2H0c1.9,0,3.4,1.5,3.4,3.4S1.9,173.3,0,173.3H0v2.2h18.5v-11.2ZM12.9,173.3c-1.9,0-3.4-1.5-3.4-3.4s1.5-3.4,3.4-3.4,3.4,1.5,3.4,3.4-1.5,3.4-3.4,3.4Z" />
    </g>
    <g
       id="path35">
      <path
         id="path7487"
         class="st17"
         d="M18.5,190.3c0-3.1-2.5-5.6-5.6-5.6H0v2.2H0c1.9,0,3.4,1.5,3.4,3.4S1.9,193.7,0,193.7H0v2.2h12.9c3.1,0,5.6-2.5,5.6-5.6ZM12.9,193.7c-1.9,0-3.4-1.5-3.4-3.4s1.5-3.4,3.4-3.4,3.4,1.5,3.4,3.4-1.5,3.4-3.4,3.4Z" />
    </g>
    <g
       id="path239">
      <path
         id="path7490"
         class="st17"
         d="M18.5,210.7c0-3.1-2.5-5.6-5.6-5.6H0v2.2H0c1.9,0,3.4,1.5,3.4,3.4S1.9,214.2,0,214.2H0v2.2h12.9c3.1,0,5.6-2.5,5.6-5.6ZM12.9,214.1c-1.9,0-3.4-1.5-3.4-3.4s1.5-3.4,3.4-3.4,3.4,1.5,3.4,3.4-1.5,3.4-3.4,3.4Z" />
    </g>
    <g
       id="path33">
      <path
         id="path7493"
         class="st17"
         d="M18.5,231.1c0-3.1-2.5-5.6-5.6-5.6H0v2.2H0c1.9,0,3.4,1.5,3.4,3.4S1.9,234.6,0,234.6H0v2.2h12.9c3.1,0,5.6-2.5,5.6-5.6ZM12.9,234.5c-1.9,0-3.4-1.5-3.4-3.4s1.5-3.4,3.4-3.4,3.4,1.5,3.4,3.4-1.5,3.4-3.4,3.4Z" />
    </g>
    <g
       id="path242">
      <path
         id="path7496"
         class="st17"
         d="M18.5,251.5c0-3.1-2.5-5.6-5.6-5.6H0v2.2H0c1.9,0,3.4,1.5,3.4,3.4S1.9,255,0,255H0v2.2h12.9c3.1,0,5.6-2.5,5.6-5.6ZM12.9,254.9c-1.9,0-3.4-1.5-3.4-3.4s1.5-3.4,3.4-3.4,3.4,1.5,3.4,3.4-1.5,3.4-3.4,3.4Z" />
    </g>
    <g
       id="path31">
      <path
         id="path7499"
         class="st17"
         d="M18.5,266.3H0v2.2H0c1.9,0,3.4,1.5,3.4,3.4S1.9,275.4,0,275.4H0v2.2h18.5v-11.2ZM12.9,275.3c-1.9,0-3.4-1.5-3.4-3.4s1.5-3.4,3.4-3.4,3.4,1.5,3.4,3.4-1.5,3.4-3.4,3.4Z" />
    </g>
    <g
       id="path245">
      <path
         id="path7502"
         class="st17"
         d="M18.5,292.4c0-3.1-2.5-5.6-5.6-5.6H0v2.2H0c1.9,0,3.4,1.5,3.4,3.4S1.9,295.8,0,295.8H0v2.2h12.9c3.1,0,5.6-2.5,5.6-5.6ZM12.9,295.7c-1.9,0-3.4-1.5-3.4-3.4s1.5-3.4,3.4-3.4,3.4,1.5,3.4,3.4-1.5,3.4-3.4,3.4Z" />
    </g>
    <g
       id="path29">
      <path
         id="path7505"
         class="st17"
         d="M18.5,312.8c0-3.1-2.5-5.6-5.6-5.6H0v2.2H0c1.9,0,3.4,1.5,3.4,3.4S1.9,316.2,0,316.2H0v2.2h12.9c3.1,0,5.6-2.5,5.6-5.6ZM12.9,316.2c-1.9,0-3.4-1.5-3.4-3.4s1.5-3.4,3.4-3.4,3.4,1.5,3.4,3.4-1.5,3.4-3.4,3.4Z" />
    </g>
    <g
       id="path248">
      <path
         id="path7508"
         class="st17"
         d="M18.5,333.2c0-3.1-2.5-5.6-5.6-5.6H0v2.2H0c1.9,0,3.4,1.5,3.4,3.4S1.9,336.6,0,336.6H0v2.2h12.9c3.1,0,5.6-2.5,5.6-5.6ZM12.9,336.6c-1.9,0-3.4-1.5-3.4-3.4s1.5-3.4,3.4-3.4,3.4,1.5,3.4,3.4-1.5,3.4-3.4,3.4Z" />
    </g>
    <g
       id="path27">
      <path
         id="path7511"
         class="st17"
         d="M18.5,353.6c0-3.1-2.5-5.6-5.6-5.6H0v2.2H0c1.9,0,3.4,1.5,3.4,3.4S1.9,357,0,357H0v2.2h12.9c3.1,0,5.6-2.5,5.6-5.6ZM12.9,357c-1.9,0-3.4-1.5-3.4-3.4s1.5-3.4,3.4-3.4,3.4,1.5,3.4,3.4-1.5,3.4-3.4,3.4Z" />
    </g>
    <g
       id="path251">
      <path
         id="path7514"
         class="st17"
         d="M18.5,368.4H0v2.2H0c1.9,0,3.4,1.5,3.4,3.4S1.9,377.4,0,377.4H0v2.2h18.5v-11.2ZM12.9,377.4c-1.9,0-3.4-1.5-3.4-3.4s1.5-3.4,3.4-3.4,3.4,1.5,3.4,3.4-1.5,3.4-3.4,3.4Z" />
    </g>
    <g
       id="path25">
      <path
         id="path7517"
         class="st17"
         d="M18.5,394.4c0-3.1-2.5-5.6-5.6-5.6H0v2.2H0c1.9,0,3.4,1.5,3.4,3.4S1.9,397.8,0,397.8H0v2.2h12.9c3.1,0,5.6-2.5,5.6-5.6ZM12.9,397.8c-1.9,0-3.4-1.5-3.4-3.4s1.5-3.4,3.4-3.4,3.4,1.5,3.4,3.4-1.5,3.4-3.4,3.4Z" />
    </g>
    <g
       id="path254">
      <path
         id="path7520"
         class="st17"
         d="M18.5,414.8c0-3.1-2.5-5.6-5.6-5.6H0v2.2H0c1.9,0,3.4,1.5,3.4,3.4S1.9,418.2,0,418.2H0v2.2h12.9c3.1,0,5.6-2.5,5.6-5.6ZM12.9,418.2c-1.9,0-3.4-1.5-3.4-3.4s1.5-3.4,3.4-3.4,3.4,1.5,3.4,3.4-1.5,3.4-3.4,3.4Z" />
    </g>
    <g
       id="path2">
      <path
         id="path7523"
         class="st17"
         d="M155.8,53.1h12.9v-2.2h0c-1.9,0-3.4-1.5-3.4-3.4s1.5-3.4,3.4-3.4h0v-2.2h-12.9c-3.1,0-5.6,2.5-5.6,5.6s2.5,5.6,5.6,5.6ZM152.4,47.5c0-1.9,1.5-3.4,3.4-3.4s3.4,1.5,3.4,3.4-1.5,3.4-3.4,3.4-3.4-1.5-3.4-3.4Z" />
    </g>
    <g
       id="path3">
      <path
         id="path7526"
         class="st17"
         d="M150.2,73.5h18.5v-2.2h0c-1.9,0-3.4-1.5-3.4-3.4s1.5-3.4,3.4-3.4h0v-2.2h-18.5v11.2ZM152.4,67.9c0-1.9,1.5-3.4,3.4-3.4s3.4,1.5,3.4,3.4-1.5,3.4-3.4,3.4-3.4-1.5-3.4-3.4Z" />
    </g>
    <g
       id="path258">
      <path
         id="path7529"
         class="st17"
         d="M155.8,93.9h12.9v-2.2h0c-1.9,0-3.4-1.5-3.4-3.4s1.5-3.4,3.4-3.4h0v-2.2h-12.9c-3.1,0-5.6,2.5-5.6,5.6s2.5,5.6,5.6,5.6ZM152.4,88.3c0-1.9,1.5-3.4,3.4-3.4s3.4,1.5,3.4,3.4-1.5,3.4-3.4,3.4-3.4-1.5-3.4-3.4Z" />
    </g>
    <g
       id="path5">
      <path
         id="path7532"
         class="st17"
         d="M155.8,114.3h12.9v-2.2h0c-1.9,0-3.4-1.5-3.4-3.4s1.5-3.4,3.4-3.4h0v-2.2h-12.9c-3.1,0-5.6,2.5-5.6,5.6s2.5,5.6,5.6,5.6ZM152.4,108.7c0-1.9,1.5-3.4,3.4-3.4s3.4,1.5,3.4,3.4-1.5,3.4-3.4,3.4-3.4-1.5-3.4-3.4Z" />
    </g>
    <g
       id="path261">
      <path
         id="path7535"
         class="st17"
         d="M155.8,134.7h12.9v-2.2h0c-1.9,0-3.4-1.5-3.4-3.4s1.5-3.4,3.4-3.4h0v-2.2h-12.9c-3.1,0-5.6,2.5-5.6,5.6s2.5,5.6,5.6,5.6ZM152.4,129.1c0-1.9,1.5-3.4,3.4-3.4s3.4,1.5,3.4,3.4-1.5,3.4-3.4,3.4-3.4-1.5-3.4-3.4Z" />
    </g>
    <g
       id="path7">
      <path
         id="path7538"
         class="st17"
         d="M155.8,155.1h12.9v-2.2h0c-1.9,0-3.4-1.5-3.4-3.4s1.5-3.4,3.4-3.4h0v-2.2h-12.9c-3.1,0-5.6,2.5-5.6,5.6s2.5,5.6,5.6,5.6ZM152.4,149.5c0-1.9,1.5-3.4,3.4-3.4s3.4,1.5,3.4,3.4-1.5,3.4-3.4,3.4-3.4-1.5-3.4-3.4Z" />
    </g>
    <g
       id="path264">
      <path
         id="path7541"
         class="st17"
         d="M150.2,175.5h18.5v-2.2h0c-1.9,0-3.4-1.5-3.4-3.4s1.5-3.4,3.4-3.4h0v-2.2h-18.5v11.2ZM152.4,169.9c0-1.9,1.5-3.4,3.4-3.4s3.4,1.5,3.4,3.4-1.5,3.4-3.4,3.4-3.4-1.5-3.4-3.4Z" />
    </g>
    <g
       id="path9">
      <path
         id="path7544"
         class="st17"
         d="M155.8,195.9h12.9v-2.2h0c-1.9,0-3.4-1.5-3.4-3.4s1.5-3.4,3.4-3.4h0v-2.2h-12.9c-3.1,0-5.6,2.5-5.6,5.6s2.5,5.6,5.6,5.6ZM152.4,190.3c0-1.9,1.5-3.4,3.4-3.4s3.4,1.5,3.4,3.4-1.5,3.4-3.4,3.4-3.4-1.5-3.4-3.4Z" />
    </g>
    <g
       id="path10">
      <path
         id="path7547"
         class="st17"
         d="M155.8,216.3h12.9v-2.2h0c-1.9,0-3.4-1.5-3.4-3.4s1.5-3.4,3.4-3.4h0v-2.2h-12.9c-3.1,0-5.6,2.5-5.6,5.6s2.5,5.6,5.6,5.6ZM152.4,210.7c0-1.9,1.5-3.4,3.4-3.4s3.4,1.5,3.4,3.4-1.5,3.4-3.4,3.4-3.4-1.5-3.4-3.4Z" />
    </g>
    <g
       id="path11">
      <path
         id="path7550"
         class="st17"
         d="M155.8,236.7h12.9v-2.2h0c-1.9,0-3.4-1.5-3.4-3.4s1.5-3.4,3.4-3.4h0v-2.2h-12.9c-3.1,0-5.6,2.5-5.6,5.6s2.5,5.6,5.6,5.6h0ZM152.4,231.1c0-1.9,1.5-3.4,3.4-3.4s3.4,1.5,3.4,3.4-1.5,3.4-3.4,3.4-3.4-1.5-3.4-3.4Z" />
    </g>
    <g
       id="path269">
      <path
         id="path7553"
         class="st17"
         d="M155.8,257.1h12.9v-2.2h0c-1.9,0-3.4-1.5-3.4-3.4s1.5-3.4,3.4-3.4h0v-2.2h-12.9c-3.1,0-5.6,2.5-5.6,5.6s2.5,5.6,5.6,5.6ZM152.4,251.5c0-1.9,1.5-3.4,3.4-3.4s3.4,1.5,3.4,3.4-1.5,3.4-3.4,3.4-3.4-1.5-3.4-3.4Z" />
    </g>
    <g
       id="path13">
      <path
         id="path7556"
         class="st17"
         d="M150.2,277.5h18.5v-2.2h0c-1.9,0-3.4-1.5-3.4-3.4s1.5-3.4,3.4-3.4h0v-2.2h-18.5v11.2ZM152.4,271.9c0-1.9,1.5-3.4,3.4-3.4s3.4,1.5,3.4,3.4-1.5,3.4-3.4,3.4-3.4-1.5-3.4-3.4Z" />
    </g>
    <g
       id="path272">
      <path
         id="path7559"
         class="st17"
         d="M155.8,298h12.9v-2.2h0c-1.9,0-3.4-1.5-3.4-3.4s1.5-3.4,3.4-3.4h0v-2.2h-12.9c-3.1,0-5.6,2.5-5.6,5.6s2.5,5.6,5.6,5.6ZM152.4,292.4c0-1.9,1.5-3.4,3.4-3.4s3.4,1.5,3.4,3.4-1.5,3.4-3.4,3.4-3.4-1.5-3.4-3.4Z" />
    </g>
    <g
       id="path15">
      <path
         id="path7562"
         class="st17"
         d="M155.8,318.4h12.9v-2.2h0c-1.9,0-3.4-1.5-3.4-3.4s1.5-3.4,3.4-3.4h0v-2.2h-12.9c-3.1,0-5.6,2.5-5.6,5.6s2.5,5.6,5.6,5.6ZM152.4,312.8c0-1.9,1.5-3.4,3.4-3.4s3.4,1.5,3.4,3.4-1.5,3.4-3.4,3.4-3.4-1.5-3.4-3.4Z" />
    </g>
    <g
       id="path275">
      <path
         id="path7565"
         class="st17"
         d="M155.8,338.8h12.9v-2.2h0c-1.9,0-3.4-1.5-3.4-3.4s1.5-3.4,3.4-3.4h0v-2.2h-12.9c-3.1,0-5.6,2.5-5.6,5.6s2.5,5.6,5.6,5.6ZM152.4,333.2c0-1.9,1.5-3.4,3.4-3.4s3.4,1.5,3.4,3.4-1.5,3.4-3.4,3.4-3.4-1.5-3.4-3.4Z" />
    </g>
    <g
       id="path17">
      <path
         id="path7568"
         class="st17"
         d="M155.8,359.2h12.9v-2.2h0c-1.9,0-3.4-1.5-3.4-3.4s1.5-3.4,3.4-3.4h0v-2.2h-12.9c-3.1,0-5.6,2.5-5.6,5.6s2.5,5.6,5.6,5.6ZM152.4,353.6c0-1.9,1.5-3.4,3.4-3.4s3.4,1.5,3.4,3.4-1.5,3.4-3.4,3.4-3.4-1.5-3.4-3.4Z" />
    </g>
    <g
       id="path278">
      <path
         id="path7571"
         class="st17"
         d="M150.2,379.6h18.5v-2.2h0c-1.9,0-3.4-1.5-3.4-3.4s1.5-3.4,3.4-3.4h0v-2.2h-18.5v11.2ZM152.4,374c0-1.9,1.5-3.4,3.4-3.4s3.4,1.5,3.4,3.4-1.5,3.4-3.4,3.4-3.4-1.5-3.4-3.4Z" />
    </g>
    <g
       id="path19">
      <path
         id="path7574"
         class="st17"
         d="M155.8,400h12.9v-2.2h0c-1.9,0-3.4-1.5-3.4-3.4s1.5-3.4,3.4-3.4h0v-2.2h-12.9c-3.1,0-5.6,2.5-5.6,5.6s2.5,5.6,5.6,5.6ZM152.4,394.4c0-1.9,1.5-3.4,3.4-3.4s3.4,1.5,3.4,3.4-1.5,3.4-3.4,3.4-3.4-1.5-3.4-3.4Z" />
    </g>
    <g
       id="path281">
      <path
         id="path7577"
         class="st17"
         d="M155.8,420.4h12.9v-2.2h0c-1.9,0-3.4-1.5-3.4-3.4s1.5-3.4,3.4-3.4h0v-2.2h-12.9c-3.1,0-5.6,2.5-5.6,5.6s2.5,5.6,5.6,5.6ZM152.4,414.8c0-1.9,1.5-3.4,3.4-3.4s3.4,1.5,3.4,3.4-1.5,3.4-3.4,3.4-3.4-1.5-3.4-3.4Z" />
    </g>
    <g
       id="path1">
      <path
         id="path7580"
         class="st17"
         d="M155.8,32.6h12.9v-2.2h0c-1.9,0-3.4-1.5-3.4-3.4s1.5-3.4,3.4-3.4h0v-2.2h-12.9c-3.1,0-5.6,2.5-5.6,5.6s2.5,5.6,5.6,5.6ZM152.4,27.1c0-1.9,1.5-3.4,3.4-3.4s3.4,1.5,3.4,3.4-1.5,3.4-3.4,3.4-3.4-1.5-3.4-3.4Z" />
    </g>
    <g
       id="path43">
      <path
         id="path7583"
         class="st17"
         d="M18.5,27.1c0-3.1-2.5-5.6-5.6-5.6H0v2.2H0c1.9,0,3.4,1.5,3.4,3.4S1.9,30.5,0,30.5H0v2.2h12.9c3.1,0,5.6-2.5,5.6-5.6ZM12.9,30.4c-1.9,0-3.4-1.5-3.4-3.4s1.5-3.4,3.4-3.4,3.4,1.5,3.4,3.4-1.5,3.4-3.4,3.4Z" />
    </g>
    <path
       id="path7586"
       class="st17"
       d="M83.4,261.1v11.3h11.3v-11.3h-11.3ZM89.1,270.2c-2,0-3.4-1.4-3.4-3.4s1.4-3.4,3.4-3.4,3.4,1.4,3.4,3.4c-.3,2-1.7,3.4-3.4,3.4Z" />
    <path
       id="path7588"
       class="st17"
       d="M109.5,261.1c-3.1,0-5.7,2.6-5.7,5.7s2.6,5.7,5.7,5.7,5.7-2.6,5.7-5.7-2.8-5.7-5.7-5.7ZM109.5,270.2c-2,0-3.4-1.4-3.4-3.4s1.4-3.4,3.4-3.4,3.4,1.4,3.4,3.4c-.3,2-1.7,3.4-3.4,3.4Z" />
    <path
       id="path7590"
       class="st17"
       d="M129.9,261.1c-3.1,0-5.7,2.6-5.7,5.7s2.6,5.7,5.7,5.7,5.7-2.6,5.7-5.7-2.8-5.7-5.7-5.7ZM129.9,270.2c-2,0-3.4-1.4-3.4-3.4s1.4-3.4,3.4-3.4,3.4,1.4,3.4,3.4c-.3,2-1.7,3.4-3.4,3.4Z" />
  </g>
</svg>
