<?xml version="1.0" encoding="UTF-8" standalone="no"?>
<svg
   id="svg2"
   version="1.1"
   viewBox="0 0 51 70.6"
   xmlns="http://www.w3.org/2000/svg"
   xmlns:svg="http://www.w3.org/2000/svg">
  <!-- Generator: Adobe Illustrator 29.2.1, SVG Export Plug-In . SVG Version: 2.1.0 Build 116)  -->
  <defs
     id="defs1">
    <style
       id="style1">
      .st0, .st1 {
        fill: none;
      }

      .st2 {
        stroke: #fff;
        stroke-width: .5px;
      }

      .st2, .st3, .st4, .st5, .st6, .st7, .st8, .st9, .st10, .st11, .st12 {
        isolation: isolate;
      }

      .st2, .st13 {
        fill: #e6e6e6;
      }

      .st2, .st1 {
        stroke-miterlimit: 10;
      }

      .st2, .st9, .st12 {
        opacity: .5;
      }

      .st14 {
        fill: #2c5aa0;
      }

      .st3 {
        opacity: .1;
      }

      .st4, .st10 {
        opacity: .2;
      }

      .st15 {
        fill: gray;
      }

      .st16 {
        fill: #001fff;
      }

      .st17 {
        fill: #4d4d4d;
      }

      .st18, .st9 {
        fill: #ccc;
      }

      .st19 {
        fill: #3d3d3d;
      }

      .st20 {
        fill: #303030;
      }

      .st6 {
        font-size: 3.4px;
      }

      .st6, .st7, .st8 {
        font-family: ArialMT, Arial;
      }

      .st6, .st7, .st8, .st10, .st11, .st12 {
        fill: #fff;
      }

      .st21 {
        fill: #852725;
      }

      .st22 {
        fill: #ebe713;
        fill-opacity: 0;
      }

      .st23 {
        fill: #666;
      }

      .st1 {
        stroke: #f7bd13;
        stroke-width: 1.4px;
      }

      .st7 {
        font-size: 2.9px;
      }

      .st24 {
        fill: red;
      }

      .st8 {
        font-size: 3.6px;
      }

      .st25 {
        fill: #1f1f1f;
      }

      .st26 {
        fill: #f2f2f2;
      }

      .st27 {
        fill: #00db2e;
      }

      .st28 {
        fill: #b3b3b3;
      }

      .st29 {
        fill: #8c8c8c;
      }

      .st30 {
        fill: #641d1c;
      }

      .st31 {
        fill: #333;
      }

      .st32 {
        fill: #dcdcdc;
      }

      .st33 {
        fill: #999;
      }

      .st11 {
        opacity: .6;
      }
    </style>
  </defs>
  <g
     id="g1">
    <path
       id="OF_pin29"
style="opacity:0;fill:#ebe713;fill-opacity:1"
       class="st22"
       d="M6.2,30c0,1.2-1,2.2-2.2,2.2s-2.2-1-2.2-2.2.9-2.2,2.2-2.2,2.2.9,2.3,2.1" />
    <path
       id="OF_pin28"
style="opacity:0;fill:#ebe713;fill-opacity:1"
       class="st22"
       d="M6.1,37.2c0,1.2-1,2.2-2.2,2.2s-2.2-1-2.2-2.2.9-2.2,2.2-2.2,2.2.9,2.3,2.1" />
    <path
       id="OF_pin27"
style="opacity:0;fill:#ebe713;fill-opacity:1"
       class="st22"
       d="M6.2,44.4c0,1.2-1,2.2-2.2,2.2s-2.2-1-2.2-2.2.9-2.2,2.2-2.2,2.2.9,2.3,2.1" />
    <path
       id="OF_pin26"
style="opacity:0;fill:#ebe713;fill-opacity:1"
       class="st22"
       d="M6.2,51.6c0,1.2-1,2.2-2.2,2.2s-2.2-1-2.2-2.2.9-2.2,2.2-2.2,2.2.9,2.3,2.1" />
    <path
       id="OF_pin15"
style="opacity:0;fill:#ebe713;fill-opacity:1"
       class="st22"
       d="M6.2,58.8c0,1.2-1,2.2-2.2,2.2s-2.2-1-2.2-2.2.9-2.2,2.2-2.2,2.2.9,2.3,2.1" />
    <path
       id="OF_pin14"
style="opacity:0;fill:#ebe713;fill-opacity:1"
       class="st22"
       d="M6.2,66c0,1.2-1,2.2-2.2,2.2s-2.2-1-2.2-2.2.9-2.2,2.2-2.2,2.2.9,2.3,2.1" />
    <path
       id="OF_pin13"
style="opacity:0;fill:#ebe713;fill-opacity:1"
       class="st22"
       d="M13.4,66.1c0,1.2-1,2.2-2.2,2.2s-2.2-1-2.2-2.2.9-2.2,2.2-2.2,2.2.9,2.3,2.1" />
    <path
       id="OF_pin12"
style="opacity:0;fill:#ebe713;fill-opacity:1"
       class="st22"
       d="M20.6,66.1c0,1.2-1,2.2-2.2,2.2s-2.2-1-2.2-2.2.9-2.2,2.2-2.2,2.2.9,2.3,2.1" />
    <path
       id="OF_pin11"
style="opacity:0;fill:#ebe713;fill-opacity:1"
       class="st22"
       d="M27.7,66.1c0,1.2-1,2.2-2.2,2.2s-2.2-1-2.2-2.2.9-2.2,2.2-2.2,2.2.9,2.3,2.1" />
    <path
       id="OF_pin10"
style="opacity:0;fill:#ebe713;fill-opacity:1"
       class="st22"
       d="M35,66.1c0,1.2-1,2.2-2.2,2.2s-2.2-1-2.2-2.2.9-2.2,2.2-2.2,2.2.9,2.3,2.1" />
    <path
       id="OF_pin9"
style="opacity:0;fill:#ebe713;fill-opacity:1"
       class="st22"
       d="M42.2,66.1c0,1.2-1,2.2-2.2,2.2s-2.2-1-2.2-2.2.9-2.2,2.2-2.2,2.2.9,2.3,2.1" />
    <path
       id="OF_pin8"
style="opacity:0;fill:#ebe713;fill-opacity:1"
       class="st22"
       d="M49.4,66c0,1.2-1,2.2-2.2,2.2s-2.2-1-2.2-2.2.9-2.2,2.2-2.2,2.2.9,2.3,2.1" />
    <path
       id="OF_pin7"
style="opacity:0;fill:#ebe713;fill-opacity:1"
       class="st22"
       d="M49.3,58.8c0,1.2-1,2.2-2.2,2.2s-2.2-1-2.2-2.2.9-2.2,2.2-2.2,2.2.9,2.3,2.1" />
    <path
       id="OF_pin6"
style="opacity:0;fill:#ebe713;fill-opacity:1"
       class="st22"
       d="M49.4,51.6c0,1.2-1,2.2-2.2,2.2s-2.2-1-2.2-2.2.9-2.2,2.2-2.2,2.2.9,2.3,2.1" />
    <path
       id="OF_pin5"
style="opacity:0;fill:#ebe713;fill-opacity:1"
       class="st22"
       d="M49.3,44.4c0,1.2-1,2.2-2.2,2.2s-2.2-1-2.2-2.2.9-2.2,2.2-2.2,2.2.9,2.3,2.1" />
    <path
       id="OF_pin4"
style="opacity:0;fill:#ebe713;fill-opacity:1"
       class="st22"
       d="M49.4,37.2c0,1.2-1,2.2-2.2,2.2s-2.2-1-2.2-2.2.9-2.2,2.2-2.2,2.2.9,2.3,2.1" />
    <path
       id="OF_pin3"
style="opacity:0;fill:#ebe713;fill-opacity:1"
       class="st22"
       d="M49.4,30.1c0,1.2-1,2.2-2.2,2.2s-2.2-1-2.2-2.2.9-2.2,2.2-2.2,2.2.9,2.3,2.1" />
    <path
       id="OF_pin2"
style="opacity:0;fill:#ebe713;fill-opacity:1"
       class="st22"
       d="M49.3,22.9c0,1.2-1,2.2-2.2,2.2s-2.2-1-2.2-2.2.9-2.2,2.2-2.2,2.2.9,2.3,2.1" />
    <path
       id="OF_pin1"
style="opacity:0;fill:#ebe713;fill-opacity:1"
       class="st22"
       d="M49.3,15.7c0,1.2-1,2.2-2.2,2.2s-2.2-1-2.2-2.2.9-2.2,2.2-2.2,2.2.9,2.3,2.1" />
    <path
       id="OF_pin0"
style="opacity:0;fill:#ebe713;fill-opacity:1"
       class="st22"
       d="M49.3,8.5c0,1.2-1,2.2-2.2,2.2s-2.2-1-2.2-2.2.9-2.2,2.2-2.2,2.2.9,2.3,2.1" />
  </g>
  <g
     id="breadboard">
    <path
       class="st14"
       d="M49.2,4H1.9c-1,0-1.8.8-1.9,1.9v62.9c0,.9.8,1.9,1.9,1.9h47.3c1,0,1.9-.9,1.9-1.9V5.8c0-1-.7-1.8-1.9-1.9h0ZM4,68.2c-1.2,0-2.1-.9-2.1-2.1s.9-2.1,2.1-2.1,2.1.9,2.1,2.1-.9,2.1-2.1,2.1ZM4,61c-1.2,0-2.1-.9-2.1-2.1s.9-2.1,2.1-2.1,2.1.9,2.1,2.1-.9,2.1-2.1,2.1ZM4,53.8c-1.2,0-2.1-.9-2.1-2.1s.9-2.1,2.1-2.1,2.1.9,2.1,2.1-.9,2.1-2.1,2.1ZM4,46.6c-1.2,0-2.1-.9-2.1-2.1s.9-2.1,2.1-2.1,2.1.9,2.1,2.1-.9,2.1-2.1,2.1ZM4,39.4c-1.2,0-2.1-.9-2.1-2.1s.9-2.1,2.1-2.1,2.1.9,2.1,2.1-.9,2.1-2.1,2.1ZM4,32.2c-1.2,0-2.1-.9-2.1-2.1s.9-2.1,2.1-2.1,2.1.9,2.1,2.1-.9,2.1-2.1,2.1ZM4,25c-1.2,0-2.1-.9-2.1-2.1s.9-2.1,2.1-2.1,2.1.9,2.1,2.1-.9,2.1-2.1,2.1ZM4,17.8c-1.2,0-2.1-.9-2.1-2.1s.9-2.1,2.1-2.1,2.1.9,2.1,2.1-.9,2.1-2.1,2.1ZM4,10.6c-1.2,0-2.1-.9-2.1-2.1s.9-2.1,2.1-2.1,2.1.9,2.1,2.1-.9,2.1-2.1,2.1ZM11.2,68.2c-1.2,0-2.1-.9-2.1-2.1s.9-2.1,2.1-2.1,2.1.9,2.1,2.1-.9,2.1-2.1,2.1ZM18.4,68.2c-1.2,0-2.1-.9-2.1-2.1s.9-2.1,2.1-2.1,2.1.9,2.1,2.1-.9,2.1-2.1,2.1ZM25.6,68.2c-1.2,0-2.1-.9-2.1-2.1s.9-2.1,2.1-2.1,2.1.9,2.1,2.1-.9,2.1-2.1,2.1ZM32.8,68.2c-1.2,0-2.1-.9-2.1-2.1s.9-2.1,2.1-2.1,2.1.9,2.1,2.1-.9,2.1-2.1,2.1ZM40,68.2c-1.2,0-2.1-.9-2.1-2.1s.9-2.1,2.1-2.1,2.1.9,2.1,2.1-.9,2.1-2.1,2.1ZM47.2,68.2c-1.2,0-2.1-.9-2.1-2.1s.9-2.1,2.1-2.1,2.1.9,2.1,2.1-.9,2.1-2.1,2.1ZM45,22.9c0-1.2.9-2.1,2.1-2.1s2.1.9,2.1,2.1-.9,2.1-2.1,2.1-2.1-.9-2.1-2.1ZM47.2,61c-1.2,0-2.1-.9-2.1-2.1s.9-2.1,2.1-2.1,2.1.9,2.1,2.1-.9,2.1-2.1,2.1ZM47.2,53.8c-1.2,0-2.1-.9-2.1-2.1s.9-2.1,2.1-2.1,2.1.9,2.1,2.1-.9,2.1-2.1,2.1ZM47.2,46.6c-1.2,0-2.1-.9-2.1-2.1s.9-2.1,2.1-2.1,2.1.9,2.1,2.1-.9,2.1-2.1,2.1ZM47.2,39.4c-1.2,0-2.1-.9-2.1-2.1s.9-2.1,2.1-2.1,2.1.9,2.1,2.1-.9,2.1-2.1,2.1ZM47.2,32.2c-1.2,0-2.1-.9-2.1-2.1s.9-2.1,2.1-2.1,2.1.9,2.1,2.1-.9,2.1-2.1,2.1ZM47.2,17.8c-1.2,0-2.1-.9-2.1-2.1s.9-2.1,2.1-2.1,2.1.9,2.1,2.1-.9,2.1-2.1,2.1ZM47.2,10.6c-1.2,0-2.1-.9-2.1-2.1s.9-2.1,2.1-2.1,2.1.9,2.1,2.1-.9,2.1-2.1,2.1Z"
       id="path1" />
    <polyline
       id="polyline4"
       class="st4"
       points="23.2 44.6 27.6 44.6 28.2 45.1 28.2 49.6 23.2 49.6 23.2 44.6" />
    <polyline
       id="polyline6"
       class="st9"
       points="23 44.4 27.4 44.4 28 44.9 28 45.3 28 49.4 23 49.4 23 44.4" />
    <rect
       id="rect16-4"
       class="st29"
       x="23.6"
       y="45.2"
       width=".8"
       height=".4" />
    <rect
       id="rect18"
       class="st29"
       x="26.9"
       y="45.2"
       width=".8"
       height=".4" />
    <rect
       id="rect20-8"
       class="st29"
       x="26.9"
       y="48.5"
       width=".8"
       height=".4" />
    <rect
       id="rect22-0"
       class="st29"
       x="23.6"
       y="48.5"
       width=".8"
       height=".4" />
    <circle
       id="circle24"
       class="st29"
       cx="25.7"
       cy="47.1"
       r=".8" />
    <path
       id="path26"
       class="st29"
       d="M24.2,45.8v-.4h-.4v1.3l.5.2h.7v-.3l-.7-.9h0ZM24.1,46.4s-.1,0-.1,0,0,0,.1,0,.1,0,.1,0,0,0-.1,0Z" />
    <path
       id="path28"
       class="st29"
       d="M27.1,45.4v.7l-.5.4v.2h1v-1.4h-.5ZM27.3,46.4s-.1,0-.1,0,0,0,.1,0,.1,0,.1,0,0,0-.1,0Z" />
    <path
       id="path30"
       class="st29"
       d="M24.2,48.7v-.7l.5-.4v-.2h-1v1.4h.5ZM24.1,47.7s.1,0,.1,0,0,0-.1,0-.1,0-.1,0c0,0,0,0,.1,0Z" />
    <path
       id="path32"
       class="st29"
       d="M27.6,48.7v-1.4h-.9v.2l.5.4v.7h.4ZM27.4,47.8s0,0-.1,0-.1,0-.1,0,0,0,.1,0c0,0,.1,0,.1,0Z" />
    <polygon
       id="polygon34"
       class="st24"
       points="23.8 47.5 23.8 47.4 24.6 47.4 24.7 47.5 23.8 47.5" />
    <polygon
       id="polygon36"
       class="st16"
       points="26.6 47.5 27.6 47.5 27.6 47.4 26.7 47.4 26.6 47.5" />
    <polygon
       id="polygon38-4"
       class="st27"
       points="27.6 46.6 27.6 46.8 26.7 46.8 26.6 46.6 27.6 46.6" />
    <circle
       id="circle42"
       class="st2"
       cx="25.5"
       cy="46.9"
       r="1.6" />
    <path
       id="path44"
       class="st11"
       d="M25.3,45.9h.4v-.4h-.6v.4h.2ZM24.8,45.6c-.5.2-.8.7-.8,1.3s0,.2,0,.3h.4v-.3c0-.4.2-.7.5-.9l-.2-.4h.1Z" />
    <polygon
       id="polygon46-3"
       class="st4"
       points="28.2 45.1 28 44.9 28 49.4 23 49.4 23.2 49.6 28.2 49.6 28.2 45.1" />
    <polygon
       id="_x30_.1.15.0.0.0.0"
       class="st18"
       points="9.1 56.2 17.2 56.2 17.2 52 17 52 17 46.5 17.2 46.5 17.2 42.4 9.1 42.4 9.1 56.2" />
    <polygon
       id="_x30_.1.15.0.0.0.1"
       class="st18"
       points="15.8 42.4 7.8 42.4 7.8 46.5 8 46.5 8 52 7.8 52 7.8 56.2 15.8 56.2 15.8 42.4" />
    <ellipse
       id="_x30_.1.15.0.0.0.2"
       class="st30"
       cx="12.5"
       cy="49.3"
       rx="2.6"
       ry="3.4" />
    <path
       id="_x30_.1.15.0.0.0.3"
       class="st4"
       d="M12.4,45.9c-1.4,0-2.6,1.5-2.6,3.4s1.2,3.4,2.6,3.4h.1c-1.4,0-2.6-1.5-2.6-3.4s1.2-3.4,2.6-3.4h-.1Z" />
    <ellipse
       id="_x30_.1.15.0.0.0.4"
       class="st21"
       cx="12.5"
       cy="49.3"
       rx="2.5"
       ry="3.3" />
    <ellipse
       id="_x30_.1.15.0.0.0.5"
       class="st28"
       cx="12.6"
       cy="49.3"
       rx="2.5"
       ry="3.3" />
    <path
       id="_x30_.1.15.0.0.0.6.0"
       class="st3"
       d="M15,49.2c0-1.8-1.1-3.3-2.5-3.3s-2.5,1.5-2.5,3.3v.2c0-1.8,1.1-3.3,2.5-3.3s2.5,1.5,2.5,3.3v-.2Z" />
    <path
       id="_x30_.1.15.0.0.0.6.1"
       class="st10"
       d="M10,49.2c0,1.8,1.1,3.3,2.5,3.3s2.5-1.5,2.5-3.3v.2c0,1.8-1.1,3.3-2.5,3.3s-2.5-1.5-2.5-3.3v-.2Z" />
    <rect
       id="_x30_.1.15.0.0.0.7.0"
       class="st10"
       x="17"
       y="52"
       width=".2"
       height="4.2" />
    <rect
       id="_x30_.1.15.0.0.0.8.0"
       class="st10"
       x="17"
       y="42.4"
       width=".2"
       height="4.2" />
    <rect
       id="_x30_.1.15.0.0.0.9.0"
       class="st10"
       x="16.8"
       y="46.5"
       width=".2"
       height="5.5" />
    <rect
       id="_x30_.1.15.0.0.0.10.0"
       class="st4"
       x="7.8"
       y="52"
       width=".2"
       height="4.2" />
    <rect
       id="_x30_.1.15.0.0.0.11.0"
       class="st4"
       x="7.8"
       y="42.4"
       width=".2"
       height="4.2" />
    <rect
       id="_x30_.1.15.0.0.0.12.0"
       class="st4"
       x="8"
       y="46.5"
       width=".2"
       height="5.5" />
    <rect
       id="_x30_.1.15.0.1.0"
       class="st13"
       x="15"
       y="40.5"
       width="1.1"
       height="1.8" />
    <rect
       id="_x30_.1.15.0.1.3"
       class="st13"
       x="15"
       y="56.1"
       width="1.1"
       height="1.8" />
    <rect
       id="_x30_.1.15.0.1.4"
       class="st13"
       x="8.8"
       y="56.1"
       width="1.1"
       height="1.8" />
    <rect
       id="_x30_.1.15.0.1.6"
       class="st10"
       x="15"
       y="57.7"
       width="1.1"
       height=".2" />
    <rect
       id="_x30_.1.15.0.1.7"
       class="st10"
       x="8.8"
       y="57.7"
       width="1.1"
       height=".2" />
    <polygon
       id="_x30_.1.15.0.1.8"
       class="st4"
       points="15 40.5 16.1 40.5 16.1 40.5 15 40.5" />
    <rect
       id="_x30_.1.15.0.1.10"
       class="st3"
       x="15"
       y="42.1"
       width="1.1"
       height=".2" />
    <rect
       id="rect8"
       class="st23"
       x="27.8"
       y="20.9"
       width="1"
       height=".6" />
    <rect
       id="rect10"
       class="st33"
       x="28.7"
       y="21"
       height=".5" />
    <rect
       id="rect14"
       class="st23"
       x="25.9"
       y="20.9"
       width="1"
       height=".6" />
    <rect
       id="rect16"
       class="st33"
       x="26.8"
       y="21"
       height=".5" />
    <rect
       id="rect20"
       class="st23"
       x="24.1"
       y="20.9"
       width="1"
       height=".6" />
    <rect
       id="rect22"
       class="st33"
       x="25"
       y="21"
       height=".5" />
    <rect
       id="rect26"
       class="st23"
       x="22.3"
       y="20.9"
       width="1"
       height=".6" />
    <rect
       id="rect28"
       class="st33"
       x="23.2"
       y="21"
       height=".5" />
    <rect
       id="rect32"
       class="st23"
       x="20.4"
       y="20.9"
       width="1"
       height=".6" />
    <rect
       id="rect34"
       class="st33"
       x="21.3"
       y="21"
       height=".5" />
    <polygon
       id="polygon38"
       class="st28"
       points="34 21.2 15.2 21.2 15.2 2.4 15.2 .2 33.9 .2 34 2.2 34 21.2" />
    <polygon
       id="polygon40"
       class="st33"
       points="33.8 .3 32 .3 22.8 .3 25.9 3.7 33.8 3.7 33.8 .3" />
    <rect
       id="rect42"
       class="st23"
       x="13.1"
       y="11.5"
       width="1.8"
       height="3" />
    <rect
       id="rect44"
       class="st23"
       x="34.2"
       y="11.5"
       width="1.8"
       height="3" />
    <rect
       id="rect46"
       class="st18"
       x="15.2"
       y="21"
       width="18.8"
       height=".1" />
    <rect
       id="rect48"
       class="st31"
       x="19.4"
       y="2.8"
       width="10.3"
       height="18.4" />
    <rect
       id="rect50"
       class="st28"
       x="34.2"
       y="2.3"
       width="1"
       height="1.1" />
    <rect
       id="rect52"
       class="st18"
       x="34.2"
       y="2.3"
       width=".6"
       height="1.1" />
    <rect
       id="rect54"
       class="st28"
       x="14"
       y="2.3"
       width="1"
       height="1.1" />
    <rect
       id="rect56"
       class="st18"
       x="14.3"
       y="2.3"
       width=".6"
       height="1.1" />
    <rect
       id="rect58"
       class="st26"
       x="20.2"
       y="1.8"
       width=".5"
       height=".6" />
    <rect
       id="rect62"
       class="st26"
       x="22.3"
       y="1.8"
       width=".5"
       height=".6" />
    <rect
       id="rect66"
       class="st26"
       x="24.4"
       y="1.8"
       width=".5"
       height=".6" />
    <rect
       id="rect70"
       class="st26"
       x="26.4"
       y="1.8"
       width=".5"
       height=".6" />
    <rect
       id="rect74"
       class="st26"
       x="28.5"
       y="1.8"
       width=".5"
       height=".6" />
    <rect
       id="rect78"
       class="st15"
       x="28.9"
       y="1.8"
       height=".6" />
    <rect
       id="rect82"
       class="st15"
       x="26.8"
       y="1.8"
       height=".6" />
    <rect
       id="rect86"
       class="st15"
       x="24.7"
       y="1.8"
       height=".6" />
    <rect
       id="rect90"
       class="st15"
       x="22.6"
       y="1.8"
       height=".6" />
    <rect
       id="rect94"
       class="st15"
       x="20.6"
       y="1.8"
       height=".6" />
    <path
       id="path100"
       class="st17"
       d="M29.5,1.6h-.5v.4h-.5v-.4h-1.6v.4h-.5v-.4h-1.6v.4h-.5v-.4h-1.6v.4h-.5v-.4h-1.6v.4h-.5v-.4h-.6s-.1,0-.1.1v1.1s0,0,.1,0h10s.1,0,.1,0v-1.1s0-.1-.1-.1h0Z" />
    <path
       id="path102"
       class="st18"
       d="M34.2,20.6l-.2.6h-2.5s2.3-.1,2.4-.3c0-.2,0-.3,0-.3h.5-.1Z" />
    <path
       id="path104"
       class="st18"
       d="M15,20.6l.2.6h2.5s-2.3-.1-2.4-.3c0-.2.1-.3.1-.3h-.5,0Z" />
    <path
       id="path106"
       class="st18"
       d="M34.2,4.8V0H15v4.8h19.3,0ZM15.4.3h18.4v3.4H15.4V.3Z" />
    <path
       id="path108"
       class="st13"
       d="M18.3,20.6v-1.1h1.6v1.6h.5v-.6h8.4v.6h.5v-1.6h1.6v1.1h3.3V4.1H15v16.4h3.4-.1ZM29.3,7.3v-.8h1.6v.9c.4.3.7.8.7,1.3s-.2,1.1-.7,1.4h0v4.5h-1.6v-4.5c-.5-.3-.8-.8-.8-1.4s.3-1.1.8-1.4ZM18.4,7.3v-.8h1.6v.9c.4.3.7.8.7,1.3s-.2,1.1-.7,1.4h0v4.5h-1.6v-4.5c-.5-.3-.8-.8-.8-1.4s.3-1.1.8-1.4Z" />
    <polygon
       id="polygon110"
       class="st26"
       points="34.2 20.6 32.7 20.6 33.8 4.1 34.2 4.1 34.2 20.6" />
    <polygon
       id="polygon112"
       class="st33"
       points="16.1 20.6 15 20.6 15 4.1 15.5 15.1 16.1 20.6" />
    <rect
       id="rect114"
       class="st18"
       x="29.3"
       y="14.4"
       width="1.6"
       height=".1" />
    <rect
       id="rect116"
       class="st18"
       x="18.4"
       y="14.4"
       width="1.6"
       height=".1" />
    <rect
       id="rect118"
       class="st28"
       x="15.9"
       y="4.3"
       width="17.4"
       height=".7" />
    <rect
       id="rect120"
       class="st18"
       x="15.9"
       y="4.1"
       width="17.4"
       height=".3" />
    <polygon
       id="polygon767"
       class="st18"
       points="42.8 52 42.8 46.5 43 46.5 43 42.4 34.9 42.4 34.9 56.2 43 56.2 43 52 42.8 52" />
    <polygon
       id="polygon769"
       class="st18"
       points="33.8 46.5 33.8 52 33.6 52 33.6 56.2 41.6 56.2 41.6 42.4 33.6 42.4 33.6 46.5 33.8 46.5" />
    <ellipse
       id="ellipse771"
       class="st30"
       cx="38.3"
       cy="49.3"
       rx="2.6"
       ry="3.4" />
    <path
       id="path773"
       class="st4"
       d="M38.2,45.9c-1.4,0-2.6,1.5-2.6,3.4s1.2,3.4,2.6,3.4h0c-1.4,0-2.6-1.5-2.6-3.4s1.2-3.4,2.6-3.4h0Z" />
    <ellipse
       id="ellipse775"
       class="st21"
       cx="38.3"
       cy="49.3"
       rx="2.5"
       ry="3.3" />
    <ellipse
       id="ellipse777"
       class="st28"
       cx="38.3"
       cy="49.3"
       rx="2.5"
       ry="3.3" />
    <path
       id="path779"
       class="st3"
       d="M40.8,49.2c0-1.8-1.1-3.3-2.5-3.3s-2.5,1.5-2.5,3.3v.2c0-1.8,1.1-3.3,2.5-3.3s2.5,1.5,2.5,3.3v-.2Z" />
    <path
       id="path781"
       class="st10"
       d="M35.8,49.2c0,1.8,1.1,3.3,2.5,3.3s2.5-1.5,2.5-3.3v.2c0,1.8-1.1,3.3-2.5,3.3s-2.5-1.5-2.5-3.3v-.2Z" />
    <rect
       id="rect783"
       class="st10"
       x="42.8"
       y="52"
       width=".2"
       height="4.2" />
    <rect
       id="rect785"
       class="st10"
       x="42.8"
       y="42.4"
       width=".2"
       height="4.2" />
    <rect
       id="rect787"
       class="st10"
       x="42.6"
       y="46.5"
       width=".2"
       height="5.5" />
    <rect
       id="rect789"
       class="st4"
       x="33.6"
       y="52"
       width=".2"
       height="4.2" />
    <rect
       id="rect791"
       class="st4"
       x="33.6"
       y="42.4"
       width=".2"
       height="4.2" />
    <rect
       id="rect793"
       class="st4"
       x="33.8"
       y="46.5"
       width=".2"
       height="5.5" />
    <rect
       id="rect795"
       class="st13"
       x="40.8"
       y="40.5"
       width="1.1"
       height="1.8" />
    <rect
       id="rect797"
       class="st13"
       x="34.6"
       y="40.5"
       width="1.1"
       height="1.8" />
    <rect
       id="rect799"
       class="st13"
       x="40.8"
       y="56.1"
       width="1.1"
       height="1.8" />
    <rect
       id="rect801"
       class="st13"
       x="34.6"
       y="56.1"
       width="1.1"
       height="1.8" />
    <rect
       id="rect803"
       class="st10"
       x="40.8"
       y="57.7"
       width="1.1"
       height=".2" />
    <rect
       id="rect805"
       class="st10"
       x="34.6"
       y="57.7"
       width="1.1"
       height=".2" />
    <polygon
       id="rect807"
       class="st4"
       points="40.8 40.5 41.9 40.5 41.9 40.5 40.8 40.5" />
    <polygon
       id="rect809"
       class="st4"
       points="34.6 40.5 35.7 40.5 35.7 40.5 34.6 40.5" />
    <rect
       id="rect811"
       class="st3"
       x="40.8"
       y="42.1"
       width="1.1"
       height=".2" />
    <rect
       id="rect813"
       class="st3"
       x="34.6"
       y="42.1"
       width="1.1"
       height=".2" />
    <rect
       id="rect20-5"
       class="st29"
       x="20.7"
       y="36"
       width="2.3"
       height=".9" />
    <rect
       id="rect22-3"
       class="st29"
       x="20.7"
       y="37.4"
       width="2.3"
       height=".9" />
    <rect
       id="rect24"
       class="st29"
       x="20.7"
       y="38.7"
       width="2.3"
       height=".9" />
    <rect
       id="rect26-8"
       class="st29"
       x="20.7"
       y="40.1"
       width="2.3"
       height=".9" />
    <rect
       id="rect28-7"
       class="st29"
       x="27.6"
       y="40.1"
       width="2.3"
       height=".9" />
    <rect
       id="rect3806"
       class="st17"
       x="16"
       y="26.1"
       width="1.1"
       height="3" />
    <rect
       id="rect3808"
       class="st10"
       x="17.1"
       y="26.1"
       height="3" />
    <rect
       id="rect3810"
       class="st31"
       x="15.9"
       y="26.1"
       width=".3"
       height="3" />
    <rect
       id="rect3812"
       class="st4"
       x="15.9"
       y="26.1"
       height="3" />
    <path
       id="path3814"
       class="st32"
       d="M17.1,28.6h-.8v.5h.8v-.4h0Z" />
    <path
       id="path3816"
       class="st32"
       d="M17,26.5h0v-.5h-.8v.5h.8Z" />
    <path
       id="path3818"
       class="st33"
       d="M16.2,29.1v-.5h0v.5h0Z" />
    <path
       id="path3820"
       class="st33"
       d="M16.2,26.1v.5h0v-.5h0Z" />
    <rect
       id="rect3822"
       class="st4"
       x="15.9"
       y="26.1"
       height=".5" />
    <rect
       id="rect3824"
       class="st12"
       x="17.1"
       y="26.1"
       height=".5" />
    <rect
       id="rect3826"
       class="st4"
       x="15.9"
       y="28.6"
       height=".5" />
    <rect
       id="rect3828"
       class="st12"
       x="17.1"
       y="28.6"
       height=".5" />
    <line
       id="line3830"
       class="st0"
       x1="15.9"
       y1="26.4"
       x2="15.9"
       y2="26.4" />
    <polygon
       id="rect3832"
       class="st33"
       points="15.9 29 16.2 29 16.2 29 15.9 29" />
    <polygon
       id="rect3834"
       class="st33"
       points="15.9 26.1 16.2 26.1 16.2 26.1 15.9 26.1" />
    <rect
       id="rect30"
       class="st29"
       x="27.6"
       y="38.7"
       width="2.3"
       height=".9" />
    <rect
       id="rect32-9"
       class="st29"
       x="27.6"
       y="37.4"
       width="2.3"
       height=".9" />
    <rect
       id="rect34-0"
       class="st29"
       x="27.6"
       y="36"
       width="2.3"
       height=".9" />
    <rect
       id="rect36"
       class="st29"
       x="22.3"
       y="35.8"
       width="5.9"
       height="5.4" />
    <rect
       id="rect38"
       class="st20"
       x="21.4"
       y="34.7"
       width="7.9"
       height="7.1" />
    <polygon
       id="polygon40-7"
       class="st25"
       points="29.2 41.8 28.7 41.3 28.7 35.2 29.2 34.7 29.2 41.8" />
    <polygon
       id="polygon42"
       class="st25"
       points="21.4 41.8 22 41.3 22 35.2 21.4 34.7 21.4 41.8" />
    <polygon
       id="polygon44"
       points="21.4 34.7 22 35.2 28.7 35.2 29.2 34.7 21.4 34.7" />
    <polygon
       id="polygon46"
       class="st19"
       points="21.4 41.8 22 41.3 28.7 41.3 29.2 41.8 21.4 41.8" />
    <ellipse
       id="circle48"
       class="st25"
       cx="23.1"
       cy="36.3"
       rx=".6"
       ry=".5" />
    <rect
       id="rect923"
       class="st17"
       x="18.5"
       y="26.1"
       width="1.1"
       height="3" />
    <rect
       id="rect925"
       class="st10"
       x="19.6"
       y="26.1"
       height="3" />
    <rect
       id="rect927"
       class="st31"
       x="18.5"
       y="26.1"
       width=".3"
       height="3" />
    <rect
       id="rect929"
       class="st4"
       x="18.5"
       y="26.1"
       height="3" />
    <path
       id="path931"
       class="st32"
       d="M19.6,28.6h-.8v.5h.8v-.4h0Z" />
    <path
       id="path933"
       class="st32"
       d="M19.6,26.5h0v-.5h-.8v.5h.8Z" />
    <path
       id="path935"
       class="st33"
       d="M18.7,29.1v-.5h0v.5h0Z" />
    <path
       id="path937"
       class="st33"
       d="M18.7,26.1v.5h0v-.5h0Z" />
    <rect
       id="rect939"
       class="st4"
       x="18.5"
       y="26.1"
       height=".5" />
    <rect
       id="rect941"
       class="st12"
       x="19.6"
       y="26.1"
       height=".5" />
    <rect
       id="rect943"
       class="st4"
       x="18.5"
       y="28.6"
       height=".5" />
    <rect
       id="rect945"
       class="st12"
       x="19.6"
       y="28.6"
       height=".5" />
    <line
       id="line947"
       class="st0"
       x1="18.5"
       y1="26.4"
       x2="18.5"
       y2="26.4" />
    <polygon
       id="rect949"
       class="st33"
       points="18.5 29 18.8 29 18.8 29 18.5 29" />
    <polygon
       id="rect951"
       class="st33"
       points="18.5 26.1 18.8 26.1 18.8 26.1 18.5 26.1" />
    <rect
       id="rect955"
       class="st17"
       x="21.1"
       y="26.1"
       width="1.1"
       height="3" />
    <rect
       id="rect957"
       class="st10"
       x="22.2"
       y="26.1"
       height="3" />
    <rect
       id="rect959"
       class="st31"
       x="21"
       y="26.1"
       width=".3"
       height="3" />
    <rect
       id="rect961"
       class="st4"
       x="21"
       y="26.1"
       height="3" />
    <path
       id="path963"
       class="st32"
       d="M22.2,28.6h-.8v.5h.8v-.4h0Z" />
    <path
       id="path965"
       class="st32"
       d="M22.1,26.5h0v-.5h-.8v.5h.8Z" />
    <path
       id="path967"
       class="st33"
       d="M21.3,29.1v-.5h0v.5h0Z" />
    <path
       id="path969"
       class="st33"
       d="M21.3,26.1v.5h0v-.5h0Z" />
    <rect
       id="rect971"
       class="st4"
       x="21"
       y="26.1"
       height=".5" />
    <rect
       id="rect973"
       class="st12"
       x="22.2"
       y="26.1"
       height=".5" />
    <rect
       id="rect975"
       class="st4"
       x="21"
       y="28.6"
       height=".5" />
    <rect
       id="rect977"
       class="st12"
       x="22.2"
       y="28.6"
       height=".5" />
    <line
       id="line979"
       class="st0"
       x1="21"
       y1="26.4"
       x2="21"
       y2="26.4" />
    <polygon
       id="rect981"
       class="st33"
       points="21 29 21.3 29 21.3 29 21 29" />
    <polygon
       id="rect983"
       class="st33"
       points="21 26.1 21.3 26.1 21.3 26.1 21 26.1" />
    <rect
       id="rect987"
       class="st17"
       x="23.6"
       y="26.1"
       width="1.1"
       height="3" />
    <rect
       id="rect989"
       class="st10"
       x="24.7"
       y="26.1"
       height="3" />
    <rect
       id="rect991"
       class="st31"
       x="23.6"
       y="26.1"
       width=".3"
       height="3" />
    <rect
       id="rect993"
       class="st4"
       x="23.6"
       y="26.1"
       height="3" />
    <path
       id="path995"
       class="st32"
       d="M24.7,28.6h-.8v.5h.8v-.4h0Z" />
    <path
       id="path997"
       class="st32"
       d="M24.7,26.5h0v-.5h-.8v.5h.8Z" />
    <path
       id="path999"
       class="st33"
       d="M23.8,29.1v-.5h0v.5h0Z" />
    <path
       id="path1001"
       class="st33"
       d="M23.8,26.1v.5h0v-.5h0Z" />
    <rect
       id="rect1003"
       class="st4"
       x="23.6"
       y="26.1"
       height=".5" />
    <rect
       id="rect1005"
       class="st12"
       x="24.7"
       y="26.1"
       height=".5" />
    <rect
       id="rect1007"
       class="st4"
       x="23.6"
       y="28.6"
       height=".5" />
    <rect
       id="rect1009"
       class="st12"
       x="24.7"
       y="28.6"
       height=".5" />
    <line
       id="line1011"
       class="st0"
       x1="23.6"
       y1="26.4"
       x2="23.6"
       y2="26.4" />
    <polygon
       id="rect1013"
       class="st33"
       points="23.6 29 23.9 29 23.9 29 23.6 29" />
    <polygon
       id="rect1015"
       class="st33"
       points="23.6 26.1 23.9 26.1 23.9 26.1 23.6 26.1" />
    <rect
       id="rect1019"
       class="st17"
       x="26.5"
       y="26.1"
       width="1.1"
       height="3" />
    <rect
       id="rect1021"
       class="st10"
       x="27.5"
       y="26.1"
       height="3" />
    <rect
       id="rect1023"
       class="st31"
       x="26.4"
       y="26.1"
       width=".3"
       height="3" />
    <rect
       id="rect1025"
       class="st4"
       x="26.4"
       y="26.1"
       height="3" />
    <path
       id="path1027"
       class="st32"
       d="M27.6,28.6h-.8v.5h.8v-.4h0Z" />
    <path
       id="path1029"
       class="st32"
       d="M27.5,26.5h0v-.5h-.8v.5h.8Z" />
    <path
       id="path1031"
       class="st33"
       d="M26.7,29.1v-.5h0v.5h0Z" />
    <path
       id="path1033"
       class="st33"
       d="M26.7,26.1v.5h0v-.5h0Z" />
    <rect
       id="rect1035"
       class="st4"
       x="26.4"
       y="26.1"
       height=".5" />
    <rect
       id="rect1037"
       class="st12"
       x="27.5"
       y="26.1"
       height=".5" />
    <rect
       id="rect1039"
       class="st4"
       x="26.4"
       y="28.6"
       height=".5" />
    <rect
       id="rect1041"
       class="st12"
       x="27.5"
       y="28.6"
       height=".5" />
    <line
       id="line1043"
       class="st0"
       x1="26.4"
       y1="26.4"
       x2="26.4"
       y2="26.4" />
    <polygon
       id="rect1045"
       class="st33"
       points="26.4 29 26.7 29 26.7 29 26.4 29" />
    <polygon
       id="rect1047"
       class="st33"
       points="26.4 26.1 26.7 26.1 26.7 26.1 26.4 26.1" />
    <rect
       id="rect1051"
       class="st17"
       x="28.7"
       y="26.1"
       width="1.1"
       height="3" />
    <rect
       id="rect1053"
       class="st10"
       x="29.8"
       y="26.1"
       height="3" />
    <rect
       id="rect1055"
       class="st31"
       x="28.7"
       y="26.1"
       width=".3"
       height="3" />
    <rect
       id="rect1057"
       class="st4"
       x="28.7"
       y="26.1"
       height="3" />
    <path
       id="path1059"
       class="st32"
       d="M29.8,28.6h-.8v.5h.8v-.4h0Z" />
    <path
       id="path1061"
       class="st32"
       d="M29.8,26.5h0v-.5h-.8v.5h.8Z" />
    <path
       id="path1063"
       class="st33"
       d="M29,29.1v-.5h0v.5h0Z" />
    <path
       id="path1065"
       class="st33"
       d="M29,26.1v.5h0v-.5h0Z" />
    <rect
       id="rect1067"
       class="st4"
       x="28.7"
       y="26.1"
       height=".5" />
    <rect
       id="rect1069"
       class="st12"
       x="29.8"
       y="26.1"
       height=".5" />
    <rect
       id="rect1071"
       class="st4"
       x="28.7"
       y="28.6"
       height=".5" />
    <rect
       id="rect1073"
       class="st12"
       x="29.8"
       y="28.6"
       height=".5" />
    <line
       id="line1075"
       class="st0"
       x1="28.7"
       y1="26.4"
       x2="28.7"
       y2="26.4" />
    <polygon
       id="rect1077"
       class="st33"
       points="28.7 29 29 29 29 29 28.7 29" />
    <polygon
       id="rect1079"
       class="st33"
       points="28.7 26.1 29 26.1 29 26.1 28.7 26.1" />
    <rect
       id="rect1083"
       class="st17"
       x="31.3"
       y="26.1"
       width="1.1"
       height="3" />
    <rect
       id="rect1085"
       class="st10"
       x="32.4"
       y="26.1"
       height="3" />
    <rect
       id="rect1087"
       class="st31"
       x="31.2"
       y="26.1"
       width=".3"
       height="3" />
    <rect
       id="rect1089"
       class="st4"
       x="31.2"
       y="26.1"
       height="3" />
    <path
       id="path1091"
       class="st32"
       d="M32.4,28.6h-.8v.5h.8v-.4h0Z" />
    <path
       id="path1093"
       class="st32"
       d="M32.3,26.5h0v-.5h-.8v.5h.8Z" />
    <path
       id="path1095"
       class="st33"
       d="M31.5,29.1v-.5h0v.5h0Z" />
    <path
       id="path1097"
       class="st33"
       d="M31.5,26.1v.5h0v-.5h0Z" />
    <rect
       id="rect1099"
       class="st4"
       x="31.2"
       y="26.1"
       height=".5" />
    <rect
       id="rect1101"
       class="st12"
       x="32.4"
       y="26.1"
       height=".5" />
    <rect
       id="rect1103"
       class="st4"
       x="31.2"
       y="28.6"
       height=".5" />
    <rect
       id="rect1105"
       class="st12"
       x="32.4"
       y="28.6"
       height=".5" />
    <line
       id="line1107"
       class="st0"
       x1="31.2"
       y1="26.4"
       x2="31.2"
       y2="26.4" />
    <polygon
       id="rect1109"
       class="st33"
       points="31.2 29 31.5 29 31.5 29 31.2 29" />
    <polygon
       id="rect1111"
       class="st33"
       points="31.2 26.1 31.5 26.1 31.5 26.1 31.2 26.1" />
    <rect
       id="rect1115"
       class="st17"
       x="34.1"
       y="26.1"
       width="1.1"
       height="3" />
    <rect
       id="rect1117"
       class="st10"
       x="35.2"
       y="26.1"
       height="3" />
    <rect
       id="rect1119"
       class="st31"
       x="34.1"
       y="26.1"
       width=".3"
       height="3" />
    <rect
       id="rect1121"
       class="st4"
       x="34"
       y="26.1"
       height="3" />
    <path
       id="path1123"
       class="st32"
       d="M35.2,28.6h-.8v.5h.8v-.4h0Z" />
    <path
       id="path1125"
       class="st32"
       d="M35.2,26.5h0v-.5h-.8v.5h.8Z" />
    <path
       id="path1127"
       class="st33"
       d="M34.3,29.1v-.5h0v.5h0Z" />
    <path
       id="path1129"
       class="st33"
       d="M34.3,26.1v.5h0v-.5h0Z" />
    <rect
       id="rect1131"
       class="st4"
       x="34"
       y="26.1"
       height=".5" />
    <rect
       id="rect1133"
       class="st12"
       x="35.2"
       y="26.1"
       height=".5" />
    <rect
       id="rect1135"
       class="st4"
       x="34"
       y="28.6"
       height=".5" />
    <rect
       id="rect1137"
       class="st12"
       x="35.2"
       y="28.6"
       height=".5" />
    <line
       id="line1139"
       class="st0"
       x1="34"
       y1="26.4"
       x2="34"
       y2="26.4" />
    <polygon
       id="rect1141"
       class="st33"
       points="34.1 29 34.4 29 34.4 29 34.1 29" />
    <polygon
       id="rect1143"
       class="st33"
       points="34.1 26.1 34.4 26.1 34.4 26.1 34.1 26.1" />
    <g
       id="text3685"
       class="st5">
      <text
         class="st7"
         transform="translate(6.8 9.5)"
         id="text1"><tspan
           x="0"
           y="0"
           id="tspan1">5V</tspan></text>
    </g>
    <g
       id="text1203"
       class="st5">
      <text
         class="st7"
         transform="translate(5.2 13.2)"
         id="text2"><tspan
           x="0"
           y="0"
           id="tspan2">GND</tspan></text>
    </g>
    <g
       id="text1205"
       class="st5">
      <text
         class="st7"
         transform="translate(5.2 20.4)"
         id="text3"><tspan
           x="0"
           y="0"
           id="tspan3">3V3</tspan></text>
    </g>
    <g
       id="text1207"
       class="st5">
      <text
         class="st7"
         transform="translate(5.2 27.6)"
         id="text4"><tspan
           x="0"
           y="0"
           id="tspan4">29</tspan></text>
    </g>
    <g
       id="text1209"
       class="st5">
      <text
         class="st7"
         transform="translate(5.2 34.8)"
         id="text5"><tspan
           x="0"
           y="0"
           id="tspan5">28</tspan></text>
    </g>
    <g
       id="text1211"
       class="st5">
      <text
         class="st7"
         transform="translate(5.2 42)"
         id="text6"><tspan
           x="0"
           y="0"
           id="tspan6">27</tspan></text>
    </g>
    <g
       id="text1213"
       class="st5">
      <text
         class="st7"
         transform="translate(4 49.2)"
         id="text7"><tspan
           x="0"
           y="0"
           id="tspan7">26</tspan></text>
    </g>
    <g
       id="text1215"
       class="st5">
      <text
         class="st7"
         transform="translate(4 56.4)"
         id="text8"><tspan
           x="0"
           y="0"
           id="tspan8">15</tspan></text>
    </g>
    <g
       id="text1217"
       class="st5">
      <text
         class="st7"
         transform="translate(4 63.6)"
         id="text9"><tspan
           x="0"
           y="0"
           id="tspan9">14</tspan></text>
    </g>
    <g
       id="text1219"
       class="st5">
      <text
         class="st7"
         transform="translate(9 63.6)"
         id="text10"><tspan
           x="0"
           y="0"
           id="tspan10">13</tspan></text>
    </g>
    <g
       id="text1221"
       class="st5">
      <text
         class="st7"
         transform="translate(16.2 63.6)"
         id="text11"><tspan
           x="0"
           y="0"
           id="tspan11">12</tspan></text>
    </g>
    <g
       id="text1223"
       class="st5">
      <text
         class="st7"
         transform="translate(23.4 63.6)"
         id="text12"><tspan
           x="0"
           y="0"
           id="tspan12">11</tspan></text>
    </g>
    <g
       id="text1225"
       class="st5">
      <text
         class="st7"
         transform="translate(30.6 63.6)"
         id="text13"><tspan
           x="0"
           y="0"
           id="tspan13">10</tspan></text>
    </g>
    <g
       id="text1227"
       class="st5">
      <text
         class="st7"
         transform="translate(38.6 63.6)"
         id="text14"><tspan
           x="0"
           y="0"
           id="tspan14">9</tspan></text>
    </g>
    <g
       id="text1229"
       class="st5">
      <text
         class="st7"
         transform="translate(43.6 63.6)"
         id="text15"><tspan
           x="0"
           y="0"
           id="tspan15">8</tspan></text>
    </g>
    <g
       id="text1231"
       class="st5">
      <text
         class="st7"
         transform="translate(43.6 56.4)"
         id="text16"><tspan
           x="0"
           y="0"
           id="tspan16">7</tspan></text>
    </g>
    <g
       id="text1233"
       class="st5">
      <text
         class="st7"
         transform="translate(43.6 49.2)"
         id="text17"><tspan
           x="0"
           y="0"
           id="tspan17">6</tspan></text>
    </g>
    <g
       id="text1235"
       class="st5">
      <text
         class="st7"
         transform="translate(43.6 42)"
         id="text18"><tspan
           x="0"
           y="0"
           id="tspan18">5</tspan></text>
    </g>
    <g
       id="text1237"
       class="st5">
      <text
         class="st7"
         transform="translate(43.6 34.8)"
         id="text19"><tspan
           x="0"
           y="0"
           id="tspan19">4</tspan></text>
    </g>
    <g
       id="text1239"
       class="st5">
      <text
         class="st7"
         transform="translate(43.6 27.6)"
         id="text20"><tspan
           x="0"
           y="0"
           id="tspan20">3</tspan></text>
    </g>
    <g
       id="text1241"
       class="st5">
      <text
         class="st7"
         transform="translate(43.6 20.4)"
         id="text21"><tspan
           x="0"
           y="0"
           id="tspan21">2</tspan></text>
    </g>
    <g
       id="text1243"
       class="st5">
      <text
         class="st7"
         transform="translate(43.6 13.2)"
         id="text22"><tspan
           x="0"
           y="0"
           id="tspan22">1</tspan></text>
    </g>
    <g
       id="text1245"
       class="st5">
      <text
         class="st7"
         transform="translate(42.2 9.4)"
         id="text23"><tspan
           x="0"
           y="0"
           id="tspan23">0</tspan></text>
    </g>
    <g
       id="text1247"
       class="st5">
      <text
         class="st8"
         transform="translate(11.3 33.7)"
         id="text24"><tspan
           x="0"
           y="0"
           id="tspan24">RP2040-Zero</tspan></text>
    </g>
    <g
       id="text1249"
       class="st5">
      <text
         class="st6"
         transform="translate(8 39.4)"
         id="text25"><tspan
           x="0"
           y="0"
           id="tspan25">BOOT</tspan></text>
    </g>
    <g
       id="text1251"
       class="st5">
      <text
         class="st6"
         transform="translate(32 39.4)"
         id="text26"><tspan
           x="0"
           y="0"
           id="tspan26">RESET</tspan></text>
    </g>
    <g
       id="text1253"
       class="st5">
      <text
         class="st7"
         transform="translate(42.6 28.9) rotate(-90)"
         id="text27"><tspan
           x="0"
           y="0"
           id="tspan27">Waveshare</tspan></text>
    </g>
    <circle
       id="connector0pin"
       class="st1"
       cx="4"
       cy="8.5"
       r="2.1" />
    <circle
       id="connector1pin"
       class="st1"
       cx="4"
       cy="15.7"
       r="2.1" />
    <circle
       id="connector2pin"
       class="st1"
       cx="4"
       cy="22.9"
       r="2.1" />
    <circle
       id="connector3pin"
       class="st1"
       cx="4"
       cy="30.1"
       r="2.1" />
    <circle
       id="connector4pin"
       class="st1"
       cx="4"
       cy="37.3"
       r="2.1" />
    <circle
       id="connector5pin"
       class="st1"
       cx="4"
       cy="44.5"
       r="2.1" />
    <circle
       id="connector6pin"
       class="st1"
       cx="4"
       cy="51.7"
       r="2.1" />
    <circle
       id="connector7pin"
       class="st1"
       cx="4"
       cy="58.9"
       r="2.1" />
    <circle
       id="connector8pin"
       class="st1"
       cx="4"
       cy="66.1"
       r="2.1" />
    <circle
       id="connector9pin"
       class="st1"
       cx="11.2"
       cy="66.1"
       r="2.1" />
    <circle
       id="connector10pin"
       class="st1"
       cx="18.4"
       cy="66.1"
       r="2.1" />
    <circle
       id="connector11pin"
       class="st1"
       cx="25.6"
       cy="66.1"
       r="2.1" />
    <circle
       id="connector12pin"
       class="st1"
       cx="32.8"
       cy="66.1"
       r="2.1" />
    <circle
       id="connector13pin"
       class="st1"
       cx="40"
       cy="66.1"
       r="2.1" />
    <circle
       id="connector14pin"
       class="st1"
       cx="47.2"
       cy="66.1"
       r="2.1" />
    <circle
       id="connector15pin"
       class="st1"
       cx="47.2"
       cy="58.9"
       r="2.1" />
    <circle
       id="connector16pin"
       class="st1"
       cx="47.2"
       cy="51.7"
       r="2.1" />
    <circle
       id="connector17pin"
       class="st1"
       cx="47.2"
       cy="44.5"
       r="2.1" />
    <circle
       id="connector18pin"
       class="st1"
       cx="47.2"
       cy="37.3"
       r="2.1" />
    <circle
       id="connector19pin"
       class="st1"
       cx="47.2"
       cy="30.1"
       r="2.1" />
    <circle
       id="connector20pin"
       class="st1"
       cx="47.1"
       cy="22.9"
       r="2.1" />
    <circle
       id="connector21pin"
       class="st1"
       cx="47.2"
       cy="15.7"
       r="2.1" />
    <circle
       id="connector22pin"
       class="st1"
       cx="47.2"
       cy="8.5"
       r="2.1" />
  </g>
</svg>
